<svg width="1080" height="372" xmlns="http://www.w3.org/2000/svg"><g fill="none" fill-rule="evenodd"><path d="M206.87 0h15.967c-.5.604-1.004 1.203-1.514 1.798a164.595 164.595 0 0 1-23.874 22.945c-8.541 6.712-17.549 12.375-26.625 17.223-9.086 4.847-18.283 8.791-27.36 12.125-12.784 4.721-24.842 8.053-33.146 8.992-.682-.398.813-.77 1.675-1.15-7.63 1.325-2.515-2.337-7.207-2.426 2.118-.69 1.3-1.426 4.003-2.105-2.005.06-2.57-.706-4.125-.9 1.71-.72 3.322-1.57 5.086-2.353 1.762-.805 3.664-1.598 5.99-2.11.868-.538-1.022-.926.353-1.003 1.214-.01.189.397.248.829l2.78-.827 2.762-.907 5.519-1.815 5.474-1.97c1.825-.652 3.648-1.31 5.445-2.053l5.408-2.153 5.343-2.33c.888-.396 1.784-.768 2.665-1.18l2.63-1.262c1.746-.858 3.522-1.644 5.24-2.56 13.834-7.095 27.029-15.681 38.502-26.187A150.317 150.317 0 0 0 206.869 0zm-4.412 0a161.122 161.122 0 0 1-6.67 6.607c-14.035 13.14-30.039 23.058-45.796 30.262a95.358 95.358 0 0 1-7.684 3.745c-2.782 1.126-5.658 2.34-8.563 3.375-5.788 2.15-11.52 4.073-15.96 6.196-2.108-.15-7.376 1.796-12.523 3.176-5.117 1.506-10.075 2.508-11.237 1.42-8.83 1.827-15.668 2.956-22.793 4.061-3.56.564-7.21.993-11.213 1.54-4.007.507-8.388.937-13.417 1.472-4.002-.979-12.876-.26-11.954-2.549.517-1.292 5.582-2.55 11.617-3.729 3.01-.652 6.26-1.287 9.315-1.89 3.056-.59 5.89-1.284 8.097-1.837l4.11-.528c1.457-.217 2.987-.492 4.57-.769 3.163-.566 6.533-1.181 9.823-1.993 3.298-.779 6.562-1.565 9.502-2.502 2.943-.92 5.628-1.747 7.746-2.679 10.793-3.03 21.574-6.397 31.81-10.46 10.237-4.046 19.918-8.817 28.384-14.36.108-1.005-1.803.172-3.063.51-.899-1.853-7.676-.298-2.59-4.705-1.986-.06-1.408-1.126-.273-2.415 1.122-1.307 2.744-2.923 3.055-3.942 3.324-2.492 6.74-5.194 10.274-8.006h35.433z" fill-opacity=".12" fill="#FFF"/><path d="M997.005 171.034c-.665 7.666-4.097 15.063-8.762 21.481-4.689 6.478-10.599 12.125-16.588 17.727-.658.616.058 1.385.731.788 6.115-5.418 12.791-10.32 18.41-16.63 2.797-3.145 5.3-6.646 7.149-10.526 1.846-3.867 3.034-8.138 3.12-12.468.041-1.77-1.015-2.693-1.985-2.714-1.009-.022-1.936.743-2.075 2.342" fill="#4FD7F5"/><path d="M973.348 263.361c-.357-.036-.804-.16-1.245-.326a8.023 8.023 0 0 1-.666-.283l-.8-.389-3.255-1.59-6.494-3.22a905.13 905.13 0 0 1-12.918-6.589 774.767 774.767 0 0 1-25.486-13.854c-.922-.523-1.452.381-.542.927 8.253 4.958 16.28 10.485 24.518 15.71 4.118 2.613 8.286 5.149 12.545 7.493a145.337 145.337 0 0 0 6.464 3.359 118.16 118.16 0 0 0 3.292 1.544l.844.378c.329.142.66.275 1.005.389.69.229 1.411.413 2.23.477.66.05 1.319-.045 1.878-.302.56-.26.979-.651 1.18-1.05.398-.817.04-1.367-.352-1.616-.416-.275-.95-.357-1.251-.59-.315-.254-.31-.417-.947-.468" fill="#FFA3BE"/><path d="M930.747 154.48c-8.008-.959-16.06-1.753-24.08-2.66-.44-.048-.578.99-.141 1.064 7.922 1.352 15.559 5.792 23.688 5.617 1.65-.034 2.227-3.817.533-4.02" fill="#F2CB92"/><path d="M1080 287.742c-20.637 3.442-41.095 7.319-61.149 11.76a757.44 757.44 0 0 0-76.052 20.813c-1.872-.073-4.473 1.522-5.967 1.368a281.7 281.7 0 0 1-7.541 2.807c-2.653.999-5.426 2.042-8.246 3.105-5.64 2.122-11.496 4.233-16.884 6.393 1.426-.01 8.861-2.644 12.071-4.065 4.494-1.058 9.011-2.475 13.605-3.926 4.619-1.374 9.291-2.85 14.018-4.203 8.312-2.48 17.072-4.202 25.748-6.523 33.822-8.874 67.496-17.77 97.847-23.024a80.947 80.947 0 0 1 7.395-1.717 317.85 317.85 0 0 1 5.155-.841v11.471l-4.102.731c-2.447.52-4.876 1.039-7.285 1.553a422.556 422.556 0 0 0-14.089 3.31c-.391.894 1.67.485 2.88.526.259 2.042 6.899 2.653 1.017 5.266 3.595 1.34-3.291 3.327-4.521 5.05-17.244 5.891-40.049 10.37-62.411 17.091l-8.354 2.4-8.289 2.57c-5.505 1.726-11.011 3.315-16.37 5.051-10.692 3.558-21.101 6.747-30.577 10.103a727.404 727.404 0 0 1-11.952 3.96c-4.105 1.357-8.203 2.788-12.063 3.966-3.855 1.194-7.451 2.198-10.49 2.873-3.05.645-5.48 1.122-7.102 1-1.878-.113-2.377-1.5-4.609-1.295.019-2.052-2.779-2.755.116-5.468 2.083-1.36 4.354-2.786 6.826-4.104a204.681 204.681 0 0 1 7.846-3.933 369.37 369.37 0 0 1 8.469-3.899l4.366-1.93c1.47-.623 2.958-1.207 4.437-1.807-1.065.013-2.495.545-3.94 1.063-1.436.543-2.878 1.096-4.002 1.083-5.47 2.377-12.835 4.964-21.231 7.955l-13.239 4.863-7.048 2.565c-2.38.876-4.754 1.858-7.168 2.802l-15.785 6.35-2.74 1.145h-29.646c.29-.202.596-.407.916-.616a151.476 151.476 0 0 0 7.536-4.121c2.363-1.365 4.654-2.69 7.127-3.82 2.899-1.322 5.549-1.795 8.408-3 6.971-2.85 13.491-6.614 21.555-10.286-9.88 4.076-20.675 8.087-31.126 12.231a588.286 588.286 0 0 1-7.842 2.942c-2.599.95-5.179 1.86-7.674 2.83A379.376 379.376 0 0 1 797.2 372h-9.42c4.014-2.814 9.796-6.063 15.827-9.234 1.645-.851 3.288-1.742 4.956-2.537 1.671-.79 3.325-1.575 4.934-2.337l8.906-4.165 5.125-2.412c1.715-.816 3.444-1.632 5.212-2.39l10.716-4.721c3.631-1.587 7.301-3.238 11.072-4.838l11.594-4.715c34.397-13.916 70.433-26.24 106.148-36.013 35.718-9.756 71.097-16.914 103.878-21.413 1.296-.167 2.58-.334 3.852-.5v11.017z" fill="#1E2238"/><path d="M597.538 256.582c.029.129.039.262.026.396 1.864 1.735 5.726.633 6.436 3.022-6.642-.37-14.412-7.24-18.52-6.417-1.4-.22-2.19-3.955-4.591-2.694-.274-1.474-3.57-3.938-4.339-2.338.978-.136 1.767.762 2.714.794-1.003 2.176-1.962-.48-3.691-.654 2.172-1.572-4.512-3.717-6.468-4.596.396-1.5 2.833.642 3.942 1.013-.086-1.348-3.148-1.252-4.227-2.944-.213.38-.427.76-.22 1.215-2.6.503-2.444-3.769-5.097-3.412-.47.478 1.56 1.741 2.24 1.651-1.22.277-9.218-3.188-8.06-4.565-1.051-.825-.828-.03-1.704.64-3.596-2.344-7.43-3.39-11.029-5.717-.485.932 1.953 1.377.79 2.648.533.424.364-.46 1.088-.748 1.168 1.037.388 1.98 1.514 2.15.679-.764-.833-.257-.394-1.324 1.483-.643 1.694 1.33 1.515 2.15 11.435 6.347 23.694 12.52 35.938 18.912-5.852-1.581-13.93-6.045-20.54-9.284-.711.293-.488.75-.22 1.216-.817.415-1.283-1.1-2.1-.686-.183-.82.624-.505 1.09-.748-.94-1.239-2.478.82-3.55.312-.762-1.375-2.945-2.331-2.856-1.76-.772.37-1.71-2.578-.284-1.933-1.053-1.297-2.094-1.415-2.824-.186-5.26-3.673-10.712-6.287-16.013-9.737-.346.252.027.632.142.966-9.167-6.415-18.956-10.422-27.246-19.568 1.636.695 1.8.345 1.199-1.356 3.867 3.616 11.843 6.32 15.43 11.202 4.342 1.147 8.258 4.646 12.4 6.902.232-2.77-4.89-3.896-6.973-5.313-1.328-1.072.96-1.503-.175-2.541 1.502-.216 3.211-.198 4.906.57-.345-1.682 1.133.467 1.71-.628.011-1.322-2.834-1.845-3.984-2.582-1.21 1.596.948.536 1.517 2.146-2.783-2.57-6.598-4.83-8.03-8.306.658-.7 1.054.037 1.486.576 1.694-2.176 1.475-2.824 3.46-5.026 8.486 4.645 17.59 5.897 25.687 12.676 1.124-.987-1.949-.726-.033-1.57 3.767 4.677 9.482 5.108 14.415 8.18-.898-2.09-4.646-3.577-6.955-3.733-.184-.45.552-.738.222-1.213-1.801.911-1.302-1.753-3.445-.295-.52-1.424.592-.87 1.453-.996-.81-1.013-2.544-1.547-2.386-2.614 1.82.315 1.753.605 3.114 2.116 3.207.437 6.175 2.19 9.168 3.81 2.411-1.253 5.891-.22 6.78 1.197 3.316-.518 12.338 4.671 5.596 9.442-10.884-2.537-21.405-7.076-31.597-13.406.761-.683 1.135.757 1.85.326-7.137-1.079-16.043-4.176-23.41-9.455-.539.853 1.703.968 2.134 2.255-.714.43-1.089-1.01-1.848-.327 2.872 1.935 7.933 4.26 8.33 4.917 8.518 3.363 19.36 10.27 28.404 13.468.97-.456-1.354-1.492.331-1.82 5.953 4.575 12.799 4.247 18.951 7.73 1.18 2.087-1.541 3.484-2.227 5.243-2.873.635-4.9-3.375-7.904-2.022-.722-.953.097-1.134-1.011-1.431-12.856-3.351-25.026-10.479-37.32-16.922 2.014-1.149 3.35 1.409 5.186 1.229-3.306-1.836-5.404-3.248-7.681-3.235-.854 1.046 1.22-.044 1.374 1.18-1.215.297-2.145-.966-3.318-.902 1.149.525 2.291 1.395 3.358 2.772 1.771-1.108 4.765 2.285 8.172 3.957 2.02.99 2.434 1.078 4.085 1.978 2.703 1.475 9.145 2.887 11.028 5.717 6.103 1.368 11.378 7.291 17.465 8.74.759 1.214 2.068 1.139.536 2.29.202-1.981-2.303-.266-3.218-1.51 2.514 1.74 7.357 5.498 10.743 3.785.002.472.014.942.505.716.563.519.194.872-.22 1.215 1.41 1.67 1.838-.085 3.02.516 2.352.11 8.877 2.244 10.72 3.79-1.105.77-1.73-.885-2.715-.726.858 1.735-2.074.205-3.747-.486zm-.384-.736c.102-.087.216-.171.297-.261a3.944 3.944 0 0 1-.769-.173c.173.123.335.27.472.434zm-1.432-.829c-.79-.376-1.565-.82-2.399-.972-1.6 1.567 3.09 1.886 1.639 1.531.056-.439.37-.597.76-.559zM582 289c3.702 1.176 8.792 3.55 11 7.173-1.286.495-.629 1.331-1.915 1.827-3.23-2.255-9.055-4.822-9.085-9zm-22.337-30.763c.418-1.764-3.095-3.148-3.346-.914 1.17-1.22 1.435 2.441 3.346.914zm-31.97-20.91c1.523.243 5.45.99 6.39 5.259 1.494-.369-.542-1.364.95-1.731 1.076 1.12 1.867 3.809 3.268 3.116-1.405-1.856 3.917.236 2.76 2.394.87-.374.791-.916 1.204-1.37-.786-1.563-2.847-1.386-2.647-3.008 2.25.634 2.877 1.643 4.503 3.338-.526-.03-1.013-.276-1.49-.582 4.556 5.875 14.825 7.86 21.582 13.036.338-1.3.47-.19 1.349-.393.368.958-.877-.046-.84 1.118 8.11 3.319 17.566 6.876 24.278 12.25-1.542.816-4.323-.726-4.805.094-4.648-2.711-10.916-6.125-16.572-8.975-.463-.233-1.078-.028-1.601.033.653-1.323-.224-1.169-1.158-2.427-1.705 1.487-6.956-.88-9.784-2.375-.208-.64.346-.185.73-.504-3.164-2.776-5.942-1.823-8.5-5.952-.819.382-1.09.863-.587 1.48-1.1.006-.516-1.495-1.887-1.92-.348.254.027.638.142.976-1.57-1.765-4.89-4.76-7.85-4.252.648-1.284-.278-.869-1.157-2.424-.715.294-.492.757-.222 1.228-6.575-3.428-14.103-9.31-17.73-11.4-3.227-5.014-10.894-4.832-14.019-10.737.479-.867.98-1.728 1.427-2.599 7.607 4.022 14.54 11.016 20.235 13.43 1.41.132.431 2.505 2.03 2.897zm-6.437-9.204c.406.676.972.452 1.367 1.187.916-.984-.883-.53-1.006-1.436 4.265-.694 7.148 4.135 11.806 4.617.494.716-.665 1.137.283 1.936.53.422.363-.463 1.084-.75 2.764 2.666 6.48 4.72 9.42 7.333.157-.39.324-.78.832-1.107 1.31 2.655 3.38 1.104 4.6 4.275.46-.232.586-.524.47-.858 4.378 5.602 14.615 7.238 21.007 13.17.804.212 1.758-.411 2.558-.173 2.722 4.27 6.114 4.153 8.196 7.115.81-.38 1.08-.855.58-1.467 2.921.998 4.067 2.626 6.547 3.995-2.28.387-4.04-2.12-6.153-2.668-.063.507 1.249 1.494-.44 2.435-.234-.356.247-.585.471-.859-.64-1.115-1.588-.539-2.23-1.655-.33.36.255.884-.219 1.218.5.153 1.037.09 1.586-.03-3.109.635-11.009-4.978-15.653-7.818-1.295-.412-2.646-.51-3.705-2.232 1.186-.148 2.063 1.406 3.203 1.515.078-1.125-2.741-1.083-3.485-3.45a38.641 38.641 0 0 0-.33 1.826c-.894-.305-1.879-.095-2.591-1.403.756-.685 1.127.76 1.837.328-.742-1.141-1.852-.24-2.48-2.014-.52 3.013-10.33-3.897-9.64-6.116-.459-.96-1.505 1.338-1.837-.328.34-.134.611.11.974-.14-.405-.676-.973-.452-1.367-1.187-.912 2.235 3.032 3.018 3.015 4.308-4.494-.775-7.848-7.875-12.591-7.272-.106-1.847-5.656-4.663-6.547-3.993-3.887-3.62-9.92-4.992-10.818-10.097 1.067-1.255 2.174 1.475 1.256 1.795zm18.579 39.426c-4.368.98-11.986-5.162-11.053-7.341-1.044 1.096-1.707.081-2.57.173-2.396-3.028-9.032-5.451-13.622-7.167 5.314 2.368 10.297 7.522 14.379 8.25 2.458 4.064 9.78 5.46 12.314 9.144.588-1.624-.062-1.827.552-3.059zm-21.54-23.106c1.221-.352.283 1.479 1.514 2.165.414-.453-.33-1.112-.646-1.694 10.928 5.349 23.607 14.227 34.716 20.406 3.098 1.721 7.09 3.119 8.531 3.733 1.414.093-.136 2.078 1.766 2.525.987-1.174-.29-.795-.899-2.056 2.108.551 6.359 2.268 6.212 4.268-1.277-1.13-2.918-.24-4.083-1.993-.683.405-.456.972-1.198 1.365-4.567-4.275-10.584-3.687-13.622-7.167.546 2.996-6.227-3.755-4.225-2.965-3.867-.642-5.576-2.544-7.806-4.235-.482.335-.966.67-1.45 1.004 1.73 1.182 2.661 1.697 4.73 3.687-4.026-1.829-9.677-3.675-12.282-7.56l-1.45 1.003c4.864 4.083 10.528 5.075 15.894 10.415-1.293-3.14 8.663 3.934 11.13 5.145.384-.353-.154-.87-.395-1.334 7.615 4.28 12.88 8.356 20.922 10.682.526 2.765 3.756 1.521 5.346 3.796-4.578-.98-9.06-2.975-11.857-4.643-.928 1.486 1.22-.044 1.373 1.192-2.197.497-2.154-1.744-4.227-2.965-.407 1.906-4.742-.694-3.579-1.269-.657-.855-1.252.753-.835 1.114-.995.56.064-.967-1.01-1.443-.343.254.03.635.144.972-3.003-.553-4.565-3.24-7.552-3.874.385.21.768.425 1.228.22.328 1.027-2.347.254-1.733-.942-1.016-.818-2.486.883-3.327-.91-.85 1.044 1.106.583 1.261 1.804-2.432.306-2.133-3.623-4.698-2.102 2.366-1.64-3.37-2.663-4.005-4.187-1.267 2.304 2.203 1.023 2.996 2.744-.936 2.036-3.323-.93-4.7-2.1.451 2.812 6.214 4.988 9.068 6.038 6.803 5.678 14.208 8.028 21.205 12.627-3.313.778-5.684-3.675-8.892-3.482-.508-1.286-1.367-.628-1.877-1.914-11.837-5.921-23.703-11.678-35.08-20.156-.28.031-.053.918.143.973-2.57-.743-8.086-4.097-9.823-7.12-.345.254.027.635.142.971-3.584-1.958-8.733-4.193-11.163-6.728-1.063-.764-.601 1.194-1.702.644-1.934-2.065-8.044-4.751-4.32-7.718 1.695.566 3.176 2.328 4.84 3.074.62-1.112.54-1.549 1.922-1.868 1.173 1.127 2.549 1.117 3.721 2.244-.862-2.873-5.017-2.659-6.968-5.349 2.384.697.411-1.384 2.033-2.48 7.034 3.815 11.824 8.788 18.21 9.882-1.243-1.321-2.567-2.189-3.973-2.603-.437-.71 1.024-1.08.33-1.836zm72.112 38.53c-.153-.56-.055-1.073.586-1.49-.51-1.311-1.488-.004-1.997-1.316-.925 1 .89.537 1.014 1.46-2.7-2.176-4.7-2.291-6.61-4.057-.262.062-.079.885.142.98-3.019-1.32-9.152-4.913-13.551-6.256 3.255 2.007 6.645 3.26 9.842 5.593-3.521-1.806-8.523-2.502-10.604-6.686-4.2-1.93-10.1-6.102-15.55-7.574.945.416 1.194-.966.11-.618-.206-.642.347-.185.73-.507-.485-1.247-3.207-2.03-3.519-3.502 1.49.044 4.486 1 4.613 2.74.7.244 1.48.053 2.219.08 13.304 8.229 26.894 14.879 40.69 20.375.952 1.208 1.714 1.356 1.41 2.805-4.428-.449-4.895-2.191-9.525-2.027zm-27.666 12.146c1.06 3.987 8.287 3.57 10.259 6.858-1.396.216-2.5-1.142-3.775-1.572-.331.45-.417.94.03 1.527-1.387-.39-2.805-.616-4.023-1.92 1.282-.739 2.044 1.35 3.277.877.123-1.342-3.985-3.158-4.381-1.679-1.294-2.104-4.997-1.051-7.194-3.387.802-.391 1.373.467 2.174.075-2.896-1.813-5.872-3.203-8.793-4.885-.837 1.005 1.014.976 1.243 1.74-1.013 1.068-4.409-2.734-2.564-1.361.906-.954-.874-.511-.994-1.392 5.377-.042 9.489 2.686 13.533 6.322.12-.466.506-.887 1.104-1.268-3.352-2.08-6.781-3.973-9.53-4.947-.44-.155-1.077-1.68-1.857-.326-.176-2.07-2.184-.915-1.665-3.1-1.135.701-.723-.708-2.252-1.644-.55 2.38-1.43.72-2.95.42 1.079 1.564 1.378 2.977 3.267 3.069.194.765-.68.794-.982.14-.687.4-.46.96-1.206 1.35-.557-.568-.176-.968.111-.605.796-1.194-1.27-.96-1.523-2.14-.212.378-.43.757-.222 1.208-2.849-1.053-5.605-5.573-9.595-5.115-.804-1.417-1.677-2.47-2.87-1.752-.22-.452.224-.446.364-.247-2.258-3.503-10.56-5.306-13.625-9.256-.534-.569-1.206-.386-1.966.279-3.117-2.727-6.363-4.757-9.85-5.472-.186-.657-.1-1.266-.286-1.924.298-.046 2.036-.067 1.46-.992 12.409 4.872 23.185 15.076 34.559 20.417.036-1.89-4.43-1.823-4.392-3.891-.687.401-.46.96-1.205 1.35-.862-2.116-1.918-4.266-3.776-3.782-2.535-4.604-5.303-4.82-8.169-7.676 2.33.06 4.403 1.522 6.471 3.007-1.477-2.406 1.57-.123 3.093.542-.224-2.02 2.729.31 3.854 1.612-3.083-1.35-.098-.208-2.331.529.818 1.34 2.026.56 2.87 1.75.077-.506.849-.891.587-1.457-.55-.537-.937 1.326-1.855-.325.48-.002.958-.013.73-.497 1.029-.394 1.769.796 2.616 1.395-.344.134-.618-.11-.984.14.706.215 1.294 1.072 2 1.287.43-.525-.47-.358-.762-1.069.702-.35 1.268.048 1.745.93-1.116 1.437-1.622-.439-2.586.17 2.718 1.422 5.277 3.723 8.105 4.543-1.078-1.562-1.53-2.92-5.011-4 .167-1.914 2.211.586 2.98 1.146.52-.19.525-1.885-.395-1.318 1.648.22 5.255 3.342 8.247 5.505.386-.349-.155-.86-.397-1.318 2.883 1.684 5.872 2.795 8.5 5.86-.516.501-.867.09-1.346.388.815.978 4.781.692 3.822.046 1.052 1.6 3.68 1.919 4.98 2.433 1.936.768 3.567 2.54 5.122 3.396 4.09 2.25 8.387 2.98 12.943 6.015.43-.8-1.486-3.37-2.396-2.605.623-1.837-1.2-2.449-2.791-3.923 1.917-.014 3.585 1.338 5.234 2.791-.344.133-.619-.11-.984.14 1.37 1.807 3.26.786 4.504 3.285-.66.3-.388.765-.84 1.102 4.642 3.696 10 3.486 14.798 6.34-1.593 5.331-9.874 1.684-11.973-.85-1.047 1.352-3.12-1.287-4.95-.87-.48 1.758-2.844 1.332-1.538 3.164-3.12-.974-6.12-2.592-9.198-3.798.959-.002 1.845.389 2.839.186-1.407-4.831-8.22-4.407-11.403-9.178-1.068-.838.042 1.2-1.206 1.35a153.322 153.322 0 0 0-4.83-3.143zm-25.672-41.444c.91.741 2.056.197 2.931 1.127-4.333 1.39-7.238-5.006-11.362-4.75-2.733-3.467-6.153-4.016-7.638-6.244 1.298-.81 2.14.877 3.18 1.477.577-1.085-1.633-1.197-2.105-2.208 1.802-.137 3.2 1.933 4.894 2.39-.475-1.938-4.56-2.413-4.957-5.467 4.607 2.251 8.467 8.564 13.39 9.09.277.255.095.427-.11.594-3.369-.165 3.554 2.544 1.777 3.991zm-13.151 38.465c1.992 3.226 6.71 6.043 10.071 7.489-1.072-.477-.013-2.005-1.008-1.444-.49-.107-5.87-4.92-9.063-6.045zm21.417-.913c2.252 1.182 9.01 4.144 9.316 6.406 3.342-.253 9.226 3.908 12.026 7.207.158-.394.325-.785.835-1.116 5.095 2.587 12.516 7.582 17.621 11.368.82-1.374-1.37-.361-1.623-1.555 4.178-.303 7.18 5.939 11.49 4.9-2.841 3.63-7.93-3.573-10.67-.644-.452-1.575-3.615-2.977-2.6-1.413-4.215-4.73-10.33-7.49-16.25-10.174-1.26 2.55 2.44 1.071 3.247 3.109-1.604.695.25 1.357-.803 2.702 2.204.674 4.027 3.468 6.65 1.82-.654 1.953 1.466 1.598 2.632 2.998.794-1.757 4.08-.252 4.193 1.382-6.666-.565-12.664-4.834-18.788-8.415a23.08 23.08 0 0 1 4.697 2.104c-.164-1.507-3.258-1.818-4.476-3.329-.813.381-1.083.861-.583 1.477-3.725-1.041-7.408-2.32-10.986-4.176 2.507 2.536 7.53 6.33 11.3 7.71.875 2.995-1.673 5.923-4.678 4.851-.696 1.206 1.61.255 1.986 1.304-1.164-.198-.94.592-1.813 1.257-.915-.79-1.855-1.443-2.853-1.774 1.239-1.53-2.104-1.917-.064-3.172-1.36-.312-3.094-2.117-2.521-3.611-1.485.366.539 1.359-.946 1.726-10.424-7.152-21.603-9.748-30.876-18.794 1.036-1.08.015-2.527 1.89-3.455-3.348-4.072-5.672-4.52-9.456-7.38-.346.255.026.638.14.974-2.038-2.595-10.2-4.1-6.777-8.165 10.39 3.373 21.07 14.527 30.482 17.459 1.137.92 5.62 3.96 6.322 3.658 1.22-.041 1.168.499 1.623 1.556.772.674.259-.832 1.34-.394l1.513 2.167c5.753.927 11.005 4.646 16.77 5.526.968-1.4-1.08-1.673-1.041-3.031-.612-.18-.795.585-1.955.283.108-.508-.475-1.138-.031-1.587-.611-.179-.795.586-1.955.285-4.953-5.53-9.801-8.989-16.863-10.286-.662-.913-.04-.627.47-.863-9.605-5.467-19.183-10.635-29.252-17.24-1.149.427-.18 1.233-.331 1.838-2.206-1.254-4.47-2.182-6.462-4.632-1.448.544-2.666-.631-4.225-2.968 1.324-.606 1.515-1.416 2.285-2.12 4.505 2.056 9.457 6.482 13.398 8.4 7.77 3.779 18.145 11.353 26.652 15.827zm-29.162 12.78c-1.15.21 3.9-.521 1.462-1.007 2.866.57 8.375 5.79 13.139 8.662 2.263 1.364 4.94 3.265 7.387 5.108-5.355-5.062 1.266-.53 4.59 1.13-2.297-3.221-7.714-4.472-11.026-7.968 3.092.416 6.301 2.047 9.469 4.212 5.073 3.468 11.159 7.342 14.806 11.805-3.18.5-5.672-2.802-8.593-3.74-.927.991.892.532 1.017 1.446-2.32-.828-3.128-3.888-5.608-2.577-.892-1.354-2.645-2.147-5.02-4.056.242 2.063-4.984-.525-4.99-2.468-1.008.746-3.514-.45-5.099-1.855-.443 1.428 2.124 1.1 2.764 2.39-4.988-3.052-10.185-6.618-14.298-11.083zm55.696-.995c-.675 2.05 2.227.151 3.043.202l1.088 1.551c-1.955.728-3.574-.422-5.303-.944.2-1.246.5-.8-.697-1.821.916.107 3.526.514 3.195 1.248-.566.6-.95.206-1.326-.236z" fill-opacity=".32" fill="#1E2238"/></g></svg>