<svg width="64" height="64" xmlns="http://www.w3.org/2000/svg"><defs><linearGradient x1="12.39%" y1="13.77%" x2="84.247%" y2="86.139%" id="a"><stop stop-color="#886EEB" offset="0%"/><stop stop-color="#886EEB" offset="100%"/></linearGradient></defs><g fill="none" fill-rule="evenodd"><rect fill="url(#a)" width="64" height="64" rx="16"/><path d="M61.103 21.675c.289.698-.371.237-.77.632-.302-.562.446-1.017.77-.632zm-.05 7.772c.199 1.197-.595 2.297-1.04 3.432l-.95-1.152c.88-.504 1.139-1.068.522-1.717.476-.05.954-.112 1.468-.563zM38 48.413c.31.62-.7 1.11-1.22 1.648-.31-.619.7-1.109 1.22-1.648zM24.417 60.876l.632.77-.77.631-.631-.769c.257-.21.513-.42.769-.632zm36.34-24.743l-1.154.948c-.912-.678.283-1.15-.179-1.784.5-.31.9.434 1.332.836zm-2.15 7.568c1.208-2.61-.51-3.331.929-5.918 1.163 2.115.712 4.074-.93 5.918zm-2.962 5.013c-.28-.616.179-1.16-.18-1.784 1.085-.632 1.249 1.471.18 1.784zm-11.843 9.1c.483.046-.645 2.306-.837 1.332-.03-.151.242-1.391.837-1.332zm14.712-9.527c-.204-.956-.358-2.187.905-2.033.171.724-.233 1.391-.905 2.033zm4.134 1.11c.58 1.59-1.402.531-1.717-.522.625-.368 1.077 1.036 1.717.521zM15.042 11.892c-.91.55-.695-1.666.204-2.102.555.762-1.05 1.312-.204 2.102zm-1.114 15.09c-1.226.107-.712-1.633-2.281-1.987 2.099-1.132 1.607.709 2.28 1.988zM4.842 33.17c-1.1.63-.04-1.353.521-1.716.014.59-.219 1.157-.52 1.716zm8.088.433c-.514-.323-2.231 1.09-.768.632.252-.171.503-.316.7.068-.386.316-.2.688-.451 1.016-.175-.214-.67-.18-.385.316 1.263.155 1.109-1.077.904-2.032zm2.801.273c.273 1.005-.569-.228-1.084.248-1.597.478.687-1.414 1.084-.248zm42.973-5.718c.815-1.003.951-1.881 2.17-.496-.815 1.003-.952 1.88-2.17.496zm-21.18 25.157c-1.721-.874 1.114-1.306.204-2.102.91-.549.694 1.667-.204 2.102zM57.59 43.248c-1.086.631-1.249-1.47-.18-1.784.071.596-.557 1.123.18 1.784zm1.487 6.508c.63 1.1-1.353.04-1.716-.521.59-.013 1.157.22 1.716.52z" fill-opacity=".32" fill="#FFF"/><path d="M39.613 22.521l-.04-.147c-.016.006-.024.021-.05.014-.057-.114-.003-.164-.006-.248.004 0 .007.005.01.005l-.038-.138c.113-.032.22.05.261.198l-.135.036.006.013.129-.05a.303.303 0 0 1-.017.222.196.196 0 0 1-.12.095zM33.34 43.517l.044.162a.209.209 0 0 1-.201-.053.27.27 0 0 1-.074-.128l.159-.045-.159.045c-.041-.149.026-.289.156-.324l.046.167c.016-.006.027-.017.052-.01.042.088-.027.114-.01.189-.005.002-.008-.004-.013-.003zm-1.766-9.99c-.119.015-.195-.046-.242-.084a.141.141 0 0 0-.036-.025l-.15-.15c.01-.09.06-.157.139-.179.159-.044.358.13.4.261l-.111.176zm4.938 17.641l-.016-.025c-.008-.167.046-.41.35-.616l.053.034.23-.165.546-.063c.274.107.466.292.545.518.128.375-.098.678-.219.84l-.049.068-.126.149-.207.155-.314.11c-.306.014-.584-.103-.742-.313-.196-.26-.133-.518-.05-.692zm5.613-15.735l-.079-.09-.034-.064-.031-.115.009-.11.072-.158.087-.084.062-.022a.41.41 0 0 1 .267.019l.209.162.058.123c.001.31-.207.392-.27.41a.45.45 0 0 1-.29-.029l-.06-.042zm-4.432 1.9l-.175-.113-.066-.091-.03-.115.014-.122.094-.167.096-.075.17-.048.108.01.158.072.077.076c.08.167.027.301.01.346l-.157.207-.117.059c-.087.003-.15-.025-.182-.039zm-12.74 3.423a.286.286 0 0 0-.023-.04c.008.01.031.016.043.013l-.225-.114c.009-.148.11-.188.143-.197.075-.02.15.007.214.03a.36.36 0 0 0 .062.02l.145.175c-.016.051-.02.07-.009.105l-.133.178c-.129-.003-.185-.111-.217-.17zm.9 8.86a.25.25 0 0 1 .298.192c.039.162-.072.313-.259.326l-.126-.075a.352.352 0 0 1-.027-.262.134.134 0 0 0 .005-.041l.109-.14zm7.009 4.645l.055-.086a.623.623 0 0 1 .224-.128c.174-.048.33.025.428.2l.065.112.02.063c.012.097-.005.274-.241.381l-.02-.004-.038.053-.12.064c-.197.01-.33-.111-.393-.36l-.018-.14.038-.155zm-2.131-4.016l-.13.055c-.33-.023-.458-.322-.5-.42l-.002-.123.07-.177.084-.088a.417.417 0 0 1 .414.015c.179.112.219.326.24.44l-.036.136-.14.162zm-8.362 8.28l-.229.073c-.079-.083-.11-.205-.093-.353.028-.217.153-.435.305-.53l.192.175c-.095.193-.139.419-.175.635zm8.361 3.43l-.134.142a.302.302 0 0 1-.166-.055l-.17-.13c-.023-.151.064-.27.23-.316a.519.519 0 0 1 .083-.017l.14.076c.057.118.037.203.024.26a.134.134 0 0 0-.007.04zm24.207-21.487l-.085-.065-.166-.299a.727.727 0 0 1 .526-.816l.338.005.23.124.17.229.09.008.198.099.195.216a.88.88 0 0 1 .02.64l-.058.114-.16.232-.292.173a.66.66 0 0 1-.334-.074l-.063-.037-.185-.136-.1-.155a.742.742 0 0 1-.337-.24l.013-.018zm7.86 5.86a.378.378 0 0 1-.253.204.414.414 0 0 1-.404-.092.376.376 0 0 1-.082-.376l.04-.068.094-.091.068-.04.116-.032.137.027.098.073.018-.017.083.037.076.074a.35.35 0 0 1 .009.3zm-3.747 8.336a.973.973 0 0 1-.402.236c-.53.153-1.058-.205-1.233-.833l.04-.36.13-.248.274-.225.483-.14.342.045.233.14.212.284.11.424-.002.258-.056.204-.13.215zm-4.004-9.963l-.219-.198a1.051 1.051 0 0 1-.063-.952.988.988 0 0 1 .656-.547c.229-.06.472-.04.697.059l.227.205.115.215.044.295-.018.08c-.036.205-.138.774-.822.953l-.4-.012-.217-.098zm2.306-20.521l-.16.169c-.064-.015-.13.008-.189.033-.155.063-.288.067-.41-.031l-.027-.188a.808.808 0 0 1 .248-.216.97.97 0 0 0 .216-.171l.228.058.094.346zm-9.76 23.727l.326-.254.292-.081.369.03.268.124.262.26c.178.38.062.69.024.791l-.082.147-.22.281-.396.206a.91.91 0 0 1-.446-.093l-.328-.206-.228-.311-.053-.197.052-.412.16-.285zm-1.991-4.591l-.045-.291c.078-.693.507-.888.688-.942.266-.076.543-.024.83.156l.224.3.082.29-.026.382a1.18 1.18 0 0 1-.732.64.87.87 0 0 1-.733-.098l-.19-.22-.098-.217zm-.214-11.925a.23.23 0 0 1-.02.177c-.077.138-.313.17-.448.068a.3.3 0 0 1-.115-.242l.069-.12a.363.363 0 0 1 .074-.032c.12-.033.199.032.237.064l.203.085zm3.742 1.082a.394.394 0 0 1-.283.26.392.392 0 0 1-.376-.078.382.382 0 0 1-.108-.36l.04-.079.096-.104.074-.046.171-.047h.087l.136.041.074.048c.093.107.126.24.089.365zM40.74 46.638l-.253-.086a.903.903 0 0 1-.389-.923 1 1 0 0 1 .725-.788.945.945 0 0 1 .917.26l.126.238.04.215-.034.272c-.107.238-.254.566-.653.77l-.261.055-.218-.013zm7.921 4.792l.335.27.204.38c.018.179.023.773-.702 1.014l-.457-.008-.304-.157-.279-.356-.078-.305.087-.488.216-.303.42-.224a.997.997 0 0 1 .558.177zm-35.327-1.335a.226.226 0 0 1-.173-.028.333.333 0 0 1-.153-.191.182.182 0 0 1 .129-.232l.04.148c.015-.008.02-.023.054-.02.023.003.135.095.104.157-.009.02-.026.013-.042.018l.04.148zm26.098 8.332l-.195-.242c-.1-.27-.087-.558.03-.812.13-.27.366-.473.65-.556a.953.953 0 0 1 .707.06l.19.18.111.192.07.268c-.01.392-.238.872-.85 1.052a1.93 1.93 0 0 1-.21.048l-.295-.06-.208-.13zm21.048-23.87l-.185-.148-.057-.117c-.005-.092.026-.16.04-.191l.154-.193.117-.057c.094-.003.163.032.189.045l.183.147.058.114a.386.386 0 0 1-.042.197l-.143.186-.116.06a.387.387 0 0 1-.198-.043z" fill-opacity=".32" fill="#FFF"/><g fill="#FFF" fill-rule="nonzero"><path d="M33 31.659v9l6.394-2.741A1 1 0 0 0 40 37v-8.341l-7 3zm-1-1.747l7-3-6.606-2.831a1 1 0 0 0-.788 0L25 26.912l7 3zm-1 1.747l-7-3V37a1 1 0 0 0 .606.918L31 40.659v-9z"/><path d="M38 16h-6c-8.832.01-15.99 7.168-16 16a1 1 0 0 0 2 0c.008-7.729 6.271-13.992 14-14v3l6-5zm9 15a1 1 0 0 0-1 1c-.008 7.729-6.271 13.992-14 14v-3l-6 5h6c8.832-.01 15.99-7.168 16-16a1 1 0 0 0-1-1z" fill-opacity=".72"/></g></g></svg>