<svg width="1056" height="792" xmlns="http://www.w3.org/2000/svg"><g fill="none" fill-rule="evenodd"><path d="M666.064 238.803c.042-.292.487-.52.722-.782-2.1-.239-3.907-1.957-6.021-2.135 2.785-.099 12.28 2.94 14.882 5.116-1.496 1.039-2.34-1.194-3.673-.98 1.291 2.604-3.765-.245-5.76-.92.11.27.163.556.135.847 2.506 2.326 7.696.849 8.651 4.051-8.927-.496-19.371-9.705-24.893-8.601-1.882-.294-2.944-5.301-6.17-3.612-.368-1.975-4.8-5.279-5.832-3.133 1.314-.183 2.375 1.021 3.648 1.064-1.35 2.917-2.637-.643-4.961-.876 2.92-2.107-6.065-4.984-8.694-6.161.533-2.012 3.808.86 5.299 1.357-.116-1.807-4.231-1.677-5.682-3.946-.286.51-.574 1.019-.297 1.628-3.495.675-3.283-5.051-6.85-4.572-.63.64 2.096 2.333 3.012 2.213-1.64.37-12.39-4.274-10.835-6.12-1.412-1.105-1.112-.04-2.29.858-4.833-3.142-9.986-4.543-14.823-7.663-.652 1.25 2.625 1.846 1.061 3.55.717.568.49-.617 1.463-1.003 1.57 1.39.522 2.653 2.035 2.881.912-1.024-1.12-.344-.53-1.775 1.993-.862 2.277 1.785 2.037 2.882 15.37 8.509 31.846 16.783 48.304 25.352-7.866-2.12-18.725-8.104-27.609-12.446-.955.393-.655 1.005-.296 1.63-1.097.556-1.723-1.475-2.82-.919-.247-1.1.837-.677 1.463-1.002-1.263-1.661-3.33 1.099-4.771.418-1.024-1.843-3.958-3.125-3.838-2.36-1.038.495-2.299-3.456-.382-2.59-1.415-1.74-2.815-1.897-3.796-.25-7.07-4.923-14.398-8.428-21.522-13.052-.466.338.036.848.19 1.296-12.321-8.6-25.479-13.97-36.621-26.23 2.2.93 2.418.462 1.61-1.818 5.199 4.846 15.92 8.471 20.74 15.015 5.837 1.539 11.1 6.228 16.667 9.252.313-3.712-6.572-5.222-9.372-7.122-1.785-1.437 1.292-2.014-.235-3.406 3.396-.487 7.578-.087 11.133 4.49 2.38-1.485 6.404 3.064 10.984 5.304 2.715 1.328 3.272 1.446 5.49 2.653 3.633 1.976 12.292 3.869 14.823 7.663 8.203 1.833 15.292 9.772 23.474 11.715 1.02 1.626 2.78 1.526.722 3.07.27-2.657-3.097-.358-4.327-2.026 3.38 2.335 9.89 7.37 14.44 5.075.003.632.019 1.262.679.96.757.695.26 1.168-.295 1.628 1.922 2.272 2.487-.186 4.133.731-2.197 2.115 4.141 2.544 2.186 2.068.183-1.43 2.403-.634 3.212.733zM646 283c5.048 1.568 11.99 4.733 15 9.565-1.754.66-.857 1.774-2.61 2.435-4.405-3.006-12.35-6.43-12.39-12zm-14.521-72.962c1.315-.608-1.835-1.99.449-2.428 8.065 6.101 17.34 5.664 25.676 10.306 1.597 2.783-2.089 4.647-3.019 6.992-3.892.847-6.637-4.5-10.707-2.696-.98-1.271.13-1.513-1.37-1.909-17.419-4.467-33.907-13.97-50.563-22.562 2.728-1.531 4.538 1.878 7.025 1.638-4.478-2.447-7.32-4.33-10.406-4.313-1.157 1.396 1.654-.057 1.862 1.575-1.654.397-2.919-1.305-4.519-1.202-.477-2.265 1.532.613 2.314-.849.016-1.763-3.84-2.46-5.397-3.444-1.639 2.128 1.284.715 2.056 2.862-3.77-3.426-8.94-6.44-10.88-11.075.891-.932 1.428.05 2.013.768 2.295-2.901 1.999-3.765 4.689-6.701 11.496 6.194 23.83 7.862 34.8 16.9 1.523-1.315-2.64-.966-.044-2.093 5.103 6.236 12.847 6.811 19.53 10.908-1.216-2.786-6.295-4.77-9.423-4.978-.249-.6.748-.983.3-1.617-2.44 1.215-1.763-2.338-4.667-.394-.703-1.897.802-1.16 1.969-1.328-1.096-1.35-3.447-2.061-3.233-3.485 2.466.421 2.376.806 4.22 2.821 4.344.583 8.366 2.92 12.42 5.08 3.268-1.67 7.982-.293 9.187 1.596 4.493-.69 16.716 6.229 7.58 12.59-14.746-3.382-28.999-9.435-42.808-17.874 1.032-.912 1.538 1.01 2.506.435-9.669-1.44-21.735-5.569-31.716-12.608-.73 1.138 2.307 1.29 2.891 3.008-.967.573-1.475-1.348-2.504-.437 3.892 2.58 10.749 5.681 11.286 6.556 11.541 4.484 26.231 13.694 38.483 17.958zm-15.17 31.86c.565-2.365-4.188-4.218-4.528-1.225 1.583-1.634 1.942 3.27 4.527 1.225zm-43.255-28.02c2.062.326 7.375 1.327 8.647 7.047 2.02-.494-.734-1.828 1.286-2.32 1.454 1.501 2.525 5.105 4.42 4.176-1.901-2.487 5.3.316 3.734 3.208 1.177-.5 1.07-1.227 1.63-1.836-1.064-2.095-3.852-1.857-3.582-4.03 3.045.85 3.892 2.201 6.092 4.473-.712-.04-1.37-.37-2.016-.78 6.165 7.872 20.058 10.53 29.2 17.468.457-1.741.635-.255 1.824-.526.5 1.283-1.186-.063-1.137 1.497 10.975 4.448 23.768 9.214 32.848 16.414-2.086 1.095-5.849-.972-6.5.128-6.29-3.634-14.77-8.208-22.421-12.027-.627-.312-1.46-.038-2.167.044.884-1.772-.302-1.566-1.567-3.252-2.306 1.992-9.41-1.18-13.236-3.183-.282-.857.468-.248.986-.675-4.28-3.72-8.038-2.443-11.5-7.976-1.107.513-1.475 1.156-.794 1.983-1.486.008-.698-2.003-2.553-2.572-.47.34.037.855.192 1.308-2.124-2.365-6.614-6.38-10.62-5.698.877-1.721-.376-1.164-1.565-3.249-.967.395-.665 1.016-.3 1.646-8.897-4.594-19.081-12.475-23.988-15.275-4.366-6.72-14.739-6.476-18.967-14.389.648-1.16 1.327-2.315 1.93-3.482 10.292 5.39 19.673 14.762 27.378 17.997 1.906.176.583 3.356 2.746 3.881zm-9.343-13.012c.553.913 1.324.61 1.862 1.602 1.248-1.328-1.202-.715-1.37-1.938 5.81-.937 9.738 5.582 16.084 6.233.673.967-.906 1.535.385 2.613.723.57.495-.624 1.476-1.012 3.767 3.599 8.828 6.373 12.833 9.9.215-.526.442-1.052 1.134-1.496 1.786 3.585 4.605 1.492 6.267 5.773.627-.314.798-.707.64-1.159 5.964 7.563 19.91 9.771 28.618 17.778 1.096.287 2.396-.553 3.485-.231 3.708 5.763 8.33 5.605 11.166 9.604 1.103-.512 1.47-1.154.791-1.98 3.979 1.347 5.539 3.544 8.918 5.392-3.107.523-5.505-2.86-8.383-3.6-.085.684 1.702 2.017-.598 3.286-.32-.48.336-.79.64-1.159-.872-1.506-2.163-.728-3.037-2.235-.45.487.348 1.194-.298 1.645.68.206 1.412.12 2.16-.042-4.235.859-14.997-6.72-21.324-10.552-1.765-.558-3.605-.69-5.047-3.015 1.615-.199 2.81 1.899 4.362 2.045.108-1.517-3.733-1.46-4.746-4.655-.171.819-.32 1.64-.451 2.464-1.217-.412-2.559-.129-3.53-1.895 1.03-.925 1.537 1.026 2.503.443-1.01-1.54-2.523-.323-3.379-2.718-.707 4.067-14.073-5.261-13.133-8.257-.624-1.295-2.049 1.806-2.501-.443.463-.18.833.15 1.326-.189-.55-.913-1.325-.61-1.861-1.602-1.243 3.017 4.13 4.074 4.107 5.816-6.123-1.047-10.692-10.631-17.154-9.817-.144-2.494-7.705-6.296-8.919-5.392-5.295-4.886-13.513-6.739-14.737-13.63 1.453-1.695 2.962 1.99 1.711 2.423zm24.912 53.588c-5.876 1.32-16.124-6.953-14.868-9.888-1.405 1.477-2.297.11-3.459.232-3.222-4.078-12.15-7.342-18.324-9.653 7.149 3.19 13.852 10.132 19.343 11.112 3.308 5.475 13.158 7.354 16.566 12.317.79-2.187-.084-2.46.742-4.12zm-28.975-31.123c1.642-.473.38 1.992 2.036 2.916.557-.61-.444-1.497-.87-2.281 14.702 7.205 31.758 19.163 46.702 27.485 4.167 2.319 9.538 4.201 11.476 5.029 1.902.125-.183 2.799 2.376 3.401 1.327-1.581-.39-1.072-1.209-2.77 2.835.743 8.553 3.055 8.356 5.749-1.717-1.522-3.926-.324-5.492-2.684-.92.545-.614 1.308-1.612 1.838-6.144-5.758-14.238-4.966-18.325-9.653.735 4.035-8.377-5.059-5.684-3.994-5.201-.865-7.5-3.427-10.5-5.704l-1.95 1.351c2.325 1.593 3.579 2.286 6.363 4.967-5.417-2.463-13.019-4.95-16.523-10.183l-1.95 1.351c6.542 5.5 14.162 6.837 21.38 14.03-1.74-4.232 11.654 5.297 14.973 6.928.516-.474-.208-1.17-.532-1.797 10.244 5.766 17.327 11.255 28.146 14.39.707 3.723 5.051 2.048 7.191 5.112-6.159-1.32-12.187-4.007-15.95-6.253-1.249 2 1.64-.06 1.847 1.605-2.955.668-2.897-2.35-5.687-3.994-.547 2.567-6.38-.936-4.814-1.709-.885-1.152-1.685 1.014-1.124 1.5-1.338.754.087-1.302-1.357-1.944-.463.343.038.856.192 1.31-4.039-.745-6.14-4.363-10.159-5.219.517.282 1.034.573 1.653.297.44 1.384-3.158.342-2.332-1.268-1.367-1.102-3.345 1.188-4.475-1.227-1.144 1.406 1.487.786 1.696 2.43-3.272.413-2.87-4.88-6.321-2.83 3.184-2.21-4.532-3.589-5.386-5.64-1.706 3.103 2.962 1.377 4.03 3.696-1.26 2.742-4.47-1.254-6.322-2.83.605 3.788 8.358 6.72 12.198 8.134 9.151 7.648 19.112 10.813 28.525 17.007-4.457 1.048-7.646-4.95-11.961-4.69-.684-1.732-1.84-.845-2.525-2.577-15.924-7.976-31.887-15.73-47.192-27.15-.377.042-.071 1.237.192 1.312-3.457-1.001-10.877-5.519-13.214-9.592-.464.343.036.856.19 1.309-4.82-2.638-11.746-5.649-15.016-9.062-1.43-1.03-.809 1.608-2.29.867-2.6-2.782-10.82-6.4-5.811-10.396 2.28.762 4.273 3.136 6.51 4.14.836-1.498.727-2.085 2.587-2.515 1.578 1.517 3.428 1.504 5.006 3.023-1.16-3.871-6.749-3.582-9.374-7.205 3.206.938.553-1.864 2.735-3.341 9.462 5.138 15.905 11.837 24.496 13.31-1.672-1.78-3.453-2.947-5.344-3.506-.587-.955 1.377-1.455.445-2.473zm97.43 51.94c-.205-.752-.074-1.444.79-2.005-.686-1.765-2.004-.006-2.69-1.771-1.245 1.346 1.2.722 1.366 1.963-3.636-2.928-6.33-3.083-8.902-5.46-.354.083-.107 1.191.19 1.32-4.066-1.776-12.327-6.615-18.253-8.422 4.384 2.701 8.951 4.389 13.258 7.528-4.744-2.43-11.48-3.368-14.284-9-5.658-2.599-13.604-8.214-20.944-10.196 1.273.56 1.608-1.3.149-.832-.28-.864.466-.249.982-.682-.654-1.679-4.32-2.733-4.74-4.714 2.008.06 6.043 1.347 6.213 3.69.943.328 1.993.07 2.989.105 17.92 11.079 36.225 20.03 54.807 27.43 1.283 1.625 2.309 1.825 1.9 3.775-5.965-.604-6.594-2.95-12.83-2.729zm-37.251 16.075c1.434 5.378 11.21 4.816 13.879 9.25-1.888.292-3.382-1.54-5.108-2.119-.448.606-.564 1.269.041 2.06-1.876-.526-3.794-.832-5.443-2.59 1.735-.997 2.765 1.82 4.434 1.182.167-1.81-5.391-4.26-5.928-2.264-1.75-2.838-6.76-1.418-9.732-4.569 1.084-.528 1.857.63 2.941.102-3.919-2.446-7.944-4.322-11.897-6.59-1.132 1.356 1.372 1.317 1.682 2.347-1.37 1.441-5.965-3.687-3.468-1.836 1.225-1.286-1.183-.69-1.346-1.876 7.275-.057 12.838 3.622 18.31 8.526.162-.629.685-1.196 1.493-1.71-4.535-2.806-9.175-5.36-12.894-6.673-.596-.21-1.457-2.266-2.512-.44-.237-2.791-2.955-1.233-2.253-4.181-1.534.946-.978-.955-3.046-2.218-.744 3.212-1.934.972-3.99.567 1.458 2.11 1.863 4.016 4.42 4.14.26 1.032-.92 1.07-1.33.188-.93.54-.621 1.295-1.632 1.82-.753-.765-.238-1.304.15-.815 1.077-1.61-1.716-1.293-2.06-2.887-.287.511-.58 1.021-.3 1.63-3.854-1.42-7.583-7.517-12.981-6.9-1.089-1.91-2.269-3.33-3.884-2.362-.298-.61.303-.602.493-.334-3.055-4.724-14.286-7.156-18.434-12.485-.722-.766-1.632-.52-2.66.377-4.217-3.679-8.609-6.416-13.325-7.381-.252-.886-.136-1.707-.388-2.594.403-.063 2.754-.09 1.975-1.339 16.789 6.572 31.368 20.335 46.756 27.54.05-2.549-5.994-2.46-5.942-5.25-.93.542-.621 1.296-1.63 1.821-1.166-2.854-2.594-5.753-5.109-5.1-3.429-6.21-7.175-6.502-11.052-10.354 3.152.081 5.957 2.053 8.756 4.056-1.999-3.245 2.123-.166 4.183.731-.303-2.725 3.692.419 5.215 2.175-4.172-1.823-.133-.282-3.154.713 1.107 1.808 2.74.755 3.884 2.361.103-.683 1.147-1.203.794-1.966-.744-.724-1.268 1.789-2.51-.438.65-.003 1.295-.018.986-.67 1.393-.532 2.395 1.073 3.54 1.88-.464.182-.836-.147-1.33.19.954.29 1.75 1.445 2.704 1.736.582-.708-.634-.483-1.03-1.442.95-.474 1.716.064 2.36 1.254-1.509 1.938-2.194-.591-3.497.23 3.677 1.918 7.138 5.021 10.965 6.127-1.46-2.106-2.07-3.938-6.78-5.394.226-2.583 2.992.79 4.033 1.545.703-.258.71-2.543-.536-1.777 2.23.296 7.11 4.507 11.159 7.424.522-.47-.21-1.16-.537-1.778 3.9 2.273 7.944 3.77 11.5 7.904-.699.677-1.173.122-1.822.525 1.103 1.318 6.469.933 5.171.062 1.424 2.158 4.979 2.588 6.737 3.281 2.62 1.036 4.827 3.425 6.93 4.58 5.534 3.034 11.347 4.019 17.511 8.114.584-1.08-2.01-4.547-3.24-3.515.842-2.477-1.625-3.302-3.777-5.29 2.594-.02 4.85 1.805 7.08 3.765-.464.178-.836-.15-1.33.187 1.854 2.439 4.411 1.06 6.094 4.432-.893.405-.526 1.032-1.137 1.486 6.281 4.986 13.53 4.702 20.021 8.551-2.155 7.192-13.358 2.272-16.2-1.147-1.416 1.826-4.221-1.734-6.695-1.171-.65 2.37-3.849 1.795-2.082 4.266-4.22-1.314-8.28-3.495-12.444-5.122 1.297-.003 2.496.524 3.84.251-1.902-6.517-11.12-5.945-15.427-12.38-1.444-1.13.058 1.618-1.631 1.82a207.503 207.503 0 0 0-6.534-4.239zm-34.733-55.9c1.232 1 2.781.265 3.965 1.52-5.863 1.875-9.793-6.753-15.372-6.408-3.698-4.675-8.325-5.417-10.334-8.421 1.756-1.094 2.894 1.182 4.301 1.992.782-1.464-2.209-1.615-2.847-2.98 2.439-.183 4.33 2.608 6.621 3.224-.641-2.613-6.168-3.254-6.706-7.373 6.233 3.036 11.455 11.551 18.116 12.262.375.343.128.575-.148.8-4.559-.223 4.808 3.432 2.404 5.384zM567.3 287.329c2.696 4.351 9.079 8.15 13.627 10.1-1.452-.643-.019-2.704-1.364-1.947-.662-.144-7.944-6.635-12.263-8.153zm28.977-1.233c3.046 1.595 12.19 5.59 12.603 8.641 4.523-.34 12.483 5.271 16.271 9.722.214-.532.44-1.06 1.13-1.506 6.893 3.49 16.934 10.227 23.84 15.334 1.11-1.853-1.853-.487-2.196-2.098 5.653-.408 9.714 8.01 15.546 6.609-3.845 4.898-10.728-4.818-14.437-.868-.61-2.124-4.89-4.016-3.518-1.906-5.702-6.38-13.976-10.102-21.985-13.723-1.704 3.44 3.301 1.445 4.394 4.193-2.171.938.337 1.83-1.087 3.645 2.982.91 5.448 4.678 8.998 2.455-.886 2.634 1.983 2.156 3.56 4.044 1.074-2.37 5.52-.34 5.673 1.864-9.019-.762-17.133-6.52-25.418-11.35 2.163.7 4.286 1.613 6.353 2.837-.22-2.033-4.406-2.452-6.054-4.49-1.1.515-1.466 1.162-.79 1.992-5.04-1.404-10.022-3.13-14.863-5.632 3.392 3.42 10.188 8.537 15.29 10.399 1.182 4.04-2.265 7.989-6.331 6.544-.941 1.626 2.177.344 2.687 1.759-1.574-.267-1.27.798-2.453 1.695-1.238-1.066-2.51-1.946-3.86-2.393 1.676-2.065-2.846-2.586-.086-4.279-1.841-.42-4.186-2.855-3.412-4.87-2.008.494.73 1.832-1.28 2.327-14.102-9.646-29.227-13.147-41.773-25.349 1.402-1.456.021-3.408 2.557-4.66-4.53-5.493-7.673-6.097-12.793-9.954-.468.344.036.86.19 1.313-2.757-3.5-13.8-5.53-9.17-11.013 14.057 4.549 28.508 19.595 41.242 23.549 1.537 1.241 7.602 5.341 8.552 4.934 1.65-.055 1.581.673 2.196 2.099 1.045.909.35-1.122 1.812-.532l2.048 2.923c7.784 1.251 14.89 6.268 22.688 7.454 1.311-1.888-1.46-2.256-1.407-4.089-.828-.241-1.076.79-2.645.383.146-.686-.643-1.536-.043-2.14-.826-.242-1.075.789-2.644.383-6.701-7.46-13.26-12.124-22.816-13.873-.895-1.232-.052-.847.637-1.165-12.995-7.374-25.953-14.345-39.577-23.254-1.553.576-.242 1.663-.447 2.479-2.985-1.691-6.049-2.942-8.743-6.248-1.96.734-3.607-.851-5.716-4.003 1.791-.818 2.049-1.91 3.092-2.86 6.095 2.774 12.794 8.744 18.126 11.33 10.513 5.098 24.549 15.314 36.06 21.348zm-39.454 17.238c-1.557.284 5.275-.702 1.978-1.357 3.877.77 11.33 7.809 17.775 11.684 3.063 1.84 6.685 4.403 9.995 6.89-7.245-6.828 1.712-.716 6.21 1.525-3.108-4.347-10.436-6.034-14.917-10.749 4.183.56 8.524 2.76 12.81 5.68 6.864 4.68 15.098 9.905 20.032 15.924-4.303.675-7.674-3.78-11.626-5.045-1.255 1.338 1.206.718 1.375 1.95-3.137-1.116-4.23-5.244-7.587-3.476-1.206-1.826-3.578-2.894-6.792-5.47.328 2.782-6.742-.708-6.75-3.329-1.364 1.007-4.754-.608-6.899-2.502-.599 1.926 2.874 1.483 3.74 3.223-6.748-4.116-13.78-8.925-19.344-14.948zm75.353-1.34c-.914 2.763 3.013.203 4.117.271l1.472 2.093c-2.645.981-4.836-.57-7.175-1.273.27-1.682.677-1.08-.943-2.457 1.239.144 4.77.694 4.323 1.683-.765.81-1.285.279-1.794-.318z" fill="#F1F2F8"/><path fill="#B1EFFE" d="M383 521h284v51l-284 51z"/><path d="M502.765 536.405c-.755-.296-1.012-.77-2.188-.248-.23-.323.108-.38.242-.243.436-.75-1.104-1.178-1.462-.978.208-1.597-.342-2.951.95-4.38 1.025.91 2.04.052 2.425-.968.858 1.824-.23 5.288 1.728 5.605a.681.681 0 0 1-.123.084c.358.162.712.485 1.063.92-.925.252-1.853.692-2.75-.328.157-.194.314-.346.47-.458-.45.021-.729.163-.355.994zm-27.348 21.602c.654 1.28 1.294-.301 1.948.978-.8.318-1.607-.765-2.405-.067.206.282.617.37 1.054.262.225.315-.106.372-.238.239-.06.873 1.597 1.745 1.194 2.618-.952.217-1.905-.362-2.857.003-.098.989.662 1.461-.473 2.859-.282-.688-1.689-1.27-1.192-.237-.99.707-.022-2.1.714-.716.429-1.14-1.077-.266-1.43-.474-.417.397-.438.795-.236 1.192-2.527 0-.93-.833-2.622-1.665.67-.63.081-.877.952-.954-1.611-.173-.735-1.939-1.433-2.856 1.234-1.283 1.741-.236 1.426-1.908.598-.25.468.398.715.714-.094-1.32 1.533-1.162.474-2.382.476.032.951-.806 1.429-.001-.317.451-.635.185-.952.477.557.91 1.11-.198 1.668.712-1.076.44-.393 1.323.241 2.144.477.36.953.132 1.428-.478 0 .053.005.103.014.15.173-.203.42-.407.58-.61zm11.399-4.111c-1.036.486-.568.712-1.454.97-.21-.63.618-1.257-.394-1.89l.074.068c-.496.425-.26.813-.804 1.241-.802-1.356-.971 1.482-.284.734.236.45-.426.235-.78.76-.188-1.523-.517.473-.992.052-.614-.572-.094-.466.284-.735-1.118-.497-.312-.539-1.487.077.042-.981-.576-.352-1.227-.177.897-1.276-1.445-1.852-.61-2.61-.408-.066-.841.347-1.227-.176.38-.436 1.07-3.26.902-3.167.192-.793 1.65-.455 1.09-1.977 1.05.184.61 1.197 1.721.152 0 .563.258.688.732.202l1.65 1.596c-.73 1.142-.486 2.634-1.447 4.155 1.088.096.695-1.099 1.796-1.293.008.347.193.685.523 1.016.708-1.085 1.934.262 1.934 1.002zm-9.818 8.777c.5.409-1.2 2.344-1.622 1.081.356-.517.725-.204 1.084-.537-.555-.55-1.087.387-1.649-.573.72-.55 1.462.256 2.187.03zm33.043 9.044c1.18.144-.25 1.924-.238 2.683-.654-1.197.325-2.254.238-2.683zm-4.193 18.522c1.248-.605.519 1.11 1.49 1.381-1.579.51-.836-.559-1.49-1.38zm-55.513-11.712c.84-1.427 1.599.792 2.416.42-.012.976-2.33 1.103-2.416-.42zm2.988-3.424c1.15 2.812 1.507 1.437 1.37 3.796-.41.24-.81-.025-1.22.269.396.41.8.423 1.21.21-.33 1.27-1.286 2.189-2.493 2.932l-1.187-1.167c-.723.576.725 1.099-.28 1.682-2.89-2.775-2.215-2.691-2.546-5.44.582-1.426 2.8-.334 1.252-1.707 1.593.004 2.47.47 3.894-.575zm27.12-23.983c.402.539.107 1.114.162 1.671.348-.358.682-.449 1.016-.532-.09-.309-1.33-1.914-1.179-1.14zm-14.185 21.959c-.644.826-1.297-.29-1.946-.492-.213.642.068 1.57-.967.972.089.944-.416 1.267.737 1.706-2.054-.153-2.163-.976-3.894-1.471-.577-.488-.58-.975-.008-1.46-.813 1.058-1.743-.113-1.95-1.466 1.28-1.637 3.614-2.009 4.124-1.208.23-.486.247-.973.478-1.46-.388-.219-1.19 1.791-2.185.239.963.319 1.547-.328.237-1.217.563-.93 1.136.545 1.697-.726.456.813 1.243 1.626.984 2.437.687.415.082-.675.97-.484.77.59.565 2.41 1.71 2.196.141.75-1.566 2.048.013 2.434zm26.827-28.906c-.026 1.089 2.49.36 1.953 1.953-.915.784-.303-1.52-1.218-.734-.153.579.432.299.735 1.219-.567.081-1.135-.183-1.7.24-.257-.613.405-.478.726-.73l-.489-.488c-.687-.415-.08.676-.97.485-.441-1.45-.759-.037-1.706-1.222.321-.461.647-.188.97-.484-.943-.325-1.267-.203-1.707-1.222 1.274-.737 1.127-2.608 1.682-3.648.565-.433 1.138.68 1.703.248-.172.93.051.967.978 1.463-.402.467-.808.214-1.21.728.49.823.972-.03 1.457.003.068.325.144.65.49.976-.404.026-.808.286-1.21.727.407.634.81.118 1.213-.24.372 1.022-1.262 1.282-1.697.726zm-26.774 39.62c-.019.641.822 1.57 1.462.978-.486-.222-.98-1.547-1.462-.978zm-3.88 1.45c.682-1.98 1.91-1.55 1.924-3.89.068.366.145.73.488.488.014.487.017.974.007 1.461.244.151.486 0 .73.245.432-.67.75-1.725 1.693-1.7.24 1.395.988 1.287 1.228 2.682-.885 1.29-1.78.384-2.67.723.976.81 1.946.286 2.917.007-.323.389-.082 1.203-1.205 2.189-.068-.325-.144-.65-.49-.975l-.484.485c-.41.686.674.087.49.975-.485.078-.97.33-1.452.97-.022-.703.246-1.3-.73-.244-.066-1.438-1.95-1.572-.745-3.168-.569-.371-1.13.749-1.702-.247zm20.308-20.4c.64-.506.375.93.735 1.219.36.202 1.896-.219 1.453-.97-.921-.446-.29 1.002-1.212.727-.091-.407.304-.81-.249-1.218.404-.233.811.047 1.214-.241-.087-.73.415-1.46-.74-2.193.406-.088.812.31 1.214-.24 2.064 2.585 1.848 1.352 3.418 3.417-.322.245-.649-.24-.973-.489-.363.943 1.273 1.272 1.709 1.709-1.478-.465-.963 2.28-2.418 2.429.429-.835.221-.49-.975-.49-.49.919.094.639.736 1.22-.67.286-1.724.018-1.705-.736-.19.406-.184.812.249 1.218-.483.48-.974-.357-1.456.483-.09-.365.303-1.044-.246-.73-.278-.222.549-1.542-.49-.976-.249-.462.236-.188.483-.485-.09-.1-.697-1.606-1.465-1.465-.726-.923 1.587-.292.237-1.217.621-.076.853-.329.48-.973zm3.184 5.12c.406.367.815 1.049 1.218.734.463-.493-.703.902-1.694 1.214-.36-.65-.551-1.3.476-1.947zm-11.163 2.894c.713.304 1.948.107 1.95.98.367-.22.127-1.543-.492-.976.96-1.824 1.048 1.781 2.677.737.257.613-.405.477-.726.729 1.063.193 1.777.567 1.223 1.707.406-.012.813.525 1.217.247 1.107.12-1.046.488-1.454.97.375 1.07-.75-.38.24-.73-.366-.256-1.042.405-.725.729-.602-1.647-2.314-.377-4.132-.254-.653-.651.233-1.298-.496-1.95.486.035.968-.82 1.459.005.563-.888-.754-.29-.977-.977.48-1.087.974.604 1.455-.483-.405-.029-.811-.29-1.219-.734zm.508 4.384c.321-.23.38.11.245.244.487.415.967-.672 1.455-.483.498.57-.085 1.137-.721 1.702-.23-.243.107-.486.24-.73-.326-.246-.647.238-.97.486-.235-.407.042-.812-.249-1.219zm33.386-29.133c-.375.435 1.317.764.252 1.705-.582-.57-.303-1.137-1.224-1.708-.465.405-.211.811-.723 1.216.49.89.974.29 1.463.978-.564.715-1.134.117-1.702-.248-.085-.65.1-1.299-.496-1.95-.228.244.111.488.247.732-.242.23-.487-.11-.73-.246-.066.325-.138.65-.482.973-.462-.326-.191-.65-.49-.975-.687-.57-.08.753-.968.971-.024 1.122-.237-.842.238-1.216-.569-.373-1.129 1.09-1.702-.248.16-.251.323-.134.486.001-.79-1.976 1.75-2.057-.017-3.41.404-.087.811.311 1.214-.24.481.489-.35.974.493 1.463 1.77-.198.647-3.863 2.899-3.4.637.488-.428.97.007 1.46.468.256.213-.407.725-.729 1.633.728.564 1.432 2.2 2.684-1.278-.32.311 1.603-.97.485-.566.374.759 1.466.975.489.205.325-.315.648.004.974-1.075-.404-.624.749-1.699.239zm-2.423 1.455c.366.569.964 1.139.252 1.705-.654-1.172-1.297-.093-1.95-.979.183-1.64.57 1.336 1.698-.726zm-36.196 50.552c-.504-.326-.272-.65-.005-.974-.163-.251-.324-.135-.486 0-.366-1.52 1.917.417.49.974zm-3.669-5.122c.42-.836-1.537-.603-1.223-1.708.32-.229.379.11.244.245.697.37.34-1.27.234-1.704.404-.233.81.047 1.214-.24.5.92-.088.638-.723 1.215 1.823.53 1.343.996 3.167 1.712-.074.89-.33.287-.967.972.97-.4 1.945.338 2.92.981-.323.067-.647.14-.97.485.406.09.809-.306 1.217.246-.888.076-.286.331-.968.972.492 1.09.97-.6 1.46.49-1.543.992-1.963 2.689-3.142 3.158-.885.16-.425-.955-1.46-.49.02-1.625-1.577-.328-.01-1.95-1.53.231-.56-1.161-2.44-1.953.404-.233.81.048 1.214-.24-1.146-.364-1.158-.738-1.948-.98.147-.81.633-1.62-.012-2.434.32-.23.38.11.244.244.65.206 1.302 1.135 1.95.979zm19.822-20.403c.232.245-.106.487-.239.73.875.442.868-1.099-.007-1.46-.733-1.125 1.705 1.077.969-.485.405-.089.812.31 1.214-.24.068.367.144.73.488.488.232.323-.107.38-.242.243.588.813-.308 1.622.012 2.435.203-.234 1.13-.042.97-.485 1.926.955 1.725 2.5 2.207 4.145-.729.083-1.457.167-2.181 1.212-.091-.406.304-.81-.25-1.218-.91.728.702 1.462-.717 2.19-.416-.745.427-2.435-1.22-1.22.753-1.347.705-.868.23-2.679-1.01.647.684 1.3-.477 1.947-.768-.976.238-1.947.471-2.92-1.499 1.51-1.702-1.428-1.228-2.683zm-9.165 13.612c.57.654 1.133.05 1.701.249-.36-.29.246-1.725-.734-1.22.572.891-.75.286-.967.971zm1.677-4.621c.325.11.65.223.972.002-.466 1.71.848.328 1.708 1.222-.46.323-.186.649-.482.973 2.19-.094 1.09 1.06 1.714 2.682-.219.277-1.542-.562-.97.485-.51-.361-2.188-.075-3.399.478-.152.579.432.298.735 1.22-.318-.377.32-2.338 1.21-1.215-.242.322-.485.378-.729.241.654 1.237-.461.957-.232 2.191.385.35-1.667-1.016-2.67.237-.365-1.056-1.037-2.113-.26-3.166-.325-.247-.647.237-.969.485-.07-.367-.145-.73-.489-.489-.35-1.316 1.69-3.873 3.143-3.157.294-.73-.028-1.461.718-2.19zm29.276-25.005c.435.035 1.133-.566.965-1.458.483-.68.978 1.246 1.457.003.07.367.145.73.49.488.256.469-.406.215-.726.73 1.274.467 1.134-.169 2.183-.726.575.99-.076 1.803 1.225 2.194-1.404-.107-.278 1.564-1.45 1.458 1.06.987.463.714-.24.73-.152.578.433.298.736 1.22-.919.015-.639-.256-1.212.727-.513-.75-2.239-.525-1.941.481-.804-1.094-1.077-2.58-2.688-3.172-.098-1.285.615-2.194-.987-2.924.585-.314 2.399-1.264 2.188.25zm-8.215 9.231c-.231-.323.107-.379.242-.243.775-.728-.078-1.46 1.204-2.188.923 1.66.146.805 1.707 1.222-.883.642-.413 1.482-1.451 1.457-.41.686.674.086.49.975.885-.484.283-.973.965-1.458.81.976-.652 1.946.5 2.923.087-.405-.31-.812.238-1.217 1.557.735-.818 1.46.74 2.194-1.602.19-1.524 2.955-1.203 2.675-.859.751-1.608-1.67-3.65-1.227-1.235-.827.847-2.903-.5-2.923-.035-.41.555-2.568 1.45-1.457.15-.243-.004-.487.24-.73-.324-.11-.65-.224-.972-.003zm20.804-18.452c.252-.405-.41-.812-.734-1.219 2.043.807 1.898 1.814 2.926 2.443.51.716-.924.46-1.215-.247-.014.984.257.713-.726.728-.02.376.45 2.34 1.222 1.221.572.891-.751.286-.967.972-.645-.57-.377-1.138-.738-1.707-.73-.243-1.454.689-2.188-.249.157 1.158 3.292.313 1.955 2.44-.23-.244.107-.486.24-.73-.795-.351-1.367 1.977-.234 1.704.442.734-1.101-.35-1.453.97-.245-.323-.488-.38-.73-.245.455-.292.967-.979 1.45-1.457-.408-.675-.81.116-1.216-.247-.228.243.111.487.247.731-.64.593-1.482-.335-1.463-.978 1.49.222-.579-1.26-.256-2.68.362-.403 1.04-.807.723-1.214.286-.37 1.725.756 1.214-.24.402.273.988.767 1.943.004zm-16.833 35.507c-.157-.569.083-1.137.72-1.703-.81-.029-1.622-.668-2.431-.493-.638.729.859 1.463-.233 2.19-.635-.613-.117-.477.24-.73-1.198-.404-1.41-.989-.982-1.95-.468-.255-.213.407-.725.729-.561-.457.14-2.786 1.207-1.701.593-1.038-.518-.575-.494-1.463-.076.487-.326.974-.964 1.459-.28-.487.551-.973-.494-1.462 1.915.227-.112-1.9 1.69-2.187.05.406-.069.811-.237 1.217 1.434-.09 1.42-.96 2.665-1.698-.103.974.056 1.948 1.472 2.926-1.147 1.266-1 3.37.742 2.68-.271 1.052-1.1.976-2.176 2.186zm-25.42 18.683c-1.582-.128.662-.773 1.207-1.701-1.317.463-.244-.65-.974-.49-.572-.78.748-.776.971.003-.167-1.36 1.198-1.858 2.182-1.212.157-.888-.954-.423-.493-1.462.749.212 1.743.533.725-.729 2.641 1.276 2.265 3.137 3.183 5.122-.485.213-.97.211-1.458-.004-.501.93.25 1.306-.24.73.675.726-.313.86-.245-.731-.352-.02-1.794.249-.733-.732-1.404.418-.96 1.165-1.206 1.7-1.118-.067-2.031 1.05-1.7.24-.375-.08-1.463-.336-.49-.975-.366-.195-1.045-.192-.728.241zm12.357-7.03c.933.601.97 1.025 1.463.978.065-.366 2.684-3.197.23-2.677 1.52 1.075-.409.752-.963 1.945-.243-.135-.488-.474-.73-.245zm-.515-5.844c-.573 2.133 2.534 1.89 4.386 2.446-.751.728.3 1.461-.718 2.19.406.194.81.19 1.214-.24.205.324-.316.647.005.973-1.794.774-1.255.665-2.419 2.428-.326-.504-.649-.27-.971-.002-.094-1.688-1.33-.427-2.437-1.467l1.209-1.214c-.648-.108-1.295.28-1.946-.492.628-.57.112-.712-.245-.245.499-1.266.963-2.682 2.42-1.941.362-1.152-1.27-.65-1.704-.735-.026-.673.43-1.726 1.206-1.701zm26.397-17.708c.134.136.473.08.241-.243-.403.397-.812-.54-1.215-.246-.311.85-1.653 2.14-1.202 2.675 1.001-1.374 1.496 1.136 2.91-.967-.324-.406-.987-.813-.734-1.219zm-2.671.237c.38-1.34 1.197-.564 2.178-1.7l-.489-.487c-.241.245-.485.091-.727.242.135.244.475.488.246.73-.326-.298-.648-.026-.974-.489-.701.567-.951 1.134-.234 1.704zm4.372.011c-.917-.436.683-2.07-.737-1.706.245.325-.117.649-.48.972.406.325.814.988 1.217.734zm-.746-3.654c.153 1.51 2.016 2.469.507 4.384.406.09.809-.306 1.217.247-.727.67-1.45 1.723-2.18 1.699-.564 1.332 1.228 1.403.499 2.436-.334-.904-1.582-1.772-2.442-2.441-.565.485.757.976.98 1.463-.572.485-.57.973.007 1.461-1.043.365-1.137-1.274-1.224-1.707-.366-.256-1.041.404-.725.728-.252-.17-1.28-1.505-1.218-.734-1.507.137-.523-1.77-.498-2.435-.58-.51-.293.928-1.209 1.214.61.028.478.289.733.732-.961-.092-1.546-.695-1.951-1.466 1.842-1.456 1.408-2.918 3.379-4.375-.486-.167-.971.066-1.455.484.32-1.335-.73-3.288 1.439-3.892-.012.406.525.813.249 1.218.488.57.968-.751 1.452-.97-.069.636.55 1.754.49.488 1.254-.14.46 1.362-.48 1.46 1.105.546.864-.098 1.707 1.222.013-.92-.256-.639.723-1.216zm6.542-3.635c-1.516.928 1.106 2.157.732.732-.44.314-.703-.367-.732-.732zm-.72 1.702c-.052-.406.07-.811.237-1.217-.469-.256-.213.408-.726.73l-1.221-1.222c.363-.503.727-.267.486.001.244.23.485-.107.728-.241-.273-.677-.757-.855.72-1.703-.732-.664-1.454.566-2.18 1.212-.505-.368-.273-.73-.002-.486-.121-.813-.499-1.625-.985-2.438 1.044-.447 1.092-1.35 1.69-2.187.406-.252 1.622 1.91 2.674.25.252.163.136.326.003.487.244.23.485-.108.727-.241.139 1.147-.889 1.154-.961 1.945.638.734 1.747-.344.49.975.406.195.81.19 1.214-.24.251.163.135.324.002.487l.488.488c-.941.082-1.265.167-1.695 1.213 1.296.125.374 1.803-.715 2.676-.326-.367-.651-.73-.975-.489zm-31.471 23.295c.504.325.272.65.005.974.325.246.647-.237.968-.486.206.326-.315.65.006.975-.743.311-2.102-.62-.98-1.463zm11.911 1.247c-.346-.495 1.157-.526-.007-1.46.567-.006 1.13-.583 1.694-1.214.597.651-.325 1.297-.962 1.946 1.492 1.221 2.217 2.44 1.233 3.655-.984-.01-.372-.586-.735-1.22-1.092.728.406 1.463-.232 2.191.65.207 1.297.397 1.941-.481.674.407-.114.81.25 1.218-.641.06-1.57-.835-.97.484-.389-.04-1.205-.756-2.193-1.224-.07.65-.869 1.297.01 1.949-.486.165-.972-.07-1.461-.491-.355.567-.081 1.136-.72 1.703-2.14-.541.183-2.838.473-2.434.407.257.809-.406 1.212-.727-.646.465-1.299-.653-1.946-.492-.37-.354 1.262-1.177 1.697-.726.434-1.026-1.104-1.03-1.458-.004-.29-.731-.03-1.461.718-2.19l1.221 1.22c.347-.836.434-.597 1.207-1.7-.324-.11-.65-.224-.972-.003zm11.617-9.223c.842.49.01.974.493 1.462-.992-.319-1.044.33-.723 1.216-1.502.088-.377-1.866.477-1.947-.815-.817-1.619.33-2.43-.005-.502.929.926-.199 1.218.733-1.373.378-.946.161-.48 1.459-.24.23-.485-.11-.729-.245-.424.405-.444.81-.237 1.217 1.017-.654 2.041.392 2.425-.968.192.731.783 1.463.254 2.192-.407-.366-.815-1.048-1.219-.734-.409.686.674.087.491.975.96-.065 1.543.136 1.939-.968l.733.732c-.694.832-1.846.52-2.42 1.942-1.104-.192-.87-.779-1.703-.248-.137-1.452-2.104-1.31-.988-3.412-.491-1.09-.969.6-1.46-.49 1.121-.808 1.345-1.62.473-2.434 1.52.244.601-1.031 1.696-1.213.854 1.004.65.88 2.19.736zm9.218-2.898c-.663-.75-2.162-.525-1.455.483.484-.232.97-.25 1.455-.483zm.728-.242c1.98-.88-.046 2.868 1.953 1.953-.188.79-.888.799-.962 1.945-.326-.366-.652-.73-.974-.489.134.436.514.762.251 1.705-.691.216-.775-1.606-.74-2.193-1.273-.512.207.93-.722 1.216-.245-.324-.489-.381-.73-.246-.052-.406.07-.811.237-1.217-.368-.247-.728.237-.484.486-.576.507-.302-.93-1.22-1.22.323-.067.647-.14.968-.485-.885.027-.425-1.088-1.46-.491-.02-.352.245-1.798-.732-.732.08-.73-.429-1.462.718-2.19-.325-.246-.647.237-.97.484-.427-.568.176-1.135-.25-1.703 1.414-.44 1.42 1.859 2.922 1.467-1.357-1.224-.154-1.624 1.45-1.457-1.283.433-.432.76-1.206 1.701.375.136 2.327-1.355 1.216.247.935.667 1.301-1.878.237-1.216.324-1.283 1.922 1.04 1.71 1.708-.406.026-.81.286-1.212.727zm5.53-11.917c.323.232.378-.108.241-.243.981-.504.374.931.735 1.22.683-.486.08-.974.965-1.46.923 1.061.64.464 1.213-.239.03.366.293 1.046.733.732.51.921-.924.637-1.21 1.215.648-.188 1.3.505 1.943-.482-.405 1.67.23 2.82.014 2.922.445 1.274-1.1-.123-1.456.483-.057-.65.553-1.297.477-1.946-.894-.695-1.78.525-2.669.723-.84-.733-.606-1.463-1.712-2.196.465-.405.211-.811.724-1.216.251.164.135.326.001.487zm-29.24 32.31c-.026-.436.433-.76 1.206-1.702.488.483.97-.352 1.46.49.047-.404-.078-.811-.249-1.217.366-.066.727-.139.484-.485.942-.292-.294 1.437.495 1.948l-1.208 1.215c-.146-.633-.755-1.213.236-1.217-.489-.637-.97.43-1.457-.004.435.639.228.848-.967.972zm34.396-21.34c.985.582.712.3.734 1.22.49.57.969-.752 1.453-.97-2.176-.659.962-3.183-.265-4.628.645-.487 1.292-.71 1.939-.968-.175.354.057 2.084.976.976-.163-.252-.324-.136-.485-.001 1.15-1.141.205 1.398-1.45 1.944.327.367.653.732.975.49.293-.467-.641-.218-.246-.732.75-.907 1.015 1.244 2.188.25-.425.44-.402 1.49.493 1.462.792 1.275-1.516-.206-.725.728-.837.568-.01-.753-.491-.975-.013.744-.71 2.74.256 2.679.163 1.266-.767.148-.974-.49-.201.649-.386 1.298.495 1.95-1.213 1.5-1.19 1.322-3.392 1.938-1.396.199 1.218-.22.481-.972.493-.06.533.832 1.456-.483-1.38-.11-1.493-.035-1.95-1.466-.241 1.317-.508.673-.724 1.216-.323.203-.65-.321-.971-.003-.6-1.042.328-.572.964-1.459-1.522.508.102-1.082-.982-1.95l.967-.971c.257.406-.402.81-.722 1.216zm-10.375 14.827c-.761.14.576-1.359-.979-1.464.81-.028 1.613-1.383 2.425-.968.986-.39-2.191 1.457-1.446 2.432zm1.211-.728c.408.516.811.265 1.219.734.545-.795 2.787-1.95 1.209-1.214-.581-.642-.304-1.229-1.219-.734.168.487-.062.974-.479 1.46-.254-.36-.122-.878-.73-.246zm.95-4.38c.061.962.292 1.547.496 1.95.288.155 1.72-.428 1.212-.728.403-.255.81.409 1.217.733-1.614 1.132.667 2.274.018 3.409-1.143-1.358-1.518 1.45-3.395 1.452-.641-.57-1.23-1.14-.737-1.706-.428-.256-.447.407-.239.73-.991-.041-.285-2.525 1.202-2.675.149-.243-.004-.487.238-.73-1.385-1.277-1.652.485-2.676-.738.644-.875 1.296-.07 1.944.005.29-.585-1.44-1.063-1.946-.491 1.105-2.268 1.2-.447 2.666-1.211zm-.73-.245c-.205-.933.22-.967.965-1.459.653.57.393 1.137.251 1.705.22.167 1.54-.062.97-.484.682-.568.089.754.977.976 1.298.528-2.419-1.13-1.212.728-1.662.169-.049-2.87-1.95-1.466zm-31.736-30.76c1.1.065-.556-1.935.716-2.677.844.986.857 1.713 1.956 2.44-.14.568-.742 1.135.25 1.706-.942 2.746-2.56 2.04-2.414 2.915-1.588-.142-.423-1.94-2.195-1.71.971-.887-.112-.288-.49-.975 1.034-.647.564-1.297 1.447-1.945-.61-.029-.477-.288-.732-.731.242-.23.486.11.73.245.44-.567-1.007-1.14-.738-1.706 1.366-.684 1.119 1.64 1.47 2.438z" fill="#FFF"/></g></svg>