<svg width="1056" height="784" xmlns="http://www.w3.org/2000/svg"><g fill="none" fill-rule="evenodd"><path d="M830.476 410.623c2.237.513 8.97 4.638 10.57 6.793-1.363.504-1.595-1.368-2.674-1.463.481 2.12-2.524-.587-4.06-1.654a1.314 1.314 0 0 1-.074.426c1.512 2.28 5.854 2.153 5.985 4.805-6.884-2.122-13.28-11.249-17.809-11.475-1.415-.593-1.284-4.656-4.13-3.984.091-1.593-2.739-5-3.957-3.55 1.061.116 1.66 1.25 2.646 1.53-1.614 1.984-1.938-1.008-3.71-1.641 2.688-1.054-3.784-5.02-5.613-6.439.802-1.445 2.812 1.404 3.882 2.078.256-1.414-2.986-2.116-3.685-4.147-.32.337-.644.673-.544 1.197-2.862-.162-1.597-4.53-4.477-4.857-.616.37 1.19 2.206 1.93 2.292-1.354-.035-8.867-5.707-7.297-6.824-.89-1.127-.861-.248-1.954.213-3.175-3.361-6.935-5.445-10.117-8.79-.75.835 1.698 1.933.148 2.94.451.577.501-.379 1.336-.486.96 1.375-.101 2.144 1.038 2.615.91-.61-.81-.483-.073-1.47 1.723-.275 1.437 1.818 1.038 2.616 10.382 9.548 21.675 19.131 32.895 28.938-5.742-3.166-13.082-9.89-19.194-14.965-.822.116-.704.646-.544 1.197-.965.214-1.064-1.472-2.029-1.257.019-.896.785-.359 1.337-.487-.668-1.525-2.815.197-3.81-.608-.447-1.619-2.494-3.178-2.548-2.565-.906.179-1.133-3.11.2-2.07-.773-1.615-1.837-2.009-2.92-.932-4.582-5.169-9.638-9.296-14.32-14.246-.429.17-.135.66-.1 1.035-7.982-9.024-17.236-15.724-23.593-27.337 1.54 1.146 1.802.827 1.608-1.086 3.133 4.745 10.818 9.626 13.33 15.605 4.269 2.323 7.483 6.96 11.254 10.373.957-2.797-4.135-5.302-5.96-7.31-1.12-1.455 1.397-1.3.471-2.67 2.748.288 5.94 1.41 7.841 5.629 2.147-.68 4.419 3.607 7.569 6.225 1.867 1.551 2.28 1.75 3.783 3.113 2.46 2.23 8.866 5.375 10.116 8.79 6.061 3.01 10.08 10.506 16.102 13.597.485 1.451 1.88 1.717-.025 2.505.722-1.993-2.352-.88-2.993-2.403 2.194 2.456 6.316 7.603 10.314 6.722-.12.488-.228.976.346.872.459.683-.02.95-.543 1.196 1.067 2.124 1.98.341 3.09 1.369a2.2 2.2 0 0 0-.076.045zm1.157 1.243c-1.957 1.461 2.694 3.014 1.31 2.22.201-.544.606-.635 1.025-.449-.733-.693-1.443-1.44-2.335-1.77zm2.553 1.153c.157.322.278.704.337 1.115.164-.164.377-.302.533-.472-.317-.144-.602-.371-.87-.643zm-70.422-24.595c-2.005-3.882-5.181-5.34-6.116-7.93 1.578-.508 2.023 1.479 2.961 2.38.891-.985-1.406-1.682-1.639-2.864 1.933.33 2.865 2.863 4.529 3.785.006-2.152-4.17-3.72-3.792-7.021 4.262 3.565 6.678 11.184 11.723 13.027.226.34-.01.471-.27.593-3.503-1.058 3.078 3.594.83 4.642.765 1.015 2.112.746 2.79 1.949-4.759.307-6.216-6.648-10.287-7.85 7.438 7.3 15.068 15.62 22.221 22.3 2.805 2.618 6.636 5.132 7.99 6.154 1.462.468-.687 2.145 1.196 3.113 1.344-.974-.096-.911-.406-2.394 2.07 1.131 6.09 4.047 5.412 6.107-1.046-1.52-3.005-1.017-3.77-3.16-.824.244-.734.899-1.616 1.117-3.683-5.683-10.161-6.643-12.444-11.091-.21 3.287-5.563-5.574-3.666-4.22-3.896-1.687-5.195-4.13-7.097-6.49-.594.225-1.19.449-1.786.673 1.508 1.694 2.353 2.479 4.007 5.11-3.754-2.974-9.21-6.393-10.932-11.154l-1.786.674c4.043 5.559 9.738 8.085 13.98 15.096-.537-3.636 8.077 6.398 10.354 8.316.496-.27.065-.953-.066-1.504 6.884 6.488 11.352 12.145 19.197 16.695-.17 3.04 3.55 2.58 4.626 5.385-4.556-2.229-8.745-5.497-11.249-7.98-1.364 1.315 1.294.272 1.132 1.61-2.44-.054-1.808-2.395-3.668-4.22-.926 1.894-4.803-1.971-3.43-2.269-.467-1.07-1.513.462-1.17.95-1.191.326.322-.998-.682-1.78-.429.178-.136.675-.105 1.059-3.01-1.368-3.95-4.596-6.924-6.045.35.32.697.647 1.234.552.076 1.165-2.534-.348-1.576-1.442-.854-1.125-2.844.274-3.258-1.827-1.167.872 1.009.901.853 2.224-2.637-.317-1.294-4.362-4.39-3.438 2.918-1.1-2.843-3.678-3.112-5.444-1.936 2.086 2.047 1.65 2.43 3.665-1.516 1.892-3.249-1.847-4.39-3.436-.262 3.07 5.227 6.864 7.952 8.714 5.665 7.742 12.833 12.149 18.985 18.809-3.686-.052-5.013-5.347-8.435-5.985-.198-1.482-1.274-1.017-1.473-2.5-10.893-9.316-21.86-18.468-31.6-30.348-.303-.04-.296.95-.105 1.06-2.507-1.454-7.427-6.42-8.462-10.049-.43.177-.138.675-.105 1.058-3.254-2.995-8.082-6.69-9.973-9.987-.918-1.08-.945 1.095-1.958.23-1.492-2.675-7.212-7.095-2.522-9.233 1.635 1.038 2.73 3.276 4.283 4.495.944-1.005.973-1.484 2.51-1.457.938 1.49 2.387 1.84 3.324 3.33-.154-3.241-4.577-4.105-5.925-7.44 2.324 1.357.795-1.344 2.787-2.07 6.395 5.847 10.128 12.322 16.555 15.144-.96-1.712-2.126-2.97-3.495-3.773-.273-.859 1.359-.866.828-1.84 1.375-.05-.09 1.626 1.025 2.668.553-.366-.056-1.253-.236-1.946 2.68 2.253 5.427 4.8 8.202 7.503zm46.553 57.384c3.634 2.118 8.447 5.765 9.908 9.863-1.48.14-.988 1.126-2.469 1.267-2.873-3.04-8.419-7.07-7.44-11.13zm3.436-61.07c1.137-.226-1.029-1.923.824-1.828 5.043 6.366 12.307 7.81 17.846 13.08.69 2.502-2.53 3.26-3.71 4.93-3.18-.084-4.252-4.83-7.757-4.193-.508-1.19.398-1.167-.686-1.769-12.602-6.883-23.494-17.556-34.696-27.544 2.412-.68 3.143 2.357 5.115 2.648-2.985-2.794-4.815-4.826-7.206-5.408-1.17.876 1.291.273 1.131 1.6-1.358-.006-2.002-1.592-3.26-1.82.075-1.877 1.064.78 1.957-.222.359-1.387-2.488-2.68-3.5-3.757-1.687 1.362.853.812 1.028 2.653-2.244-3.428-5.652-6.801-6.243-10.83.873-.563 1.096.314 1.407.994 2.347-1.845 2.287-2.583 4.946-4.379 7.68 7.102 16.898 10.797 23.611 20.04 1.438-.744-1.853-1.272.378-1.66 2.723 5.902 8.603 7.849 12.97 12.368-.393-2.43-3.934-4.974-6.314-5.742-.075-.522.772-.631.55-1.217-2.127.487-.905-2.183-3.534-1.211-.171-1.632.848-.76 1.784-.667-.583-1.276-2.262-2.29-1.817-3.372 1.826.808 1.68 1.095 2.711 3.038 3.248 1.298 5.901 3.917 8.614 6.402 2.857-.686 6.236 1.31 6.797 3.031 3.612.323 11.712 8.136 3.392 11.389-10.748-5.512-20.589-13.035-29.617-22.353.977-.52.992 1.093 1.854.827-7.2-3-15.727-8.584-22.068-16.06-.789.757 1.531 1.463 1.646 2.93-.861.265-.877-1.348-1.852-.828 2.505 2.785 7.202 6.553 7.446 7.346 8.05 5.763 17.609 15.858 26.253 21.583zM794.7 407.104c1.003-1.976-2.62-4.625-3.57-2.043 1.703-1.114.924 3.31 3.57 2.043zm-28.136-29.993c1.537.654 5.466 2.465 5.338 7.185 1.665.004-.213-1.572 1.45-1.566.836 1.455.965 4.48 2.618 4.121-.991-2.313 4.052 1.273 2.272 3.231 1.012-.163 1.07-.752 1.623-1.12-.417-1.844-2.628-2.197-1.994-3.845 2.198 1.254 2.592 2.475 3.856 4.678-.544-.17-.991-.555-1.413-1.001 3.251 7.35 13.517 12.118 19.26 19.312.695-1.273.543-.076 1.52-.058.137 1.1-.909-.279-1.175.95 7.651 5.603 16.652 11.806 22.297 19.194-1.833.452-4.35-1.892-5.07-1.158-4.174-4.059-9.864-9.277-15.06-13.745-.425-.365-1.125-.312-1.69-.385 1.032-1.214.07-1.283-.582-2.846-2.179 1.112-7.075-2.744-9.654-5.051-.052-.724.412-.103.897-.337-2.596-3.737-5.763-3.466-7.372-8.463-.958.187-1.37.619-1.002 1.397-1.156-.281-.152-1.701-1.48-2.505-.432.175-.139.675-.106 1.06-1.188-2.261-3.89-6.27-7.133-6.512 1.016-1.176-.065-.983-.582-2.843-.827.121-.714.665-.554 1.228-6.01-5.314-12.379-13.448-15.642-16.588-2.078-6.1-10.177-7.916-11.917-14.923.73-.782 1.482-1.554 2.178-2.35 6.937 6.207 12.392 15.352 17.742 19.373 1.445.507-.202 2.738 1.375 3.567zm-4.426-11.875c.252.811.907.727 1.132 1.597 1.223-.786-.792-.784-.687-1.762 4.679.398 6.464 6.193 11.251 7.92.335.877-.997 1.012-.205 2.094.45.58.503-.387 1.338-.497 2.222 3.507 5.606 6.627 8.028 10.126.267-.365.544-.728 1.165-.937.692 3.115 3.278 2.042 3.74 5.67.546-.121.754-.392.72-.772 3.16 6.995 13.53 11.393 18.73 19.26.793.434 1.96.035 2.742.494 1.76 5.17 5.369 5.939 6.794 9.576.953-.182 1.36-.608.994-1.377 2.82 1.809 3.605 3.808 5.865 5.888-2.506-.196-3.71-3.273-5.796-4.4-.198.512.929 1.886-1.096 2.423-.155-.433.412-.545.72-.772-.386-1.331-1.536-.98-1.922-2.313-.442.29.04.99-.548 1.214.487.29 1.07.365 1.68.384-3.443-.154-10.315-8.086-14.475-12.27-1.259-.77-2.658-1.228-3.327-3.302 1.289.158 1.81 2.01 2.984 2.422.375-1.152-2.61-1.85-2.778-4.513-.29.6-.564 1.205-.824 1.816-.862-.553-1.956-.593-2.367-2.145.976-.515.992 1.089 1.852.826-.485-1.386-1.891-.737-2.092-2.753-1.33 3.006-9.881-6.781-8.577-8.915-.233-1.12-1.934 1-1.85-.825.393-.05.615.277 1.062.11-.25-.811-.908-.727-1.132-1.597-1.544 2.091 2.412 3.946 2.059 5.286-4.539-1.99-6.23-10.277-11.389-10.895.37-1.955-4.752-6.352-5.866-5.888-3.158-4.797-9.163-7.815-8.783-13.376 1.451-1.029 1.91 2.11.858 2.203zm10.055 46.178c-4.912-.18-11.514-8.376-9.971-10.315-1.39.823-1.844-.373-2.79-.511-1.801-3.679-8.285-7.88-12.76-10.825 5.086 3.794 9.119 10.295 13.298 12.114 1.61 4.736 9.084 8.087 10.868 12.462 1.034-1.474.39-1.85 1.355-2.925zm48.143 29.077c-.015-.624.222-1.136 1.003-1.403-.193-1.504-1.56-.394-1.753-1.898-1.23.803.795.794.684 1.79-2.266-2.98-4.336-3.623-5.88-5.968-.291-.004-.313.904-.107 1.062-2.824-2.17-8.324-7.53-12.592-10.084 2.893 2.949 6.125 5.146 8.873 8.42-3.225-2.809-8.293-4.845-9.387-9.762-3.906-3.116-9.01-9.019-14.346-11.983.883.682 1.504-.697.276-.617-.05-.725.412-.103.898-.338-.185-1.43-2.837-2.962-2.781-4.58 1.553.436 4.448 2.22 4.127 4.07.671.438 1.54.442 2.308.663 11.82 12.08 24.35 22.586 37.396 31.94.685 1.51 1.446 1.864.75 3.299-4.531-1.628-4.567-3.571-9.47-4.61zm-31.582 5.409c.096 4.395 7.852 5.872 9.094 9.787-1.533-.146-2.352-1.84-3.592-2.62-.466.377-.683.862-.36 1.585-1.368-.768-2.81-1.377-3.765-3.044 1.547-.424 1.816 1.933 3.244 1.77.475-1.353-3.406-4.311-4.207-2.889-.827-2.513-5.017-2.404-6.742-5.395.95-.192 1.333.844 2.282.652-2.6-2.636-5.391-4.857-8.05-7.363-1.145.816.821 1.275.867 2.124-1.347.835-3.963-3.986-2.363-2.082 1.204-.745-.793-.758-.694-1.699 5.702 1.376 9.352 5.276 12.698 10.096.246-.449.764-.78 1.494-1.017-3.013-3.032-6.155-5.89-8.815-7.621-.426-.277-.707-2.018-1.881-.827.347-2.183-2.076-1.52-.965-3.64-1.381.426-.583-.921-1.96-2.29-1.194 2.312-1.698.366-3.23-.346.739 1.9.692 3.437 2.668 4.03.008.842-.924.64-1.076-.114-.83.232-.733.87-1.624 1.075-.443-.733.062-1.045.273-.595 1.15-1.023-1.096-1.325-1.06-2.612-.323.336-.65.669-.546 1.19-2.745-1.84-4.5-7.232-8.84-7.813-.487-1.674-1.14-2.991-2.589-2.565-.116-.525.353-.402.45-.16-1.489-4.211-9.811-8.263-12.04-13.15-.418-.727-1.177-.716-2.153-.23-2.597-3.638-5.51-6.59-9.017-8.249-.028-.726.22-1.332.192-2.06.327.03 2.172.468 1.8-.64 11.881 8.305 20.662 21.68 31.326 30.197.525-1.941-4.22-3.052-3.647-5.176-.83.232-.733.87-1.623 1.075-.367-2.412-.932-4.909-3.023-4.9-1.498-5.421-4.373-6.376-6.672-10.08 2.45.677 4.27 2.734 6.076 4.812-.944-2.873 1.693.287 3.134 1.376.283-2.144 2.809 1.04 3.665 2.681-2.916-2.208-.05-.24-2.604-.07.521 1.6 2 1.114 2.589 2.566.21-.503 1.127-.697.996-1.35-.444-.7-1.334 1.121-1.881-.825.51.125 1.018.239.9-.32 1.191-.136 1.669 1.288 2.411 2.13-.398.048-.626-.277-1.077-.115.69.408 1.093 1.447 1.784 1.856.59-.428-.403-.493-.53-1.305.833-.177 1.33.384 1.607 1.42-1.55 1.19-1.604-.88-2.78-.506 2.51 2.185 4.627 5.235 7.41 6.828-.74-1.896-.868-3.418-4.276-5.45.67-1.933 2.19 1.187 2.86 1.969.6-.06 1.041-1.808-.08-1.465 1.689.662 4.704 4.836 7.314 7.858.498-.257.057-.929-.08-1.465 2.617 2.5 5.496 4.435 7.49 8.292-.677.382-.943-.136-1.527.046.612 1.224 4.883 1.976 4.034 1.056.702 1.93 3.401 2.952 4.645 3.826 1.852 1.303 3.123 3.562 4.548 4.857 3.75 3.4 8.11 5.288 12.152 9.624.662-.712-.705-3.871-1.865-3.321 1.132-1.732-.64-2.844-1.945-4.786 2.033.492 3.45 2.328 4.821 4.263-.397.046-.626-.278-1.076-.117.985 2.228 3.248 1.673 3.922 4.58-.776.137-.609.688-1.174.917 3.963 5.04 9.69 6.237 14.033 10.449-3.059 5.083-10.885-.867-12.455-4.038-1.457 1.12-2.972-2.15-5.015-2.203-.962 1.688-3.354.623-2.443 2.86-3.051-1.83-5.812-4.29-8.76-6.348 1.016.251 1.854.888 2.958.941-.245-5.358-7.566-6.718-9.708-12.483-.914-1.146-.264 1.25-1.624 1.075a167.775 167.775 0 0 0-4.303-4.52zm-40.573-12.987c1.278 3.87 5.55 8.037 8.738 10.423-1.013-.778.504-2.082-.695-1.763-.491-.24-4.95-6.65-8.043-8.66zm22.725 4.357c2.067 1.825 8.425 6.689 8.16 9.126 3.59.616 8.715 6.5 10.81 10.674.27-.369.547-.733 1.172-.944 4.7 4.036 11.23 11.194 15.63 16.482 1.222-1.216-1.351-.737-1.308-2.048 4.485.783 6.03 8.077 10.845 8.127-3.94 3.038-7.434-5.808-11.087-3.476-.066-1.76-3.039-4.053-2.374-2.157-3.217-6.037-8.95-10.521-14.495-14.875-1.991 2.326 2.294 1.758 2.617 4.093-1.873.303-.09 1.48-1.55 2.605 2.15 1.282 3.347 4.674 6.542 3.646-1.198 1.863 1.13 2.05 1.996 3.816 1.294-1.622 4.369.81 4.064 2.543-6.884-2.341-12.1-8.368-17.629-13.71 1.552.962 3.03 2.08 4.407 3.428.219-1.614-2.963-2.752-3.855-4.647-.957.184-1.367.613-.999 1.386-3.658-2.064-7.21-4.366-10.502-7.24 1.986 3.302 6.298 8.576 9.915 11.006.144 3.351-3.304 5.732-6.195 3.825-1.047 1.074 1.631.69 1.756 1.882-1.176-.512-1.144.37-2.239.833-.76-1.065-1.581-1.992-2.548-2.6 1.704-1.269-1.72-2.55.757-3.322-1.354-.682-2.712-3.02-1.72-4.426-1.662-.009.215 1.558-1.447 1.55-9.135-10.195-20.251-15.84-27.68-27.705 1.372-.853.672-2.63 2.89-3.104-2.472-5.125-4.807-6.202-8.055-10.178-.431.175-.137.671-.104 1.052-1.476-3.24-9.693-6.956-5.027-10.291 10.081 6.247 18.448 20.68 27.613 26.21.959 1.258 4.897 5.605 5.716 5.475 1.297.278 1.103.827 1.308 2.048.64.906.489-.799 1.515-.058l1.033 2.656c5.827 2.48 10.4 7.736 16.25 10.17 1.386-1.205-.703-2.028-.31-3.434-.598-.347-.99.401-2.135-.218.246-.502-.205-1.312.38-1.662-.598-.348-.991.4-2.136-.218-3.787-7.066-8.001-11.945-15.113-15.153-.46-1.126.122-.664.721-.777-8.71-8.222-17.468-16.127-26.372-25.659-1.322.144-.51 1.238-.827 1.829-2-1.887-4.148-3.45-5.612-6.527-1.668.186-2.647-1.359-3.684-4.204 1.554-.284 1.965-1.077 2.961-1.608 4.217 3.327 8.289 9.242 11.948 12.277 7.213 5.981 16.186 16.603 23.997 23.502zm-33.277 5.13c-1.256-.076 4.204.466 1.79-.68 2.838 1.347 7.213 8.284 11.426 12.553 2.002 2.027 4.295 4.727 6.362 7.308-4.254-6.732 1.46-.23 4.49 2.386-1.548-3.996-6.87-6.724-9.405-11.272 3.116 1.243 6.034 3.797 8.77 6.904 4.379 4.978 9.708 10.646 12.339 16.301-3.45-.299-5.18-4.43-7.98-6.18-1.228.806.79.794.68 1.79-2.2-1.476-2.24-4.913-5.172-4.176-.574-1.66-2.194-2.951-4.17-5.583-.29 2.239-5.06-1.85-4.555-3.9-1.248.525-3.546-1.39-4.83-3.283-.838 1.39 1.926 1.712 2.254 3.239-4.4-4.515-8.883-9.627-12-15.406zm58.441 14.477c-1.15 1.825 2.125.686 2.904.932l.68 1.769c-2.072.233-3.365-1.274-4.917-2.199.495-1.161.68-.656-.235-1.936.862.325 3.296 1.352 2.798 1.984-.694.446-.97-.03-1.23-.55z" fill="#F1F2F8"/><path fill="#B1EFFE" d="M372 509h284v26l-284 76z"/><path d="M435.191 562.246c.2-.15 1.492-.717.307-.967.053.418-.246.62-.706.72.398-.493-.687-1.164-.799-.493.721.034.326.806 1.198.74zm-35.682-3.484c.368 1.252-1.374 1.561.042 2.008-.103-.99 1.248-1.685-.042-2.008zm38.926-46.449c.84.145 1.223.714 1.723 1.174.858-.89-.94-1.178-1.082-2.08.121.587-.433.599-.64.906zm-39.374 3.835c-.274.815.838 1.715.962.737-.654-.474-.35-2.174-1.29-2.285.7 2.119-.603.483-1.59.463.571 2.416-.26 2.283.659 3.482.068-1.21.877-1.554 1.259-2.397zm2.9 31.759c.364 1.229.273 2.12-.305 2.971 1.465.36 1.348-2.921.305-2.971zm-2.319-30.066c.01.484-.657.348-.74.747 1.623.417 4.17 2.02 2.754 3.234 1.346-.31 1.956-1.294 2.213-2.6-1.399.644-.748-.064-1.542-.702-.92.505.716 1.09-.34 1.47-1-.418-.756-1.237-.441-2.185-1.784-.146-.448 1.507-1.904.036zm6.783 18.349c-.103-.794.433-.942.369-1.696-.98.576-1.676-1.187-1.992.057.622.457 1.002 1.181 1.623 1.639zm-.762-4.042c.582-.018.939.156 1.289.335.032-.856-.701-1.067-1.337-1.362-.026.97-.713 1.43-.739 2.401.637.175 1.092.5 1.73.675.154-1.08-1.339-.768-.943-2.049zm1.447-1.925l-.048-1.006c-1.198.061-2.923-.278-2.936.682 1.841-.388 1.395-.003 2.984.324zm.01 28.518c.844-.326-.217 1.88.626 1.556.796-.559-.078-2.928-.626-1.556zm-.1-35.541c-.037.69-1.418.246-1.658.765.379.548 1.088.788 2.135.72-.16.587-1.316.334-.79 1.5-2.667-.213-2.466-1.21-1.793-2.959l2.106-.026zm1.366 15.157c0 .6.327.888.806 1.033.808-.807.067-2.173-1.227-2.071-.105.215-.915 1.353.047 1.392.015-.213.043-.413.374-.354zm.595 23.972c.923-.392 1.875.663 1.898-.006-.501-.002-.372-.525-.787-.598-.324.996-.767-.332-1.155-.296l.044.9zm.069-45.51c.293.044.267.59.24 1.14-.139.01-.288.335-.003.387.082-.793.69-.808.77-1.6-.154-.102-.96-.89-1.007.073zm.056 18.621c1.093-.834.5 1.45 1.91-.035.07.48-1.246 1.373-.34 1.457.612-1.386.65.777 1.166.705.068-.44.417-.231.764-.014-.013-1.925.205-.433.765-.015 1.11-1.768-1.245-1.537-.868-3.613-1.533.323-1.515.71-2.653.776-.011-.364-.02-.726-.032-1.09-1.237.908-.107.353-1.92-.326.218.9.765 1.477 1.208 2.155zm3.744-6.52c.37.086.933.006.96.382-.261 0-.521.318.017.388.853-.745.011-.974-.084-1.938-.986-.437-2.222.623-.91.781.16-.595.565-.06.017.388zm2.344 38.954c.959-.803-.448-1.23.375-1.914-1.392-.577-1.111 1.987-.375 1.914zm.138-3.996c1.136.03.992-1.334 1.586-1.894l-2.01.074c-.079.87.465.996.424 1.82zm1.157-24.435c-.768-.299-2.1-1.563-2.018.554 2.02-.85.385-.157 1.01.836.07-.542.373-.294.673-.035-.015-.613.158-.987.335-1.355zm.557 12.526c-.063-.327 1.233-.747.264-.984-.051.297-.34.152-.625.001.071.368-.067.908.361.983zm.318-10.002c.011.941-.621 1.803.81 2.061-.848-.875.443-1.81-.81-2.061zm-.621-27.39c.688.08.32-1.007.882-1.067.074.649-.327.773-.283 1.39.35-.067.847.026.89-.38-.438-.2-.35-2.719-1.817-2.688.515 1.178.453 2.485.328 2.746zm2.456.452c.582-.18 2.12.37 2.018-.333-1.688.507-.145-1.677-1.297-1.615-.544.417-.175 1.531-.721 1.948zm.82 24.1c1.017.165-.562.57-.694.767.057-1.116-1.334-1.233-.397-2.231-1.137-.286-1.339.365-1.759.798-.024-.88.591-1.117.312-2.251-.87.511-1.49-1.053-1.772.05.745.912.442 5.735 1.474 2.947.006.375.296.437.368.738-.382.786-.366.801.362.362-.157.735.55 2.37.737 1.474-.55-1.073-1.036-2.18.306-2.624-.688.88.096.412.375 1.11.836-.015 1.032-.673 2.12-.433.323-.921-1.616-1.192-1.432-.708zm2.052 10.666c-.477-.356-1.32-.32-1.796-.677-.25 2.136 1.67-.32 1.116 2.139 1.2.217 1.29-.638 1.393-1.48-.43-.528-.477-1.463-1.109-1.777-1.08.793-.14.082-.016-.72-1.413 1.253-1.832.458-2.816 1.513 1.145.68 2.712-.736 3.228 1.002zm-3.553-31.782c1.104.169-.562.5-.34.954.983-.336 2.31-.397 3.777-.347-.566-1.444-.762-1.448-2.002-2.522-.144 1.53-4.321-1.623-2.247.653.074-.247-.016-.626.352-.637l.04.951c.937.034 1.828.034 2.261-.335.217.468.594.795.811 1.262-1.146.89-1.673-1-2.652.02zm3.863 37.529c.902.128.458 1.107 1.925.877.29-.715-1.881-1.356-1.925-.877zm-1.216-34.37c-.113-.447.97-1.313 1.023-.404-.266.092-.676.031-.68.394 1.166.442 1.79-1.513 1-1.892-.134.472-.43.774-1.019.776-.08-.286-.02-.733-.354-.733.461.909-.981 1.575.03 1.86zm-1.033-5.156c1.222.542 2.658-1.013 1.76-.355-1.47.393-.251-3.55-1.486-2.267.62.263-.095 2.013-.274 2.622zm1.92 30.288c-.229.792.36 2.297.616 1.358-.183-.013-.355-.038-.303-.334.775.001.332 1.466 1.514.98.281-1.738-1.555-.931-1.827-2.004zm.16-17.03c1.348-.13.911-1.794 2.147-2.022-.729-.38-1.056-1.049-.498-1.587-.609.026-.977-.173-1.342-.38.78 1.317.198 2.735-.306 3.99zm.807 2.798c.198-.396.28-.983.273-1.72.425.348.841.71.704 2.054-.214-.31-.548-.405-.977-.334zm1.32 22.412c.454-.078 1.101.038 1.154-.442-.343-.791-1.38-2.631-1.952-.762.695-.073.913.38.798 1.204zm1.022-5.943c.16-.535.46-.917.618-1.45-2.083.366.783-1.052-.974-1.396-.044.423.068 1.012-.305 1.083-.225-.823-.592-1.48-1.61-1.373 1.047 1.167 1.91 1.995 2.271 3.136zm.138-25.052c-.958-.816.979-2.415-.048-1.882-.303 1.455-1.556-.034-2.706.057.539 2.211.991.382 2.754 1.825zm-.3 49.099c1.384-1.183.842-2.452 1.276-3.92-1.848.663-.456 2.895-1.276 3.92zm1.985 5.151c.141-.74 1.017-.728.687-1.948-.878-.22-1.318 1.876-.687 1.948zm-.368-42.983c-.326 1.763-.04 1.037.387 2.361-.67.112-.788-.419-1.423-.346-.342 1.203.8.674 1.429.743.664-1.429.373-1.845.665-3.191-.527-.188-.901-.555-1.429-.743.259 1.005-1.402 2.969-.322 2.387-.028-.681.26-1.024.693-1.211zm-2.271 16.815c1.179.663 3.383 1.603 4.065.896-.494.059-.546-1.797-1.124-.612.897.406-.801-.146-1.451.325-.46-.48-1.219-1.202-.44-1.864-.589-.444-1.455-.641-2.235-.913.07.413-1.187 1.17-.316 1.248.384-.687 1.391-.696 1.83-.017.034.428-.145.685-.329.937zm-20.323-3.172c-.964-.194.294-.723-.026-1.338 1.063.527.606 2.293.059 3.011-.982-.095 1.018-2.496-.033-1.673zm10.933-4.21c.186.351.467 1.63 1.858 1.763.272-.953-.95-.607-1.12-1.177.382-.61-.62-1.406-.738-.587zm12.712 8.972c-.781.53.471.859-.333 1.076-.616.034-.925-.253-1.09-.687 1.475.738.327-.96-1.084-.332.415 1.722.556 1.56.792 3.188-.819-.081-1.345.117-1.415.745.422.046 1.016-.085 1.083.332-2 .564 1.081 2.216-.657 2.508-.416-1.099-1.378-1.629-.785-2.832-.91.064-1.376.55-1.397 1.456.23.49 1.38.023 1.448.68-.633.187.166.376.376.704-1.635 1.06-3.133 1.412-4.248 2.233-.9.174-2.203-1.063-1.465-1.39 1.157 1.071 2.874.1 4.289-.455-.707-1.287-.145-1.627-1.485-2.103.345 1.253.066.875.41 2.128-.424-.047-1.016.084-1.084-.331 1.778-1.261-.954-1.198-.784-2.832 2.888-.08-.872-.445 1.407-1.101-1.392.495-1.295-1.277-.366-.347.435-.993-1.086-1.718-1.101-1.044 1.333.623-2.705.86-1.031 1.804-.128-.72 1.035.05 1.082.331-1-.137.327 1.935-.673 1.797.118-1.212-1.084-1.324-1.501-2.815.26-2.037 1.812-.75 2.456-2.193.046.282 1.21 1.052 1.082.331-.361.005-.465-.613-.016-.712.028.375.466.27.35-.364-.922.377-2.385.68-2.874-.29.557.015.224-1.041-.009-.356-.348.481-.307 1.332-1.04 1.448-.22-.735-.577-.74-1.083-.331-.067-.417.036-1.012-.385-1.06-.577.401-1.833.55-2.515-.299-.434-1.346-.709-3.303-.837-4.967 3.015.32.012-.848 2.124-1.117.749 1.035-.622 2.355.078 3.204 1.158.286.463-1.185 1.407-1.101-1.667 1.78 2.618 2.317.792 3.188.22.015.427.043.368.347.025.217.063.42.366.348-.047-1.32 1.732-.907 1.74-2.176-.845.01-1.04.636-2.14.404-.1-.506-.605-.587-.743-1.051.516-.207 1.861.374 1.783-.397-2.743-.124-.518-1.524-1.85-2.452-.167-.011-1.36.253-1.46-1.034-.89-.035-1.095.584-1.773.752-.57-.744-.843-1.798-1.843-2.094.535-.074 1.325.096 1.425-.389-1.44-1.888-1.357-1.91-2.593-3.502.703.16 1.247-1.797-.034-1.425.065.89.71 1.1-.325 1.432.235 1.01 1.37 1.778-.306 2.145.257-1.384-.377-3.714-1.142-2.824 1.074-.022-1.486 1.025.034 1.424-.005-.359.617-.462.715-.016-.398.812-.295 2.615-.28 3.212.117 4.938.285-5.382 2.497-.413-.678-.064-.78.419-1.423.389.21 1.661 1.095 2.029 2.175 1.018l.026 1.068c-.855-.926-.937.967-1.792.041-.237.978.729.7.752 1.408-.535.072-1.326-.097-1.426.388.22.016.426.044.367.348.026.216.064.42.367.348.03-.436.087-.846.7-.728-.138.83-1.56.989-.674 1.796l1.074-.025c.127-.615-.553-.9-.026-1.067 1.132.653-.523 1.558-.297 2.5.906.433 1.115-.207 1.44.323-.52.424-.892.432-1.431.032-.167 1.3 1.254 3.042-.274 3.568.068-1.959-.81-.565-1.075.024.237-1.342-1.386-.744-1.475-1.746 1.1-.582.226-.304 1.407-1.101.074.531-.097 1.317.392 1.416-.436-1.111.543-.879.682-1.44-1.237.072-1.704-.658-2.532-1.012.033-.664.207-1.195.682-1.44-.004.49.187.778.383 1.06-.275.086-.705.026-.707.372 1.419.419 1.046-.863 1.032-1.804-.908-.433-1.118.206-1.442-.323.62-.34 1.229-.69 1.032-1.804-2.294-.29.185-2.6-1.509-3.171.833 2.48-.88 2.27-1.339 3.948-.238-.75-1.642-2.15-2.184-1.375 1.07.783-.571.82-.717.016-.591 1.755 2.096 3.428.103 4.272.19-.85.508-1.67-.758-1.764.854 1.83-.658.297-1.05 1.092.505.447.113.735.043 1.78.608.132 1.65 1.641 2.166.664-1.108.122 1.201-1.952.998-3.228.938.872.238 1.187.776 2.475-.562.047-1.243-.02-1.057.737 1.747-1.174.726.687.734.695.229.228 1.138-.194 1.432-.033.972.533.122 1.594-.658 2.508 1.698.322 2.239-.406 3.241.638-1.018-.27-.915.524-1.781.397-.075 1.087 1.18 1.359.41 2.128 1.285.524.186-1.214 1.048-1.092.62.126.906-.55 1.074-.025-.175 1.609-2.45.882-1.372 2.524 1.89-2.873 3.527 1.646 1.083.332-.188 1.193 1.902 1.879 2.182 1.375-.936-1.12 2.708-.563 2.124-1.117-1.957.898-.42-2.804-1.824-1.383-.43-2.194-.272-3.369.954-5.008.189.63.38-.164.709-.372.502.206.087 1.369.75 1.406.225-.483.75-.68 1.417-.744-.092.703.5.695.74 1.052-.961.434-.887.193-2.148.05-.267 1.254-.676 2.374-1.357 3.235 1.261-.582.245 1.204 1.1 1.044.435-.902-.208-1.11.325-1.432.028 1.069.96-1.522 1.433-.032-.089.727-.953.72-1.042 1.448.82.263 2.389-.45 1.417-.745-.015.218-.043.423-.349.365.298-.637 1.11-1.066.315-1.789.679.064.78-.42 1.424-.389-.189.75-.864 1.037-.665 2.153.678.064.78-.42 1.425-.389.008.357-.28.43-.342.72.422.046 1.015-.084 1.082.331-1.774.08-1.767-.308-3.222.073.742 1.381 1.022 1.074 1.491 2.46-.885.49-1.154-1.382-1.44-.323.433.065.23.39.017.712.737.4 1.458-.221.741 1.052l.717-.017c.025.217.064.42.367.348l-.043-1.78c.494.004.782-.186 1.066-.38-.462 2.58.239.67.776 2.475-.585-.093-.955.503-.341.72.39-1.026.429.566.017.711.534-.072 1.326.098 1.423-.387-1.134.028-.614-1.416-.4-1.772l.717-.016c-.234.633-.37 1.11.035 1.424.053-.53.856-.347 1.422-.39.701 1.311 2.061 3.282 3.626 1.699-.747-.698-.699.173-1.424.388-.155-1.636-.664-2.619-.82-4.255-.537-.048-1.319.158-1.442-.323.186-.522-.462-1.83.317-1.788.183.416.401.798.742 1.051-.443-2.67 1.24-.97 1.757-1.465-1.194-.504 1.189-.446.682-1.44-.706-.09-.698.498-1.057.737-.317-2.027.335-4.265.222-5.704 1.632.56.858 1.611 1.85 2.45.105-.99-.052-2.403-.443-3.55zm1.276 8.297c-1.146 1.392 2.08-1.751.424-.77-.67 1.415.04-1.55-1.402-.754-.474 1.208.757.924.978 1.524zm-1.664-11.229c-1.044-1.485 1.178.543 1.312-.345-1.202-.46-1.977-.626-1.38-2.202-.627-.058-.72.373-1.312.345-.218.873.673.628.694 1.26-.332.008-.4-.25-.67-.304.333.586-.959 1.083.035 1.273-.024-.957.955 1.323 1.321-.027zm1.74 15.773c-.879-.02-1.11-.69-1.397.422.263.438 1.197 2.378-.321 1.909-.044.95.56 1.17 1.078 1.484-.249-1.5.413-2.06 1.011-2.688-.412-.05-.392-.587-.37-1.127zm.184-4.147c.13 1.358-1.31 2.79-.27 3.99.192-.678 1.389-3.266.27-3.99zm-1.883-22.47c.332.088.468.466.983.286-.018-2.85.287-2.217-.983-.286zm1.04-23.701c-.29 1.353-1.003 1.896.016 3.008-.544-1.845 1.522-2.449-.015-3.008zm2.7 13.22c-.012-.304-.024-.61-.038-.915-1.283.075-.775-1.426-2.227-1.203.298.83-.696.621-.677 1.227.982-.23.756.6 1.478.598.084-.6-.515-.601-.763-.91 1.227-.024 1.603.698 2.227 1.203zm-1.451-12.13c-1.518.469-1.006 2.5-2.847 1.93 1.237-.252.511 1.28 1.86.928.515-1.058 1.537-.53 2.152-.972-1.06-.666-.608-.978-1.165-1.886zm.283 16.646c1.39 1.738-.63 5.17 2.31 4.723-.189.538.472 1.888-.325 1.845-4.884-.755 4.25 1.242.657-3.322-.685.103.222.6-.35.742-.464-.14-.76-.455-.758-1.084.283-.09.723-.028.724-.385-.4-.832-1.447-.987-1.875-1.793.391-.704.885-1.31 1.049-2.23-.928-.463-1.114 1.48-1.458.402 1.162.153.094-1.826 1.433-1.504-.148 1.158.492 1.49 1.142 1.81.762-1.735-2.13-3.546-2.983-2.133.286.075.723-.008.741.348-1.58-.136-.446 1-1.074 1.129-.104-.687-.598.222-.741-.35.8-.073.764-.944.69-1.854-.386-.723-1.382-.806-1.866-1.426 1.057-.187 1.652-.814 1.79-1.88-.988 1.306-2.39-.036-1.5-1.435-1.423.344-3.942-1.757-2.924.437.11-.682.939.979 1.134 1.443-.691.1-.818-.394-1.475-.332.213.528-.384 1.907.41 1.828.325-.912.487 1.45 1.49 1.067.485-.85-.976-1.359-.033-1.47 1.776.178-.636 2.137.051 2.205.729-.023.443-1.013 1.449-.77-.09.65 1.752 1.097.766 1.453-.749-.091-.74-.978-1.49-1.068.366.676-1.07 1.253.033 1.47 1.348-.93.649 1.472 1.526 2.536.799-.549-.482-.885.34-1.11.438.167.84.371 1.117.708zm2.377-7.46l-.05-.77c-.893.1-.843-.475-1.882-.269.29.599.742 1.083 1.932 1.039zm.255-3.65c-.06-.506.091-1.255-.331-1.346-.147 1.164-1.486.567-2.166.409-.135 1.074.577 1.178.347 2.363-.397-.006-.436-.42-.935-.309-.014.926.527.666.02 1.356 1.469-1.104 1.563-1.654 2.744-3.141.074.26.02.668.321.667zm.859 46.946c.89-.194-.505-.517.356-1.006.862-.063.23 1.184.468 1.667-.452-.29-2.077-.276-1.194.01-.679.796-1.579-1.13-1.675-1.99.95.668.909-.144.37-.672.252-.826 1.292 1.05.453 1.333.11.48 1.193.106 1.222.658zm-.676-41.853c-.686.51.362 2.283-1.716 2.499.887-.828.226-2.805 2.159-2.856.161.636-.4.731-.443.357zm.858 8.694c-.101-.601.109-1.486-.518-1.604-.085 1.422-.981-1.69-1.376.016.723.446 1.17 1.142 1.894 1.588zm.574 38.061c-.944-1.602 1.626-1.532.686-1.91-.498-.002-.79.2-1.077.408-.193-.733 1.209-1.968.34-1.144-.532.212-.9.585-1.432.796.01-.484.453-.536.34-1.144-1.097.017-.876 1.351-1.042 2.298.993.248.714-.77 1.432-.796-.13.654.556.955.022 1.135-.003-.21-.301-.421-.361.01.22.015.428.045.368.368l.724-.02zm.187-23.604c.463-.044 1.127.052 1.171-.288-1.138-.059-2.163-.04-1.93.867.567-.158 2.067.343 1.964-.287-.469-.046-1.122.048-1.205-.292zm-.263-25.488c-.45.061-.402.538-.35 1.016 1.53-.965-.182-3.051-.54-4.047-.183.501-.542.857-.725 1.36 1.981-.037.117 1.265 1.615 1.671zm-.282-9.68c-.246.02-.308.612-.003.677.418-.702.362-2.758-.234-3.024.205 1.064-.386 1.067-.492 1.717.287.147.55.327.729.63zm1.308 5.78c.683-.526.837-2.402.332-1.88.008.496-.651.358-.734.766.295.077.444.303.394.741-.21.003-.42.312.008.374zm-.586 30.188c.657.569.08 2.438 1.878 1.805.1-1.097-1.87-2.383-1.878-1.805zm.295-20.29c-.287.653.964 1.404 1.08.616-.894-.25-1.154-1.09-1.818-1.555-.057.815-.622-.425-1.411.019-.07.246.011.623-.332.636-.026-.192-.066-.372-.364-.31.368 1.14 1.484 1.94 1.499 2.505.047-.368.546-.35 1.048-.33-.004.336.194.8.364.312.121-.874-1.327-.28-1.444-.928.271-.075.695-.018.694-.325-.277-.066-.419-.26-.374-.627.508.116.608.37 1.058-.014zm3.036.723c.376-1.209-1.017-.24-.641-1.451-.78.502-.982-.15-1.25.42.811.246-.204 2.74.964 2.546-.435-1.143-.109-1.264.927-1.515zm-2.53 8.903c1.062-.328.993.5 1.9.33.296-1.285.877-2.311 1.862-1.147.135-.742.865-2.753-.086-3.317-.034.917-1.277.135-1.512.032-.342.76-.734 1.475-1.076 2.235.446.048 1.07-.085 1.142.345-.365.5-.594 1.125-1.095 1.498-.322-1.233-2.446-2.047-1.229-3.661-1.415-.36-.708 1.259-1.473 1.505-.678.063-.894-.347-.784-1.09.79.725.737-.177 1.502-.4-.185-.692.457-2.232-.803-1.826.923 1.275-.32 2.545-1.105 1.13.37 2.328-.252 3.66.879 4.775.914-.51-.71-1.098.34-1.483.2.652.398-.168.746-.384.85.513-.452.909.406 1.098.823-.549-.499-.89.349-1.114.65.719-.022.47.038 1.474zm3.587-5.725c-.224.907.786.424.766.001-1.033.2-.804-.55-1.563-.556-.446 1.354-1.058.93.797.555zm2.876-1.483c1.93-.36-.661 1.475.518 2.222.307-.984.862-2.435.013-3.007-.005.498-.464.373-.53.785zm1.526 5.31c-.937-1.66-.52.687-1.637.768.618 1.278.9-.662 1.643-.41-.292.99-.988 1.56-1.28 2.55.21-.85-1.092-1.176-1.682-2.099.986-.13.893-.655.295-2.16.753.076 1.239-.126 1.308-.759.306.621.943 1.744 1.325.317.256.275.257 1.246.028 1.792zm1.316 4.091c-.2-.867 1.245-1.337.28-1.985-.17.834-1.383 1.572-.28 1.985zm-1.36-7.112c.907.002.662-.658 1.328-.049.285-1.973.167-3.51-.72-4.92.112.873-.953.458-.982 1.178 1.364.346.676 1.155 1.684 2.22-.977-.397-1.234-.177-1.649.823.62-.043.706.267.34.748zm.65 10.445c.13.725 1.455.31 1.586 1.037-.39.01-.468.626.022.706-.108-.667.412-.786.343-1.419-1.58-.36-2.222-.804-2.385-1.732-.425 1.278-1.19 2.278.092 2.826.466-.891-.233-1.102.342-1.418zm6.38-10.956l1.26-.002c-.265-1.018.922-1.328-.503-1.62-.019 1.98-.618-1.517-1.26.003.573.222-.164.864.503 1.62zm-2.899 1.288c.266-.09.68-.03.683-.384-1.39-.15-.403-.877-1.061-1.427-.072.284.003.718-.332.738l-.02-1.093c1.633.194 1.926-.706 2.4-.797-.269-.073-.406-.294-.357-.72.407.047.978-.09 1.041.336-.261.256-.857 2.196.379 1.811-.787-1.367.448-1.623.636-2.934-.645.039-.735-.259-.358-.719-.518-.046-1.271.167-1.387-.324.787-.7.343-2.434 1.313-3.682.754.803-.42 1.614.73 2.166.279-1.671-.613-2.048-.75-3.259-.946-.238-.68.744-1.367.768.625 1.204.245 2.32-.635 2.934.422.895.606 2.054 1.426 2.51-1.675.217-1.294.28-2.421-.295-1.006 1.079.875.608.723 1.801-1.28.424-.57-1.35-1.744-1.043.09.686-.375.815-.319 1.467.542 1.163 1.223 2.145-.324 1.103.116.767 1.566 1.944 1.751 1.407-.192.007-.396-.284-.007-.364zm-2.255-3.653c.722-1.305.78-1.34.899-2.942-.967-.16-1.473 2.412-.899 2.942zm-7.942-5.536c.266.7-.019 2.21.863 2.002-.266-.7.02-2.209-.863-2.002zm-.646-5.09c-.016-.267-.03-.535-.045-.802-1.238.15-2.027-.632-2.888-.269.62.355 1.243.71 2.544.537.092.207.039.527.389.535zm-6.667-10.49c-2.144 1.142 1.384 3.523 2.097 4.157-.07-1.934-2.458-2.909-2.097-4.156zm-10.898 11.374c.065.358-.001.926.295.916.02-.648-.133-1.02-.29-1.388.324-.003.776-.279.308-.492-.611 1.317-1.506-1.537-1.831.606.6-.185.597.59.904.873.07-.372.26-.566.614-.515zm-2.665 1.709c1.343.146 1.71-.35 2.064-.855-.984.09-1.809.285-2.064.855zm2.702-3.716c.668-.019.44 1.021 1.355.713.126-.418.392-.928-.005-.381-1.15.202-1.025-1.103-1.701-1.46-.327 1.082-1.43-.054-2.018.071.75 1.86.23 2.063.048 3.8 1.233-.305 1.051-2.36 1.31-2.707.744.054 1.618 1.489 1.011-.036zm-5.212.536c.024-.665 1.145.379 2.036-.051.525-2.448.458-1.6.944-3.493-1.059.187-1.522-.264-1.386-1.352-.785-.457-1.259.926-1.36.034a1.74 1.74 0 0 0 .997-1.066c-.838.781-1.346.3-2.022.745 1.301 1.642-.294.722-.288 2.435.966.325.862.487 1.374.66-.767.547-.723 1.498-.295 2.088zm17.503 26.92c1.116-.31-.529-.864-.058-1.729.508.115.625.6 1.175.675-.094.813-.563 1.306-.302 2.424-1.48.207-1.611-.858-2.722-.999 1.783-1.375-1.06-.646-.85-2.408.727.028.306 1.138 1.187 1.02 1.012-.415-.028-1.834-1.198-1.365.448-.733 1.017-1.363 1.465-2.095-.257-.508-1.94.867-.396-.34-.805-.905-2.58-.894-2.396-2.733 1.808-.125 2.187 3.221 2.734 1.345.774-.282 1.752.658 1.872-1.41.588-.003 1.294.926.024.693 2.045 1.546-1.74 1.52-.268 3.46.122-.924.321-.81 1.478-1.75.055.136-.403 3.7-2.21 2.797-.315-.133-.059 2.16.465 2.414zm-27.172-21.606c-.258-.657-2.303-1.561-2.944-.901 1.565.53 1.173.908 2.944.901zm1.499 32.837c.657-.06-.493-1.619 1.141-1.552l.051 1.909c-.91.14-1.515-.03-1.981-.34.085-.484.774-.402.789-.017zm3.277 4.693c-.948-.713.27-1.436 1.1-.819.353 1.38-.917 2.052.415 2.348-.05.461-.671.35-1.108.424-.014-.576.082-3.219-.407-1.953zm8.477 4.224c.34-.47.554-1.058 1.024-1.41 1.35-.075 1.839 3.272 2.858 1.326-1.717.73-.628-3.303-2.152-1.34.102-2.357-1.397-3.067-3.264-3.398-.47.452-.503 1.71.396 1.725.046-.409-.085-.982.327-1.047-.008.946.606.685.035 1.387 1.153.403.241-1.128 1.394-.724-.376 1.099.575.83.741 1.37-.439.485-1.656.511-2.118.046l.018.694c-.215.024-.416.06-.345.354.418.045 1.001-.08 1.07.324.044.388-.501.55.016.693zm10.339 2.284c.006.735-.898.501-.643 1.5.633.138.845.768 1.669.683-.074-1.633.94.142 1.316-.784-.017 1.146.179 2.044.7 2.563.024-1.066-.215-2.412.29-2.967-1.171.615-.218-1.247-1.01-1.074.025 1.24-1.301 1.044-1.97 1.546-.065-.551.1-1.368-.352-1.467zm-3.221 5.529c-.387.653-1.274.89-1.879 1.36.8.728 2.948.23 1.993 1.655.553-.19 2.01.37 1.917-.356-1.564.111-.876-.113-.81-.997-2.46-.002-.564-1.128-1.221-1.662zm6.27-.487c.034-.729-.443-.899-.854-1.14.003.911-.516 1.621.317 2.028.017-.458-.057-1.008.537-.888zm-3.272 5.709c1.525-1.233 1.05-1.092 2.95-1.11-.643-1.412-1.68-1.762-.08-2.813-1.166.187-1.012-.928-1.894-1.021.351 1.09 1.135 1.493.07 2.461-.24-.713.645-1.95-.03-1.055-1.041-.139.349 1.912-.694 1.773-1.136-.257-.01-2.34-.796-1.746-1.333 1.69.44 2.26.474 3.51zm8.06 5.177c.624.685-.02.447.039 1.404 1.103-.466 1.876-1.235 2.484-2.158-1.093-.208.328-.757-.037-1.403-1.443-.534-.086 1.518-1.052 1.426-.572-.021-.308-.89-1.107-.68-.755.118.564.939-.698 1.067.988-.968-.905-.612-1.126-1.382.392-.091.855-.595.344-.708-.01.368-.458.285-.372-.344-1.035-.27-.928.513-1.806.388.048-.527-.165-1.293.325-1.412 1.086.786 1.565.099 2.206 1.009.735-.921-.858-1.669-1.136-1.733.212-1.055.785.32 1.452-.029-.364-.647 1.057-1.195-.037-1.404-.071.62-.604.813-1.433.732-.008-.353-.305-.412-.382-.695.684-.093.812.38 1.462.322.309-.628.849-1.043 1.042-1.777-.947.118-1.565-.097-1.48-1.023.667-.35 1.24 1.026 1.452-.03-.6.007-.23-.97-.754-1.038-1.595.764-2.387-2.38-3.36-3.443-.065 1.257-.733 2.283.8 2.792-.688-.064-.79.413-1.443.381l.057 2.105c.235.483 1.398.025 1.47.673-.05.41-.564.393-1.08.373-.175 1.38 1.518.866 1.862 1.717-.223.2-1.059 1.449-1.442.381-.008-.464.627-.334.706-.716-2.883.034.714 3.513-2.112 2.5.52.79-.9 1.339.037 1.404.034-.768.895-.773 1.797-.739.114.987 3.018 1 1.871 2.07-1.442-.08.374-1.228-1.117-1.032-.634.097.58 1.293.772 1.74.823-.783 1.394 1.029 1.797-.738zm.88-34.578c-.104.573 1.895 1.835 1.979.356-1.108.37-1.032-.55-1.979-.356zm2.643-9.15c-.604-1.864-1.48.07-2.083 1.122.987-.132 1.817-.395 2.083-1.123zm-1.866 5.264c-.398-1.05-1.451-1.172-1.827-1.36 2.072-.47 1.723-2.594 2.033-4.592-.83-.462-1.324.93-1.433.031.08-.722 1.326-.357 1.406-1.08-1.348.213-1.67.527-2.517-.297-.084.616 1.053 1.725.054 2.099-.067-.41.036-.994-.386-1.042.043.608-.052 1.09-.322 1.407 1.079.354 2.204.402 2.527.646-.047.413.086.991-.331 1.057-.083-1.118-2.033-1.406-2.536-.997.14.815.468 1.436.77 2.084-.823.123-.423-1.003-1.101-1.027.914 2.719-2.105 2.597-.25 4.204.287-1.624 1.425-.335 2.113-1.445-.251 1.637.607 1.824.798 3.132.899-.62 1.263.375 1.781-.388-.36.004-.466-.602-.018-.698-.015.544 1.05.22.36-.008-.701-.642-.644.221-1.792.038.09-.844-1.608-1.66-.422-2.44 1.215.29.063.781.753 1.383.878-.474 1.513.995 1.792-.037-1.289-.262.114-1.228-1.12-1.727-.046.413.086.992-.332 1.057zm11.376 2.101c.201.06.302.243.262.6l.515-.02c-.014-.42.115-.677.25-.928-.385.068-.951-.07-1.027.348zm-.059-3.824c-.22-.545-1.339-.012-1.4-.746.021-1.306 2.742-1.69 1.706-2.85-.5.893-1.128 1.65-2.063 2.067-.715-.083-.343-1.47-1.06-1.553-.016.244-.046.473-.343.41-.211.031-.41.076-.343.412 1.565-.331.805.638.714 1.566 1.36-.526 1.94 1.942 2.79.694zm1.122-2.037c-.627-.034-.717.313-1.38.254-1.013.417.859-.243.653-.768.766-.14.525.49 1.076.514-.05.291-.341.142-.349 0zm10.894 19.941c.103.669 1.568 1.751 1.815 1.043.564.114-.3.645.374.715-.558.391-2.517-.207-2.457 2.233.62-.346 1.228-.703 1.033-1.835.705.652.297.655 1.44.326.76.733.005 1.18 1.83 1.766-.926.405-.631 1.988-1.009 2.923.628-.102.802-.643.684-1.466 1.108.227.694.237 1.79-.043-1.314 1.793.79.98-.675 1.827 1.216-.059 1.42 1.185.406 2.164 1.333-.241-.355 1.22 1.107 1.422.194 1.132-.943.98-1.035 1.836.23 2.229 3.301 1.444 3.662 3.533-.318.411-.663.13-1.782.405.146-.449.441-.754 1.058-.75-.354-1.208-.67-.163-1.798-.317.613-1.674-1.893-.624-.756-1.794-.911.56-1.7.983-2.124 1.139.864-1.01 1.875-4.05 1.643-6.56-1.253.554-1.23 1.286-2.847.794 1.794-.715-.204-3.295-.838-5.413-1.03.644.84 1.298.415 2.526-1.174-.115-.911-1.753-1.139-2.87-.359.244-.351.84-1.057.75.963 1 .563 3.097.805 3.965.711-.023.433-.999 1.416-.76-.096.853-1.091.838-1.4 1.484-.15.776.526.677 1.09.697-.213.328-.418.658.016.725-.937 1.133-2.312-.39-2.514-.301-.184-.77.496-.702 1.057-.75.393-2.023-2.15-.933-1.854-2.853 1.144-.347.517 1.18 1.457 1.051.497-1.117-.386-1.612-.432-3.25-.952-.092.38 2.02-1.04 1.474 0-1.498.812-2.256.61-4.723-1.578.07-1.856-3.79-3.686-4.62.755-.738 1.846 1.26 1.4-1.482 1.888-.272 1.353 2.026 3.262 1.731-.714-1.252-.168-1.951-.073-3.258-1.84-.48-1.64-4.852-4.783-5.679.213-.328.418-.658-.016-.724.144-.542.462.131 1.074-.026-.456-.77-2.652-1.612-2.897-1.378-.638-.312-.62-1.319-1.464-1.414.476-1.063 1.77.06 2.156.31.18-1.302-1.084-1.074-2.172-1.034 1.016.01-.066-4.41.676-1.827 1.194-.36.162-.678.317-1.82-1.535.8-2.714-.26-4.264 1.555-.083 1.133 1.015-.947 1.082.335.33-.274.528-.672.692-1.104.642-.061.765.425 1.44.327.028.853-.593 1.081-.309 2.182-1.71-.007-.494-.81-.764-2.156-.545.656-.437 1.942-2.117 1.501.068.423.66.289 1.082.336.203.702-2.494.477-3.205.803.672 1.105 1.1.166 2.514.3-.183.297-.36.597-.334 1.095 1.316-.774 1.092-1.36 2.848-.794-.342.379-.691.75-1.05 1.113.098.39.718.228.733.706.804-.222-.447-.554.334-1.095.302-.074.34.133.365.353l.717-.016c-.096.852-1.09.837-1.4 1.483.746 1.058 1.326 1.228.772 2.516 1.087-.195.631 1.255 1.79-.044.304-.074.341.133.366.354-.058.31.148.338.367.353-.1.494-.89.322-1.424.396-.042.788 1.273.134 1.798.32.238 1.15-.647 1.135.04 1.809.969.226.675-.765 1.05-1.112.486.226.684.758.749 1.43-1.043.062-1.394.434-1.75 1.855.107.93.605-.513 1.432-.036-.306 1.122-1.496 1.39-2.1 2.225.68.515.983 1.43 2.181 1.396.122.944-.096 1.56-1.042 1.474.403-.546.395-.923-.032-1.448-1.462.403-1.492 1.403-3.206.803-.068-.42.065-.646.342-.733-.018-.352-.445-.27-.724-.344.705-1.308 1.281.575 1.456 1.05.288-.075.349-.372.707-.38-.24-.362-.83-.353-.74-1.068.293.185.59.364 1.083.337-.496-.33-.751-3 .318-1.82-.734-.463-1.135-2.394-.432-3.25-2.307 1.407-1.445-1.075-2.205-2.481-.977-.009-.706.62-1.431.034-.184-.768.495-.701 1.057-.749-.315-.53-.918-.756-1.806-.681.355-1.217-.14-1.233.302-2.543-.075-.29-.367-.352-.375-.715-1.198.357-.024.811-.683 1.466-1.637-.692-3.692-2.651-3.67-3.895-1.6.543.871 1.232-.675 1.827.374 1.006.944-.549 1.44.328-.801.58-.658.77-.317 1.819-.941-.44-1.098-.769-2.156-.31-.05.423.093.642.374.716.017 1.015-.997-.838-.7.74-.76-1.221.103-2.429.26-4.352-.77-.62-.65-1.242-1.805-.68 1.001-1.748-.79-1.977-1.163-3.957 1.01.04.484 1.71 1.821 1.405.417-1.183-1.164-.248-.748-1.431.844-.013 1.04-.65 2.14-.414-.98-1.381-2.276.981-2.864.07-.08-1.023 1.057-.87 1.035-1.837-.068-.423-.66-.29-1.083-.336-.483.124-.277.914-.325 1.457-.408.763-.56-1.848-.774-2.517-.347.02-.267.45-.341.734-.349-.002-.287-.438-.374-.716-.388.1-.227.726-.7.742.578 1.019.988.101 1.465 1.413-.003.352-.433.291-.708.38.27.33.662.532 1.09.697-.503.734.4 1.259-.676 1.828.122.488.903.278 1.44.327-.573.792.324 2.4.788 3.24l-1.073.027c-.056-3.545-2.487-3.57-3.677-4.257.492.914.367 2.266-.684 1.466 1.011 1.275 2.33 2.225 2.953 3.912.817-1.135.21-.15 1.433-.035-.665.698-.002 1.882.764 2.155.352.661-2.044.271-.7.74-.087 1.204-1.14-1.384-1.432.036-.135-.52-.383-.752-1.456-1.051.168.687 1.037.63.756 1.793.716-.018 1.432-.036 2.148-.052.464 1.845 1.713 1.045.073 3.257 1.374.5.035-1.619 1.408-1.12-.39.454-.295.75.373.715-.297.894-1.99.44-1.748 1.854-1.164-.072-.906-2.36-.057-2.535-.444-.517-1.573-.31-1.115-1.783-.833-.096-1.373.091-1.781.406.097.39.717.228.731.705 1.005-.028-.874-.966.7-.74l.033 1.447c-.305.64-1.574-.231-.708.38-.472 1.06-1.28-.577-1.108-1.422-.724.245-.058 1.831-1.398 1.483.775 1.612-.723 3.397 1.155 3.594.06.648-.421.775-.326 1.458-.364-1.715-2.117-1.957-2.937-3.19-.357.645 1.077 2.551 2.213 2.845.284 1.1-.595 1.08-.31 2.18-.42-.047-.317-.652-.382-1.076-.661.482.037 2.031.049 2.171-.13.702-1.64.071-1.042 1.475-.43-.655-2.332.248-1.823-1.405.35.002.289.437.375.715 1.28-.687-.654-.982-.399-1.801.745-.171.953.225 1.44.327-.369-1.694-1.141-.547-2.156-.309.766-1.544.28-1.675.651-2.914-.767-.15-.67.534-.691 1.103-.566-.14-.331-1.13-1.448-.688 1.19-.385 1.519-1.605 2.824-1.88l-.033-1.449c-1.002.389-.885.552-1.416.76-.707-.909.706-1.028-.415-2.526.835-.487.668.03 1.782-.407-.337 1.032-.504.922-.684 1.467.094.52 1.072.1 1.091.698.921-.11-.506-.61-.033-1.449 1.95 1.137 1.034-.866 2.507-.06.623-.344.561-1.348 1.399-1.484-.075-.292-.367-.352-.374-.715-.643-.03-.745.462-1.424.397.285.315.403.808.391 1.44-1.124-.046-1.485-.899-2.181-1.396.144-.541.46.13 1.074-.027-.349-2.256-2.128.13-1.123-2.146-1.315.14-.964 1.63-.675 1.828-.309.765-1.033 1.13-2.124 1.139.5-.542.494-1.415-.74-1.07l-.048-2.172c1.126.685-.085 1.548 1.472 1.776 1.138-.843 0-2.037.651-2.914-.074-.292-.367-.351-.374-.715-.543 1.826-.759-.283-1.408 1.121-1.048-.29-.414-.533-.39-1.44-.752-.135-.943.272-1.424.398-.031.65.455.752.39 1.439.284-.198.573-.392 1.066-.388.014 1.194-.987 1.409-2.116 1.5-.542 1.44 1.55.09 1.457 1.052 1.073.656-1.127-.493-1.425.396 1.98-.158-.532 1.827 1.49 2.5-1.122.955-.964 2.164-.286 3.267 1.248.26 1.364-.574 2.498-.423-.623.869-1.55.677-2.831 1.518 1.692 2.205 1.138 2.47 1.903 5.025.91-.304.027-2.335 1.384-2.208-.685 1.415.21 2.016.796 3.603-.8-1.233-.58-.076-1.057.75.66-.425 1.715-.47 1.391-1.845.412.675.922 1.247 1.122 2.147-.48-.424-.566-.128-1.073.025.001.538 1.501 1.581.033 1.449.17.806 1.767.103 2.513.3-1.112 1.21-.241 1.581.415 2.525-.003.976-.78 1.761-1.408 1.121 1.093 1.203-.619 3.715 2.213 2.845-1.52.887.188 1.09.406 2.163-1.062-.512-1.32.442-1.807-.68-.347.018-.267.45-.341.732.324.54.534-.112 1.44.327-2.12.754-1.34 4.085-2.385 5.492 1.023 1.303 1.214-1.162 1.758-1.491-.431.415-.728.332-.724-.345 1.054.242 1.78.832 2.538 1.387.475-.25.65-.79.684-1.466-.242 1.324-3.5-.363-2.554-2.111 1.85 1.94 1.452-2.933 1.692-4.389 1.392 1.034.875 2.757 1.172 4.32.348-.02.268-.45.342-.734.517.07.149 1.078.74 1.069-.144.54-.461-.132-1.074.026.31.413.494.96.399 1.801.312-.23.63-.453.715-.018.037.927-.256.45-.707.38.478.566.504 1.446-.342.733-.003.62.287.932.74 1.069.328-.274.527-.671.691-1.103 1.134-.101-1.073 2.702 1.497 2.86-.851.742.64 1.532-.675 1.828.067.423.66.29 1.082.337-.09.739-3.215 2.697-2.84 1.156-.941.127-.709 2.154-1.766 1.129.91-.862.88-1.51 2.808-2.604.433-1.235-1.445-1.88-1.815-1.042-.47-.776-.103-.805-.756-1.793l1.074-.026c-.196-.287-.387-.58-.382-1.077-1.033.537-1.091 2.016-1.725 2.94.16.694 1.64-.01 1.105 1.422-.965-.659-1.21-.038-1.455-1.052-.634.425-.23 2.618-1.4 1.484.035.588 1.814 1.988.049 2.172-.068-.42.064-.646.341-.733-.067-.424-.66-.29-1.082-.336-.283-.982.695-.746.684-1.466-.253-1.364-1.487.429-1.464-1.413-1.105.966-3.383-1.03-2.555-2.11-1.211-.224-1.157.772-1.766 1.13.26 1.078.757-.366 1.432-.036-.535 1.191 1.893 1.906.049 2.172.619.332.81 1.118 1.114 1.784 1.615-.49-.642-1.038.318-1.82 1.937-.151-.054 1.71 1.83 1.767-.293.525-3.548 1.067-2.88-.653-.585.38-.355 1.547-.667 2.19.074.29.366.35.374.715.71-.022.432-1 1.416-.76-1.225 1.013-3.342 3.054-2.824 1.88 1.135.388.857-.59 1.416-.759-.118-.74-.973-.699-1.457-1.05 1.902-1.4-.988-2.344.277-3.63.126-.706-1.642-.488-1.066.39-.715-1.22-.458-3.468-2.928-2.828 1.143-.564-.192-1.867 1.033-1.836-.135-.412-.65-.902-.724-.344-.773-.32.643-1.472 1.766-1.13-1.12.771 1.027.697.024 1.086.125.858.96-.426 1.058-.75 1.054.482-.607 1.262-.31 2.18 1.13.028.106-2.023 1.758-1.492-.643-.923-1.497-1.635-.414-2.526-.969-.225-.676.766-1.05 1.113-.535-.144.13-.466-.025-1.086-1.131-.147-.785 1.131-2.131.777-.888-1.786-2.01-1.25-3.986-2.076-.806.222.444.554-.335 1.095-.406-.321-.127-.67-.398-1.802.97-.287.736.703 1.447.69.146-1.266-.925-1.243-1.471-1.776-.365.214-.047 1.705-1.393 1.845.695-.99.787-3.815-.406-2.163-1.209-1.652 3.329-.791 3.897-1.906.824.115.51 1.436 1.117 1.783.282-1.851 1.9-2.417 2.416-4.044-.905-.19-1.135-.336-1.823-1.404-.351.295.162 1.263-.675 1.828.327 1.055.89-.493 1.79-.044-.305 1.47-1.725.81-1.75 1.854-2.607-1.818-1.516-3.591-1.586-6.843l1.074-.026c-.196-.287-.387-.58-.382-1.078-2.093 1.074-.002-1.314-1.465-1.413-1.098 1.466.074 2.284.09 3.982-.754-.19-1.043-.872-2.165-.671-.289.076-.349.371-.708.38-.118.618.295.675.732.706-.172 1.191-1.372.587-1.09-.698-1.19.15-1.565 1.088-3.206.803.543-1.011 1.24-1.883 2.132-.777.435-1.44-1.334-.844-.398-1.801-1.509.67-1.863 2.453-3.15 3.337.41 1.665.995 3.146 2.587 3.559.449-.1.346-.73-.016-.724.1-.494.89-.322 1.424-.398-.023.923-.49 1.418-1.4 1.484.318.776.955 1.212.773 2.516-.662-.304-.895-2.344-1.448-.688-.8-.034.445-.924-.04-1.81-.055-.683-1.19-.223-1.1-1.06-.359.244-.35.841-1.057.75-.626-.969.53-1.71-.764-2.155.002-.352.432-.291.708-.38-1.023-.732.028-1.362-1.114-1.784-.875-.764.868.024 1.081.336.583-.4-.94-1.075-.048-2.171-.54-1.552-1.868.024-1.49-2.5-.704.382-.528 1.615-1.757 1.492.628-1.165 1.619-1.981 1.344-4.017-.915.062-.684 1.23-.669 2.19-.472-.117-.576-.624-1.09-.699.278-.913.95-1.446 1.017-2.56-.29.266-1.304 2.143-1.423.397-.99.653-.315.957-.31 2.18-.832.553-.648.78-1.78.407.29-2.43-.704-1.211-1.84-2.128.184-.758.541-.781 1.066-.388l-.032-1.449c-1.358.547-1.141 1.012-1.773.768-1.195-.512 1.187-.455.682-1.465-.34-.985-1.571.745-.73-.707-1.183.639-1.23-.2-2.515-.301-.32-1.016.483-.95.316-1.82-.573 1.534-1.25-.538-.74-1.068.409.06.208.358.008.362.406.738 1.452-.546 2.515.301-.038-.898-.764-2.6.318-1.819-.26-1.52-1.654-.434-2.173-1.033.049-.426.646-.322 1.065-.389-.26-.713-1.107-.802-1.463-1.413-.529.172.151.46.024 1.087-1.066.044-1.841-1.021-2.514-.301 1.515.438 1.804 2.45 3.27 2.093 1.077.211-.325.782.032 1.448-.763-.55-1.17-1.476-2.188-1.757-.779-.043-.134 1.287-.317 1.818-.838-1.248-.94.02-2.189-1.757-1.556 1.548 1.121 3.64 1.554 5.395.417-.069.287-.668.333-1.095 1.145-1.106-.673 2.624.756 1.793.334 1.148-.538 1.133-.675 1.828-.348-.002-.288-.436-.374-.716-.874.53-.605 1.263-.31 2.181.861.123-.235-1.644 1.05-1.113-.271.33-.366.828-.325 1.458.872.211 1.303-1.758.675-1.828.586-.416 1.984-.723 1.814 1.043l-1.073.026c.384 1.01 1.517-.137 2.147-.052l-.04-1.81c1.015.74.272 1.045.764 2.154-1.099-.235-1.296.402-2.14.415.652.905.96 1.742.058 2.533 1.04-.393 1.536-.765 1.033-1.836 1.34.66.887-.25 1.408-1.12.294.243.992.538 1.074-.027 1.112.335-.764.616-.692 1.103.374 1.007.944-.549 1.44.327-1.397 1.146-2.645.773-3.898 1.907.224.75 1.34-.554 2.14-.414.146.612-.264.689-.7.741.224 1.183 2.34-.48 1.058-.75.323-1.209.717.387 1.082.335-.883.66-.238.604-.684 1.466.138.504.632.016.708-.38.401.99-2.077 2.237-3.158 2.975.004-.352.432-.291.708-.38-.369-.472-.614-1.077-1.105-1.42.287-1.061.527-.422 1.424-.398.121-1.358-1.097-1.087-1.44-.327-.37-.227-.39-.823-1.09-.698.905-1.35-1.045-2.373.277-3.629-3.345 2.723-2.093-1.933-5.419-2.04.455-1.583 1.474-.01 2.155.309.889-.273-.686-.95-.397-1.802-.889-.002-1.862-.24-2.19-1.757-.31.289-.799.409-1.423.397-.6-3.298-1.363-6.177-1.618-8.292.223-.374.814-.395.692-1.104.517.07.149 1.077.74 1.07-.492.548-1.125.805.374.714-2.755 2.401.631 4.882.87 6.861.28-1.028 1.198-1.442 1.741-2.215-.073-1.34-.541-.898-1.448-.69-.258-1.312 1.695-.488 1.757-1.491.89-.078 1.123.541 1.807.68.329-.274.527-.672.691-1.103-.865-.128-.761.68-1.782.405-.216-.734-1.091-.684-.389-1.439.39.08.258.714.732.706.035-.226.741-1.967-.408-2.163.552-1.061 1.33-.47 2.149-.053-1.53-1.454-2.676-4.577-5.483-4.937-.145-.613.264-.69.7-.741.049-.423-.094-.643-.375-.716 1.401-1.288 2.46-.148 3.597.637.286-1.665 1.481-.607 1.383-2.208.56 1.427 2.13 1.437 3.604.999.405-.965-1.742-.892-.024-1.086-.502-.21-.085-1.393-.749-1.43.595-1.19.96.917 2.158.309-.544.839-1.527 2.288-.295 2.904.787-.303-.117-2.239 1.392-1.845-1.133-.403-.08-1.31-.423-2.886 1.128.222.489.953.4 1.8 1.581-1.161-.136-2.99-.806-3.964-.765.23-1.065 2.717-.284 3.267-.512 1.21-.893-.73-1.799-.32l-.056-2.533c-.36.244-.353.842-1.06.75-.007-.36-.015-.724-.024-1.085.855.445.667-.064 1.8.318-.115-.901-1.37-1.176-.407-2.163-.6.64-1.42-.498-1.409 1.12-.972.896.626-1.712-.747-1.43.097-.196 1.569-.4-.016-.725.115-.478.617-.584.69-1.103-1.07-.073-.256-3.472-1.544-5.033 1.883-.069.58-1.159.667-2.19.767.773 1.082-.458 1.042-1.474-.827.178-.923 1.622-1.774.768.51.595.899 3.223-.651 2.913 1.128-2.09-1.249-1.174-1.838-2.128-.679.482.86.728.04 1.81-.335-.422-1.78-1.526-.764-2.155-.098-.39-.719-.228-.734-.706-.33.213-.52 1.019-.707.379-.625.102.567 1.333.756 1.793-.835.63-2.444-1.567-1.13-2.509 1.952.817 1.169-.65 2.482-1.147-.35 1.606 1.57.807 1.48 2.137.387-.099.227-.725.7-.74-.116-.742-.972-.7-1.456-1.052-.285-1.1.593-1.08.31-2.182.563.392.77 1.16 1.813 1.043.423-.143.353-4.149-1.497-2.861.063-.295.352-.37.342-.732-.288.075-.348.371-.707.38-.008 1.142 1.005 2.135-.668 2.188 1.15-1.615-1.32-3.689.277-3.629-.277-.638-.652-.036-1.075.027.523 1.982.008 2.76.113 5.068-.94.134-.938-.733-1.105-1.422-1.205.177.983 1.38-.692 1.104.24-.792-.417-2.295-.374-.715-.488-.1-.317-.9-.39-1.44.576-.116.624.327 1.081.336-.308-.413-.493-.96-.398-1.801.487.226.685.757.748 1.43.948-.972.476-1.258.301-2.543-1.574-.148-1.178-.084-2.513-.3.196-.344.983-.573.342-.733.08-.858.966.392 1.439.326.56-.141-.326-.63.343-.732-1.614-.902-2.004-.823-3.27-2.093.033-.676.208-1.216.683-1.466.093-.738-1.032.1-1.066.388-.369-.226-.389-.824-1.09-.697 1.934-3.9.727-5.951 1.327-4.742.693-1.781 1.482 1.592.397 1.802.283.812 1.383.758 1.473 1.775.288-.076.35-.373.708-.38-.116-.741-.972-.699-1.456-1.05 1.082-1.229.725-.446.31-2.182.772.662 1.265 1.623 1.495 2.86.67-.286.226-1.085 1.068-.388-.41-.435-.33-.735.34-.732-.066-.423-.659-.29-1.082-.336.427-2.012 1.897 1.778 2.499-.423.78.524-.237.892.398 1.801-1.361-.764-.763.757-1.79.044.138.473.643.554.74 1.069.954-.26 1.339-1.07 2.116-1.501 1.863.659 1.726 1.69.009.362-1.36.902.187 1.064.056 2.534.348-.018.268-.45.342-.732.908.342-.25 1.607-1.042 1.474.067.423.66.29 1.082.336.694 3.731 4.146-.85 4.711 2.42-.834-.086-1.698-.868-1.415.759-.422-.048-.318-.653-.382-1.077-1.183.654-.38 2.626 1.48 2.137-.147.45-.442.755-1.058.75.091 1.14 1.94.417 1.83 1.767-.357.01-.716.018-1.074.026-.088.587.352.615.382 1.077.405-.078.19-.368-.008-.361.291-.546 1.14-.552 1.775-.768.088-.588-.353-.616-.383-1.078.493-1.084.51 1.395 1.106 1.421-.048.426-.646.323-1.066.389.19.135.57 1.746.733.707.703.59-.906 1.498-1.424.397.672 1.118-.106.19-1.058.75 1.237-2.26-1.009 1.51-1.782.406-.315 1.311 1.624.666 1.431-.035 1.078.212-.324.782.033 1.448-.54-.406-.912-.397-1.431.035.373 1.006.942-.548 1.439.327.418-.068.288-.667.335-1.095.533.176.912.515 1.448.69.195 1.132-.943.98-1.034 1.836.073 1.34.542.898 1.448.689.038-1.182-.88-1.722.675-1.828-.222.353-.423 2.134.033 1.449 1.091.516-.773 1.102-1.042 1.474.254.286.579.978.025 1.086.218.813.547-.453 1.082.336.272-1.031-.526-.926-.398-1.801.977.796 1.81-.587 1.05-1.113.716-.616 1.981 1.342 2.203 2.482-.606-1.188-1.087-.18-1.05 1.112.575-.746 3.058-.872 2.89 1.016.418-.069.287-.667.333-1.094.63.314.954 1.246.398 1.8-.976-.17-.898-.268-2.163-.67.11 1.311 1.806 2.26 1.146 3.23.46-.445.56-.153 1.074-.025.484-.125.277-.914.326-1.457-.978-.621-.657 1.61-1.066.388.058-.31-.148-.337-.367-.353 1.88-1.948 2.4-1.223 4.956-2.657-.828-.24-1.543-.224-2.18-1.395-.778-.042-.134 1.288-.318 1.819-.938-.365-.55-2.135-1.49-2.5-.417.069-.286.668-.333 1.095-.733-.86-.573-.35-1.805-.68-.184-.769.495-.702 1.057-.75-.328-.633-1.158-1.03-.398-1.802-.939-.079-1.537.17-1.408 1.122-.498-1.573-1.838-2.253-2.237-3.931-.414.428-1.257.441-2.14.415.583-.617 1.708-.713 2.115-1.5.838.224.985 1.179 1.824 1.404.68-1.368-.333-1.757.275-3.63.54.295.79.893.758 1.793.407-.138.893-.659.34-.732.335-1.126.61.77 1.092.697-.224.492-.75.693-1.415.759 1.641 1.984 1.955 1.587 3.628 2.085.92-.11-.506-.61-.033-1.448 1.223.864.414 2.773.064 2.896.362.482 1.219.44 1.457 1.051-.3.996-.825-1.082-1.432.035.334.634 1.464.426 1.114 1.784.365.576.974.81 1.44.327-.082-1.048-1.668-2.409.303-2.542-.583 2.97 1.593 4.972.868 6.86.363.481.972.7 1.457 1.051.242-1.122-1.244-.41-.757-1.792.712-.013.478.977 1.449.69-.017-.353-.445-.272-.724-.346.08-.747 1.326-.373 1.408-1.121 1.181.348-1.709 1.707.749 1.431-.05.425-.647.32-1.066.388.196.287.386.579.382 1.077a32.4 32.4 0 0 0 1.05-1.112c.68.676-1.047 1.326 1.107 1.422-.47.61-.889 1.269-1.76 1.491.087-.649-.355-.734-.365-.352-.587-.343-.845-.946-.39-1.44-1.24-.015-.48 1.898-1.384 2.207-1.592-2.11-1.154 2.6-2.116 1.5.366 1.466 2.211 1.364 2.22 3.207.621-.347 1.23-.704 1.035-1.837-.382 2.034-2.147-2.407-.781-2.878.612.22.242.826-.342.733 1.935 1.31 2.617.554 3.963.99.128.831-1.027.427-1.05 1.112-.145 1.812 2.066.094 1.115 1.784.436-.17.725-.482.691-1.105 1.107.064 1.127 1.277 1.831 1.768-.144.54-.462-.132-1.074.026-.496 1.39 1.602.032 1.107 1.421.871-.847 1.16-2.803.992-3.646-.438-.513-1.776-.506-.382-1.077-.218-.814-.549.452-1.082-.336-.558.17-.28 1.146-1.416.759.135-1.02.746-.446 1.766-1.13-.45-.73-1.297-2.284-.797-3.603-1.2.025-1.925-.896-3.279-2.455 2.158-.524-.47-1.536.643-3.276-.117-.74-.971-.7-1.456-1.052 1.07 1.029.062 2.087.797 3.603-.974-.079-.868-1.304-1.822-1.404-1.202-.866 1.216.849.7-.74-.601.45-1.045-1.915-.025-1.088-.055-1.176-.502-1.938-1.48-2.137 1.027-2.026-.26-4.063.587-5.81-.098-.39-.72-.228-.733-.706-.43 1.848-1.54.856-2.824 1.88.682.628-.27.927.048 2.172-1.574.526.127-1.922-.733-.707-1.32-.537.821-.56.327-1.457-.634-.602-.937.08-2.157-.31.867-.436-.576-1.827-.365-.352-.84-.073-.242-1.585-.04-1.81.339.257.557.645.74 1.067.308-.335.038-1.069.309-2.18-2.097-.252-1.108 2.472-3.539 1.898.708-1.555-.015-.61-1.082-.335.211-1.343.756-2.575.276-3.63l-1.432.035c-.283-1.1.337-1.328.31-2.181-.36.244-.352.842-1.058.75-.01.989.612.715.031 1.449-1.276.22-1.702-2.367-1.138-2.87-.337-.878-2.007-.344-1.83-1.767 1.012.14 2.538 2.062 3.23.284.57.508.739 1.44 2.172 1.034l.024 1.085c-.606.148-.68-.266-.73-.706-.89.169.008 1.404.738 1.068.691-1.39.658-2.882-.089-3.982a12.067 12.067 0 0 1 1.832 1.767c.863-.386-.737-1.585 1.04-1.475-.462-1.093-1.353.563-1.797-.318 1.171-2.481-4.6-3.654-3.621-1.723 1.11.034.378-.225-.032-1.448l-.716.017c.241-.298 2.682.627 3.613 1.36-1.582.292-.199 1.387-1.017 2.56-.853-1.071-.027-1.614-1.449-.687.033-.9.027-1.76-.757-1.793-.179.823.38 1.655-1.065.389-1.035.34-.391.55-.326 1.456-1.798-2.029 7.937-6.061 7.811-3.089 1.758-.37 1.506.578 2.539 1.387.499-.14.016-.639-.375-.715.19-.527 1.783-1.353 1.782-.406.162-1.103.466-.382 1.791-.044-.27 1.52.733 1.693.781 2.879.943.084.25-1.412 1.407-1.121-.001.619.287.931.74 1.069-.908.302-1.334 1.073-1.017 2.56.31.334.887.218 2.156.31-.439.949-.715 1.155-1.774.767 1.168 2.346 2.042 5.002 4.784 5.679a33.381 33.381 0 0 0-1.098-1.06c.034-.902 1.21-.136 1.432-.035.01-.988-.613-.714-.033-1.448-.446.506-1.679.536-2.148.053-.06-.65.422-.775.326-1.457-.328.273-.528.671-.692 1.103-1.325-.413.82-2.201-.414-2.525-.996.38.542.953-.326 1.457-1.941-.895 1.184-2.557.643-3.276.212-.854.492.915.032 1.447 1.063-.746 1.282-2.305 2.808-2.603-.074-.292-.367-.353-.374-.716-.422.42-.626 1.05-1.774.768.5-.542.494-1.414-.74-1.069.603-.362.759-1.156 1.034-1.836-.075-.291-.367-.352-.375-.715-.592 1.036-.424.85-1.408 1.12-.021.684.497 2.629.757 1.794.458.07.493 1.069.025 1.086-.24.006-.479.01-.717.017-1.666-2.598 1.013-5.115.62-4.362l1.074-.026c.031-1.27-1.903-.579-2.14.415-1.84-.42-.356 1.064-1.05 1.112-1.072-1.333 6.7-4.223 6.785-.89-.819-.244-2.624-.053-3.205.802 1.049-.05 1.31-.86 1.757-1.491.816.246.814 1.361 1.822 1.403-.108 1.58.332 2.003 1.466 1.414-.062.295-.352.37-.343.733.289-.076.349-.372.709-.38-.03-1.329-1.286-1.357-1.84-2.128-.184-.77.497-.702 1.058-.75-1.594-.716.991-.225.358-.01.196.288.387.58.383 1.077 1.403-.515 1.165 2.062 2.586 3.56-.051 1.515-1.34-.378-1.773.768.257.34 1.625-.222 1.814 1.043.662-.072.193-1.232.684-1.466.339.197.564.994.724.344.074.584.683.434.757 1.793-1.415.095.102-.559-.741-1.069-.943 1.038 1.203 3.272-.27 3.992.076.291.368.352.375.715-.257-.868 1.406-1.334.667-2.19.62-.87 1.437 1.17 1.132 2.508-1.446-1.151-.017.687 1.09.698-.164.925-.579 1.418.748 1.43-.354.485-.321 1.343-.676 1.829.336.395.669.097 1.798.318-.183.295-.36.596-.333 1.094-1.33.42-1.04-.873-2.165-.67.467-1.159.052-1.214-.056-2.536-1.393-.281-.55 1.596-2.124 1.14.66-.663.763-1.439-.049-2.173-.332.115-.313.987.024 1.086-.218.62-.817.247-.723-.345-.314.231-.631.454-.716.018-.918 2.419 1.539 2.34 3.287 2.818-.199 1.123-.6 2.856.423 2.887-1.126.82.297 3.406-1.019 2.56.24 1.352 1.374 1.757 1.855 2.853.433-1.823-.594-2.463-1.162-3.956.962-.183 1.72.28 2.18 1.395.547-1.265-.325-.865 1.424-.396-.4-2.19-2.689-.097-2.92-2.464 2.097 1.29.384-1.258 2.122-1.14.402 1.393-.152 1.496.416 2.526.507-.443.502-1.796 1.065-.388a1.827 1.827 0 0 0 1.05-1.113c-1.555-.756 1.013-1.538.277-3.629 1.914.967-.577 2.293.448 3.974.407-.55 1.477-.463 1.399-1.484.897.487.66 1.233.407 2.164 1.793-2.84 1.311-3.621.22-6.163-1.093.51.703 1.594-.31 2.182-.687-2.774-1.29.726-2.196-2.121.678-.172.882-.801 1.773-.768.086-.955-1.394-.25-1.106-1.421-.611-.119-.669.298-.7.741-.938-.41-.704-1.222-.406-2.163.888 1.621 1.011-1.24 1.018-2.56-1.485.887-.356 1.154-2.499.422.167.565 1.134.282.749 1.43-1.931-.49-2.473-4.47-1.561-5.756-.768-.15-.671.533-.692 1.103-1.15.476-.3-1.164-1.449-.69-.03-.618.245-.943.692-1.103-1.873.35-2.044-2.247-3.628-2.084.071-.64.597-.84 1.415-.76-.172-2.004-.724-1.33-1.074.027-.417-.049-.635.095-.707.38-.75-.983 5.433-1.025 6.46.566-.856-.511-.683-.748-1.798-.318-.135.76.267.953.39 1.44.449-.101.345-.73-.016-.725.208-.89 1.672-.096 1.798.318.288-.075.348-.371.708-.38-.213-1.009-.57-1.558.684-1.465-.381.851.098.968-.676 1.829.16-.017 1.56.789 1.798.317 1.157.69-.69 1.426-1.766 1.13.967-1.069-1.23-.873-1.822-1.404-.294 1.177 1.179.48 1.456 1.05-.984.232-1.087 1.312-1.383 2.208.024.851.973-.156.7-.741.755.837-1.135 2.744.788 3.24.406-.078.19-.368-.008-.362.182-.823.569.426 1.067-.388-.101-.636-.635-.81-1.449-.69.884-1.522 1.465.603 2.856-.431-.734-.72-.114-.962.326-1.457-.22-.814-.549.452-1.082-.336.08-.749 1.583-.125 1.407-1.121.703.137-.562 1.048 1.09.699-.945 1.213-1.72 2.59-2.416 4.043-.042.908.821.858 1.106 1.422-.144.54-.461-.132-1.074.026.33 1.008 1.881.724 2.538 1.387-.515.793-1.019-.372-1.415.759.448.156 1.801.794 1.122 2.146.707-.382.53-1.615 1.757-1.492-.145.449-.441.754-1.058.75.206 1.036 1.597 2.73 2.547 1.749.046 1.038-.06 1.93.448 3.974.473-.285.587-2.694.3-2.544-.134-1.129 1.056.896 1.067-.388 1.113.335-.763.616-.692 1.103.169.535.455-.153 1.074-.026-.883 1.065-.356.638.04 1.81-.983-.239-.704.737-1.415.76-.093.738 1.033-.1 1.066-.388.504.115.044.637-.342.732.678.682.662.27.39 1.44 1.001-.407.414-1.446 1.774-.768-.466-.793-1.661-.94-.398-1.802-.167-.442-.475-.732-1.09-.697-.06-.65.42-.774.325-1.457.421.048.316.652.382 1.077.627-.102.802-.643.683-1.465-.098-.454-.72-.348-.715.017-.643-2.478 1.883.859 1.465 1.414-.148.53-.316-.03-.717.016-.047.792.319 1.145 1.098 1.06-.145.45-.44.755-1.057.75-.351 1.36 1.355.542 1.114 1.785-.803-.672-1.814.605-2.848.794-.487-.948-1.881-.36-1.114-1.784-.359.244-.352.841-1.058.75.374.497 1.698 1.868 2.172 1.034.338.515 2.565 2.379.406 2.163.386.799 2.404.227 2.133-.776.303-.074.34.132.365.353-.058.31.147.339.367.353-.06.413-.354.21-.359.01-.735.116-.05 1.604-1.04 1.473-.152 1.148 1.779.091 1.464 1.413 1.317-.837-.93-.948-.408-2.164.726 1.544 1.862-.405.701-.74.942-1.849 2.464 1.815 1.432-.035-.329.273-.528.671-.692 1.103 1.791.66-.033.54.382 1.078-.514.137-.744.387-1.04 1.474-1.537-.654-2.271-2.71-3.597-.637l-.033-1.448c.51.018 1.016.035 1.066-.388-1-.275-1.687-.521-2.514-.301.713 1.183.154 1.568 1.123 2.145-.537-.077-1.113.84-1.782.406.074.292.367.353.374.716.866.127.763-.68 1.782-.406-.878.57-1.234 1.643-1.001 3.285.01-2.269 1.53-.754 1.033-1.837 1.165-.847 1.137 1.46 1.807.68 1.091 1.077-2.125 1.003-1.734 2.579-1.193.296-3.383-2.237-1.472-1.776-.642-.722.25-.715-.39-1.44-.736.119-.308 1.358-1.043 1.475-.165 1.288 1.288.86 1.123 2.147-.348-.002-.288-.436-.374-.716-.417-.048-.635.095-.708.38-1.005.02.83-1.009-.732-.707.593-1.13-.691-3.705 1.367-2.931-.473-.734-.612-1.822-1.83-1.767.073-.849 1.568-.246 1.79-.044-.006-1.352-2.26-.323-2.54-1.386-.926.167-1.055 1.107-2.123 1.138-.407-1.756-1.016-1.095-2.538-1.386.605 1.408-.253 1.553.423 2.887 1.163-.673-1.007-2.364 1.025-2.199-.618 2.634.99 3.39.48 5.423 1.304.314.328-1.572 1.032-1.837.67.893-.003 1.495 1.123 2.146.273-1.114.525-2.775-.804-3.965-.533.328.11.54-.327 1.457-1.236-.737-.157-1.048-.048-2.173a.848.848 0 0 0 1.416-.758c.538.294.79.892.756 1.792-1.127-.865-.305 1.826.399 1.802-1.518 1.225.1 2.398.455 4.335.098-2.743 3.41.595 4.24-2.639.294.245.993.54 1.073-.026.401-.048-.3 2.888-1.033 1.836l.016.724c1.002-.441.307 2.134 1.84 2.129-.581.734.041.46.031 1.448-.29-.062-.365-.354-.724-.345.41.436.328.736-.341.733.656.294 1.007.909 1.813 1.043-.413 1.106-1.372-.223-1.797-.32.414 2.363 3.848-.642 3.628 2.086-.641.062-.764-.425-1.44-.327 1.039.474.025 1.65 1.83 1.766-.655.706-.018.91.04 1.81.36-.244.352-.841 1.06-.75.89.407-.704 1.385.397 1.802-.248.65-.65.068-1.073.025.074.293.367.353.374.716 1.4-.502 1.081-.61 2.49-.785-.42.486-.127.573.024 1.086.627-.34.423-1.48 1.765-1.13-.33 1.098-1.23 1.647-1 3.285.327-.274.527-.672.692-1.104-.004 1.244 2.16 5.53-.922 6.905.796-.767-.295-3.355.994-3.646.453-.92-1.687-.839-.39-1.44-.123-.488-.904-.278-1.44-.327.354-.485.32-1.343.675-1.828-.316-.53-1.165-.496-1.806-.68-.698.893.684 2.72.089 3.982.822-.29 1.634-1.483 1.798.32-.292-.187-.59-.365-1.083-.337.37.473.615 1.078 1.107 1.422-1.033.846-.54-.882-1.456-1.051-.608.392-.397 2.13-1.408 1.12-.088.588.352.616.383 1.078.315-.168.633-.333.7-.742.136.869-.357 1.214.763 2.155-.291-.184-.589-.363-1.082-.336z" fill="#FFF"/></g></svg>