<svg width="1440" height="663" xmlns="http://www.w3.org/2000/svg"><path d="M1100.08 28.2l.171.202c.64 1.043 1.368 2.045 2.135 3.03l.28.126a37.99 37.99 0 0 0 2.845 2.749l-.537.58.81-.882c.08.071.173.128.255.197.516-.511.99-1.052 1.352-1.642l.113-.055a7.769 7.769 0 0 0 1.255-2.395l.052-.22c.34-1.004.485-2.105.439-3.245l-.142-.237c-.17-1.18-.533-2.366-1.02-3.516l1.134-.428-1.526.575a20.07 20.07 0 0 0-1.563-2.819l-.079-.198c-.843-1.337-1.808-2.46-3.006-3.414a.236.236 0 0 1-.122-.025c-.12-.117-.237-.256-.366-.36l-.273-.17c-.281-.168-.576-.287-.863-.418l-.344-.063-.237.114.077-.3-.4-.211c-.284-.05-.573-.12-.836-.112l-.007.017a2.687 2.687 0 0 0-.926.014l-.008.067-.048-.06c-1.811.294-2.711 2.162-2.41 4.46l.137.185.02.215-.024.501.04.327.021.12c.147.57.33 1.143.57 1.693l-.066.227c.483.859.914 1.737 1.48 2.545l.012.136c.455.933 1.039 1.806 1.605 2.69zm38.735 21.045l3.9 1.193-.723 2.415-.087.172-4.806-1.168-.391-.158c-1.506-.65-3.057-1.913-4.514-1.783-1.513.128-2.53-.511-3.746-.914l-.2-.178-.35-.19-.324-.333-1.013-.474-.32-.078c-.07.564-.283.897-.88.523l-.222-.104-.529-.231-.168.055-.98-.622-.147-.034-1.858-1.027-.14-.11-.96-.431a.193.193 0 0 1-.023-.114c-1.87-.529-3.75-1.1-5.585-1.814l.02.058-.055-.071-.922-.351c-.17-.07-.2-.475-.287-.718l-.105-.097-.057-.02-.051-.035-.339.182.125-.298-.387-.852-.004-.001-.958.3-.214.257c-.027-.068-.096-.187-.08-.197.08-.068.183-.109.278-.16-1.081.395-1.857-.41-2.726-.786-.144-.056-.228-.254-.337-.384l-.212-.143c-.4-.279-.778-.58-1.162-.88l-.061-.03-.045-.052-.768-.666-.097-.094c-.598.2-.784-.137-.952-.49-.038.017-.052.035-.1.053l-.237.105-.561.252-.085.169c-.407.094-.796.206-1.2.27l-.14.077c-.72.203-1.448.344-2.17.46l-.182.004-1.058.232a.17.17 0 0 1-.088-.079 27 27 0 0 1-5.851 1.33l.044.044-.081-.042-1.01.07c-.19.013-.403-.338-.597-.518l-.135-.037-.067.007-.061-.007-.23.314-.015-.325-.723-.642-.76.645-.093.321c-.057-.052-.168-.131-.162-.148.054-.094.13-.172.2-.255-.858.831-1.916.282-2.885.257-.158-.006-.311-.156-.468-.244l-.254-.061-1.418-.485-.068-.01-.062-.038c-.32-.135-.645-.242-.956-.402l-.12-.067c-.76.54-1.028-.32-1.49-.57l-.24-.224c-.905.596-1.38-.42-2.065-.63l.121-.245-.112.154a32.845 32.845 0 0 1-4.618-2.489l-.338-.291c-1.27-1.22-2.125-3.046-3.486-3.686-1.41-.724-1.97-1.86-2.704-2.96l-.055-.266-.177-.372c-.025-.15-.03-.312-.042-.469l-.466-1.04-.188-.276c-.442.367-.831.456-1.057-.232l-.082-.237-.216-.563-.164-.09-.253-1.163-.085-.132a26.975 26.975 0 0 1-.46-2.092l-.007-.178-.273-1.01a.174.174 0 0 1 .076-.09l-2.19-5.26-.028.053.015-.084-.37-.846c-.068-.153.21-.446.317-.673l-.008-.132-.025-.052-.015-.056-.374-.085.3-.13.299-.855-.923-.36-.334.07c.02-.063.044-.187.065-.187.105-.004.212.023.318.038-1.104-.3-1.16-1.29-1.718-1.926-.087-.102-.05-.295-.08-.443l-.11-.192a10.539 10.539 0 0 0-.607-1.06l-.038-.038-.016-.056-.46-.718-.056-.099c-.89.223-.637-.583-.958-.923l-.116-.264c-.942.364-1.054-.571-1.636-.799l.182-.3.024-.046.048-.077-.017.025-.178.303-.128-.035-.096-.012.081-.08h-.003l.046-.007.047-.183c-.522-.139-1.039-.272-1.556-.316l-.116.145-.101-.197-.181-.097-.194-.04c-.295-.278-.61-.588-.96-.829l-.096.254c-.516 1.011-.557-.144-.738-.26-.336-.267-.644-.688-.888.04l-.352.34-.207.17-.07.006-.029-.03c-.247.437-.475.14-.788-.091l-.159.106.04.397.006.018-.007-.003c-.17.016-.323.062-.499.092l-.566-.534.027-.185-.192-.43c-.052.087-.085.188-.151.25l-.559.753a8.36 8.36 0 0 1-.145-.744l-.26-.52-.578-.062c.22-.857.594-2.06 2.035-1.926.267-.075.53-.167.803-.192l.39.118-.39-.118a9.208 9.208 0 0 1 2.35-.437l.205.13c2.06.108 3.954.79 5.624 1.76l-.059.097a14.362 14.362 0 0 1 3.126 2.406l.149.207c1.324 1.435 2.21 3.093 2.932 4.698.044.024.08.057.104.1l.166.588.157.35.476 1.06.224.374.272.146-.283.15.117.559.413 1.056.019.003.402 1.326.072.01-.046.073c.768 2.568 1.433 5.087 2.508 7.34l.194.149.098.215.138.535.126.335.049.119 1 1.621-.02.25c.618.76 1.213 1.535 1.902 2.227l.042.129a21.293 21.293 0 0 0 2.085 2.317l.195.168c.847.863 1.71 1.748 2.694 2.492l.29.062c1.04.762 2.187 1.386 3.335 1.984l.182-.368c.993.487 2.016.91 3.066 1.26l.183.114c1.512.547 3.063.94 4.636 1.239a.316.316 0 0 1 .128-.032l.532.135.346.028 1.053.056c.129-.012.26-.022.392-.053l.21-.204.04.319.522.076 1.047-.048.008-.013c.432.013.856-.051 1.289-.073l.024-.066.058.06c2.51-.191 4.996-.72 7.2-1.776l.138-.192.207-.096.215-.062c-1.174-.959-2.32-1.958-3.381-3.058l-.256-.367c-.985-1.42-1.394-3.4-2.59-4.296-1.249-.97-1.555-2.199-2.052-3.407l.001-.269-.092-.396.037-.463c-.099-.38-.188-.76-.256-1.136l-.118-.324c-.522.255-.929.252-.954-.515l-.028-.264-.065-.625-.138-.14c.022-.422.075-.844.142-1.26l-.027-.166c.078-.776.229-1.553.516-2.3l.088-.175c.128-.375.257-.75.448-1.11.04-.02.079-.03.12-.022.654-2.136 3.075-3.825 5.608-3.652l-.047-.049.098.052c.416-.001.8.076 1.206.142.218.048.344.461.494.7l.132.078.07.018.06.033.34-.196-.098.312c.176.286.338.568.466.865.326-.093.672-.185 1.01-.246l.232-.24c.033.075.103.202.087.212-.093.06-.205.09-.304.131 1.196-.302 1.955.727 2.772 1.321.138.094.185.318.265.483l.18.207c.332.41.65.826.934 1.265l.053.054.023.067c.198.315.337.615.506.922l.058.127c.954.054.622.878.811 1.37l.033.327c1.088.138.84 1.204 1.197 1.83l-.331.13-.01.004.084-.032.19-.04c.761 1.596 1.327 3.333 1.533 5.188l-.025.475c-.146 1.9-1.372 3.628-1.547 5.13-.198 1.658-1.314 2.544-2.308 3.46.02.01.035.024.054.038l.145.163c1.317.971 2.668 1.904 4.082 2.75a.247.247 0 0 1 .134.018l.45.347.31.172.987.468.398.118.283-.084-.098.303.447.312 1.008.421.012-.011 1.22.58.056-.045.022.082c2.395 1.102 4.871 2.046 7.395 2.914l.255-.028.238.082.517.286.355.149.124.053 1.94.604.162.204 3.018.743.112.088 3.14 1.033.27.063 3.622 1.354.302-.027zM346.13 633.75c.192.5.337 1.01.492 1.53-.215-.067-.54-.064-.614-.22-.18-.358-.245-.792-.387-1.276.287-.016.493-.075.509-.035zm-1.026 1.302c-.125-.132-.357-.16-.54-.236.05.193.102.39.172.623.207.06.393.111.578.162-.063-.187-.083-.421-.21-.549zm-.542 1.934c.015.093-.003.192-.015.42-.115-.122-.182-.154-.182-.19.011-.1.047-.203.074-.304.044.023.118.04.123.074zm-.612-.563c-.067-.369-.11-.625-.181-.867-.01-.031-.17.006-.256.006l.184.696c.02.057.12.08.253.165zm-1.164.518c.087-.054.079-.286.173-.711-.326.31-.469.43-.587.566-.104.116-.186.257-.277.384.234-.074.493-.108.691-.239zm-5.646 2.965c-.866-.549-.383.86-.999.701l-.241-.306c-.032.1-.102.21-.085.297.035.168.118.322.181.477.427-.23.865-.458 1.275-.72.044-.031-.02-.378-.13-.449zm-1.8.775h-.12l.11.042-.17.466c-.174.383-.179.67.335.365.023-.011.028-.051.022-.114-.008-.039-.016-.09-.025-.141-.047-.188-.107-.444-.153-.618zm.968 2.503l-.243.535c-.183-.063-.389-.094-.527-.208-.074-.054-.008-.248-.011-.36.317.012.549.024.78.033zm-4.084-.037c-.313.006-.592-.067-.755.035-.134.084-.132.376-.194.575.21.032.489.158.624.07.158-.098.195-.381.325-.68zm-8.062 3.604l-.09.172-.296-.171-.025-.001-.031-.024-.254-.092.059-.06.195.152.038.013.018.012.386-.001zm-2.401 1.358c-.23-.016-.37-.069-.459-.023-.107.057-.176.193-.257.297.126.021.262.09.38.06.097-.027.173-.162.336-.334zm-1.983 1.51c-.453-.117-.833-.233-1.23-.288-.056-.009-.196.296-.299.457l1.347.425c.041-.126.079-.252.182-.594zm-2.256.047l-.712.575.001-.004-.024-.002-.535-.316-.06.33.595-.014.019.009.004-.003.443.894.293-1.11c.027-.117-.01-.24-.024-.36zm-1.652 1.642l-.275.356.002.008-.008-.001-.032 1.154c-.08-.134-.253-.272-.228-.398.045-.252-.708-.705.26-.756l.006-.007-.116-.421.391.065zm-5.912 3.443l-.008.072-.066.034-.088.045-.35-.278-.145.164.494.118.09-.05.065-.033.008-.072zm-.147.054c-.043-.096-.147-.161-.305-.317-.052.21-.11.34-.074.377.083.085.213.124.327.183.019-.082.08-.183.052-.243zm-.691-.595l-.644-.271c-.103.304-.22.614-.264.916-.013.07.191.146.279.212.24-.33.437-.593.629-.857zm-1.441.869c-.012-.056-.206-.035-.394-.054-.003.225-.03.391.022.51.019.041.32 0 .332-.034a.675.675 0 0 0 .04-.422zm-1.19.856c-.16-.144-.404-.188-.615-.27l.213.48.561.274c-.052-.164-.05-.385-.159-.484zm-1.813 1.755l-.006-.01-.007-.005-.024-.29-.205.089.229.2-.002.008.004.001.01.007.394.464.204-.24-.597-.224zm-1.644 3.598c-.091.004-.183.048-.273.08.036.075.062.195.118.217.064.027.156-.034.286-.066-.066-.122-.094-.23-.13-.231zm43.426-31.886l2.342 1.626-.37-.218c-.008.105-.042.29-.01.302.166.052.348.055.526.075a41.123 41.123 0 0 1-4.287 5.637l-.46.392c-1.838 1.495-4.38 2.393-5.57 3.977-1.283 1.648-2.857 2.22-4.406 3.056l-.098-.555-.255.61-.515.187-.688-.502.078.546-1.415.566-.39.219c.413.511.472.954-.445 1.206l-.346-.217.038.335-.738.285-.239-.274.114.468-1.514.367-.224-.283.043.383-2.748.795-.672-1.842c-2.612 1.406 1.114 1.017.436 1.873l-1.325.489-.163-.437.039.365-6.96 3.57-.076-.026-.376-.379c-.03.036-.092.103-.092.103l.436.324v-.004l.068.003-1.149.593c-.212.11-.618-.143-.935-.224l.097-.382c-.052.005-.15.009-.15.009l-.124.405-.073.039-.079.029-.292.121-1.171-.193-.01-.067-.002.064.012.003-.49 1.123-.108-.046c-.44 1.315-1.756 1.564-2.568 2.338-.13.12-.368.121-.561.184l-.275-.175.032.342c-.478.302-.876.661-1.276 1.015l-.556-.558-.01-.015.007-.067-.11-.038-.01-.011h-.017l-.404-.166-.023.21.427-.044.015.008.012.003.103.105v.004l.01.011.444.657c-.304.226-.542.523-.829.787l-.176-.564.117-.063-.121.027-.652.189.72.51c.398 1.002-.602.99-.928 1.532l-.687.013.4.235c.621 1.014-.398 1.56-.496 2.409l-.387-.094-.086-.088.026.074-3.068-.73c.392-1.755 1.094-3.468 2.127-4.994a.299.299 0 0 0 .12-.024l.127.02-.013-.182-.005-.087c1.583-2.18 3.817-3.75 5.981-4.818l.39.335.129-.185c-.116-.108-.249-.195-.38-.29l.78-.287.376.052.092-.288 1.395-.703-.292 1.211-.008-.002-.007.012-1.303.965.597.215.706-1.18.015-.01c.606.102 1.289.46 1.781.278 1.922-.698.15-1.368.12-2.067l1.383-.663.447.09.026-.076-.473-.036 1.74-.723c-.021.15-.03.26-.03.26l.586.08c.018-.061.062-.176.043-.184-.136-.057-.284-.117-.481-.201 3.402-1.4 6.778-2.762 10.057-4.272l.231-.247.314-.142c1.457.744-.62 1.578-.41 2.344l-.124.06.288.209.341.53c.286-.17.82-.403.804-.519-.238-2.008.93-1.888 2.365-1.622.229.04.541-.115.807-.195-.225-.095-.612-.15-.652-.31-.385-1.54-1.923-.126-2.657-.72l.477-.19.32.146-.15-.219 2.414-1.263.329.012a62.138 62.138 0 0 0 3.459-2.254c.024.135.034.275.076.409 0 0 .142-.01.216-.019l-.112-.434c1.23-.763 2.447-1.555 3.594-2.432 1.159.083-1.012 1.38.376 1.391l.005-.003 1.45-.532-1.56-1.094a33.602 33.602 0 0 0 3.92-3.182l.64-.024-.472-.332a38.44 38.44 0 0 0 3.348-4.15z" fill="#E0E3ED" fill-rule="evenodd"/></svg>