<svg width="1056" height="792" xmlns="http://www.w3.org/2000/svg"><g fill="none" fill-rule="evenodd"><path d="M536.31 186.885c-.78.789-3.704-2.714-1.507-3.155.8.763.205 1.341.695 2.062 1.03-.852-.443-2.029 1.27-2.792.787 1.419-.703 2.538-.459 3.885zM577.18 242c-.168-1.05-.604-2.127 1.038-3 1.466 1.178.729 2.14-1.037 3zM514 244.214c-.18 2.484-3.59-1.674-5-2.094 2.174-.72 4.21 2.032 5 2.094zM480.925 232c.548 1.712-2.066.682-2.896 2-.26-2.162 1.26-1.128 2.896-2zm-45.866-29c.045.647.101 1.29.848.946.66 1.607-2.408 1.276-2.907-.314.663-.047 1.327-.103 2.06-.632zM418 200.048c1.537-.452 3.061 2.446 1 2.952-1.765-1.136-.44-1.945-1-2.952zm96.713-65.22c-2.72-.134-3.097 4.15-1.37 4.357-.449-1.572 3.68-2.542 1.37-4.357zm5.287 6.14c-5.28 1.577-2.936 2.495-7.079 1.793-.318-.798.255-1.48-.159-2.29-.83.646-.956 1.387-.685 2.18-2.167-.846-3.544-2.778-4.547-5.137.79-.653 1.584-1.305 2.377-1.958-.833-1.437-2.135 1.122-2.907-.835 5.667-4.78 5.343-3.556 10.3-3.639 2.373 1.34-.14 5.207 2.695 2.625-.422 2.925-1.477 4.448.005 7.262zm30.572 37.555c-.167.85 1.254 1.896-.325 2.574-.753-.673-.192-1.186-.653-1.824-1.792.798.105 2.047-1.686 2.844-.558-2.037-2.326-1.005-3.972-.05-.769.777-.46 1.687.546 2.682-1.147-.127-1.711.838-1.576 1.985-.628.336-.654-.274-.38-.482-1.583-.305-3.556 2.484-5.06 1.56-.177-1.765 1.098-3.353.65-5.15-1.785-.4-2.822.861-5.116-1.5 1.323-.353 2.709-2.755.706-2.094-1.066-1.945 3.844.437 1.144 1.449 1.985 1.03.733-1.881 1.195-2.47-.63-.84-1.352-.97-2.122-.695.577-4.554 1.733-1.486 3.641-4.347.997 1.35 1.584.345 1.525 1.93.684-2.863 3.711-.883 5.55-1.935 2.06 2.515.03 3.192 3.157 3.002.319 1.136-.836.753-1.468 1.128 2.433.127 1.772 3.025 4.244 1.393zm4.829 16.915c-1.115.613-2.077.035-3.117.056.55.638.61 1.219.657 1.796.596-.112 3.928-2.006 2.46-1.852zm-2.62 6.557c-.735-.04-1.523.325-2.351 1.005-.624-.9-1.41-.55-2.023-1.531 2.737-1.183-2.414-1.847-1.258-.58-.897.342-.296-.755-1.149-1.427 2.852-.117-.704-.94.218-1.692 1.24-.967.884-.097 1.258.58 1.261-1.834 1.084-.458.325-2.536 1.786.2.827-.934.709-2.062 2.059 1.694 3.85-2.21 4.976-.69.25-.686-.373-1.476.71-2.062.68.702 5.641 2.247 5.522 1.953 1.395.43.317 2.862 3.282 2.112-.667 1.76-2.387.878-.818 2.906-1.033-.075-1.343.348-.6 1.217l-3.444 2.592c-1.866-1.39-4.677-1.175-7.164-3.009-.519 1.835 1.796 1.326 1.807 3.224zm-31.35-36.522c-1.336-1.306.803-2.192 1.304-3.276-1.1-.515-2.82-.234-1.525-1.9-1.707-.058-2.174-1.007-3.21.9.72-3.54 2.217-3.546 3.478-6.447 1-.894 1.87-.789 2.613.315-1.714-1.653.582-3.008 3.046-3.065 2.645 2.594 2.8 6.74 1.257 7.446.82.511 1.685.65 2.504 1.161.478-.626-2.94-2.474.052-3.855-.78 1.602.248 2.765 2.122.685 1.542 1.187-1.222 1.855.928 3.115-1.552.611-3.177 1.797-4.57 1.166-.893 1.102 1.187.293.653 1.795-1.221 1.208-4.432.442-4.298 2.486-1.373.075-3.319-3.186-4.354-.526zm57.477 69.415c.618-.336.644.276.375.484 1.224.944 2.31-1.69 2.034-2.372 2.766.737 5.266.069 7.502 2.69-1.82 1.61-.53 3.609 1.181 4.525-3.39 1.105-9.254-1.618-10.23 1.785-.894-1.34 1.235-4.208-1.77-3.286.684-1.273 1.572-1.62.908-3.826zm-12.352-15.134c-1.867-.293-1.141 4.284-3.767 2.984-1.158-1.784 2.675-.188 1.516-1.972-.963-.398-.605.691-2.25 1.014-.021-1.013.553-1.95-.055-3.036 1.107-.312.735.818 1.1 1.438l.943-.746c.858-1.111-1.143-.295-.63-1.811 2.588-.447.223-1.323 2.459-2.717.726.668.187 1.176.628 1.81.758-1.581.617-2.176 2.46-2.718 1 2.403 4.247 2.567 5.92 3.777.624 1.089-1.41 1.842-.785 2.93-1.564-.513-1.673-.128-2.721 1.387-.719-.813-.197-1.468-.996-2.29-1.519.672-.152 1.712-.312 2.557-.574.046-1.148.106-1.78.639.04-.716-.322-1.482-.998-2.288-1.175.572-.372 1.394.16 2.183-1.836.42-1.94-2.503-.892-3.141zm-22.367-36.688c.703-.374 1.223.926 1.811 1.607-2.185.893.23 2.435-1.956 3.327-.392-1.706 1.997-3.021.145-4.934zm-42.057-19.98c.925.968-1.59 1.529-2.101 2.327-.936-1.248.94-2.505 2.1-2.328zM500.357 156c3.447 1.635 2.392 3.676 6.643 4.226-.681.038-1.359.088-.996.741a57.907 57.907 0 0 1-2.656-.315c-.33.39-.108.847-.607 1.216 1.123.904 2.967 1.695 2.713 3.33-2.59.104-2.558 1.431-5.147 1.537-2.148-1.831-.303-3.187-.721-4.812-1.689 1.518-.951 3.324-.661 5.077-.633-.65-2.167-.412-3.708-2.59.604-.046 1.211-.105 1.88-.635l-.775-.95c-1.155-.869-.306 1.154-1.881.634-.034-.862-.384-1.762-1.441-2.747 1.284.119 2.308.72.608-1.217 2.626.207 3.29-3.044 5.92-.586.802-.906-1.109-2.136.829-2.909zm32.067 40.932c.746 1.228-1.706.445-2.287 1.007-.43.582-.023 3.355 1.385 2.752.974-1.506-1.689-.732-1.011-2.275.728-.07 1.35.712 2.18-.162.32.758-.257 1.404.16 2.172 1.295.012 2.462 1.052 3.99-.797.066.726-.717 1.345.159 2.17-4.955 3.018-2.755 2.92-6.697 5.193-.36-.617.558-1.077 1.062-1.588-1.57-.844-2.493 1.935-3.349 2.596 1.127-2.471-3.778-2.19-3.726-4.763 1.366.936.807.496 1.063-1.59-1.5-1.061-1.136.02-2.287 1.01-.357-1.233.334-3.011 1.648-2.809-.668-.423-1.378-.502-2.181.16-.734-.95.831-1.617-.533-2.646.657-.077 1.76.762 1.33-.266.445-.435 2.574 1.305 1.807-.636.861-.328.279.456.746.952.194-.132 2.952-.854 2.87-2.226 1.767-1.058.17 2.835 2.074.687.001 1.102.393 1.563 1.597 1.059zM522 200.692c-.66.669-1.823 1.265-1.401 2.089.693.978-1.298-1.523-1.599-3.44 1.103-.51 2.172-.712 3 1.352zm-2.502-19.903c-.698 1.204-.616 3.461-2.172 3.262.312.708 2.723.583 1.847-.655 3.043 2.14-3.406 1.464-1.899 4.619-1.148.32-.762-.833-1.14-1.465-.577 1.856-1.4 3.047-3.314 1.793-.066.729-1.113 1.333-.704 2.12-.456 1.953-.644-1.984-1.415-2.825-1.988.425.842-1.256 1.25.598.535-.595-.495-1.957-1.142-1.466 3.07-.696 1.177-4.05 1.353-7.333 1.303-1.017 2.265.716 3.586-.437-.166.862 1.251 1.92-.324 2.608 1.46 1.213.68-1.282 1.954-1.522 1.835 1.11-1.29 1.603.545 2.715.14-.72.695-1.386 1.575-2.012zm-7.627.211c.346.564-.283.587-.497.342-.86.699 1.006 1.697.554 2.442-1.143.683-2.042-.372-2.928-1.513.494-.32.86.273 1.271.537.52-.472-.287-1.09-.664-1.661.79-.293 1.462.236 2.264-.147zm44.533 65.43c-.704-.779-1.676 2.206-3.145.057 1.16-.918 2.127-.282 3.365-1.814-.63-.937-1.422-.573-2.042-1.593-1.722.678-.741 1.694-2.096 2.42-1.17-1.187.04-2.08.827-3.024 1.195 0 2.33.487 3.64-.442-.39-.47-.907.088-1.379.276-.362-.491.307-.855.606-1.265-.573-.194-1.146-.4-1.656-1.098.693-.76 1.22-.194 1.876-.66 1.185-1.112-1.347-.321-1.546-1.978-2.025-.306 1.577-.232 2.15.714.803-.942-1.726-2.298.827-3.023.42.35.171.617-.11.88 3.755-.97 3.338 3.648 6.18.764.07.753-.742 1.396.166 2.254-.99.759-1.686-.86-2.758.551-.033 3.251 6.854 2.072 5.52 6.04-1.026 1.04-1.667-1-2.648-.326-.567.786.691.48 1.16 1.482-1.681 2.786-2.719.686-5.349 3.355.862-2.238-2.974.19-.663-1.868-.553-1.112-2.825 1.03-1.103 1.65-.633.295-1.105-.722-1.765-.22.97-1.851-1.22-1.303-.057-3.131zM554 241.207c-1.062.522-2.171 1.46-3 .056 2.163-.9.434-2.299 2.103-3.262 2.795.704-2.43.71.897 3.206zm-81.327-74.903c.658 2.607 4.466-.931 1.777-.634.198.31.364.618-.102.844-.502-.537-1.01-1.014-1.675-.21zm9.57-5.236c1.349.92 1.36-2.538 3.192-1.746.326.61-.27.635-.472.372-.781 1.13 2.11.877 2.879.79.315.754-.252 1.399.158 2.165-1.688.663-1.079-.295-1.937-1.53-1.295 3.053-1.991 2.114-3.606 5.126-1.513-.327-.424-.637-1.467-1.9.484 1.777-.988 3.308-2.299 4.86-.045-.577-.105-1.156-.629-1.795-.24.685.356 1.476-.679 2.062.056-1.561-.508-.572-1.467-1.902-1.974.611.827 1.82-1.148 2.431-1.38-2.908-4.208-4.021-4.765-6.178-.09-1.576 1.728-.525 1.15-2.43 2.786.398.892-2.67 3.348.42-.073-2.715 2.115-.716 3.87-3.806.314.754-.253 1.398.158 2.165.866-1.913 1.51-1.849 2.091-3.171 1.363.437 2.653 1.467 4.185.525.327.61-.267.636-.47.371-.49 1.083-2.223 2.01-2.092 3.171zm31.6 39.728c-.482.35-.838-.296-1.24-.585-.97 1.436 1.758 1.772 2.586.318 2.148-1.032-2.275 2.746.648 1.81.07.73-.724 1.353.163 2.183-.663.036-1.323.088-.97.746-.621.332-.647-.274-.376-.48-1.566.848-2.806-.906-4.311-.53.369.41-.17 1.99.649 1.81-2.108 3.163-4.794 2.46-7.81 2.933.011-1.296.019-2.592-1.673-4.098.737-.068 1.369.716 2.21-.16-1.093-1.764-2.74.897-3.719-1.756 1.405-.561 4.215 1.3 2.422-1.863 2.218 1.625 1.383 1.432 4.687 1.008-.925-1.917-2.448.907-3.34-1.276 1.892-1.125 3.393.858 5.065 1.488-2.347-2.97 2.893-2.664 5.01-1.548zm-21.723-19.714c-1.29.868-.334 2.012-.813 2.981.595-.578 3.022.837 2.336-1.031-1.715.816-.346-1.405-1.523-1.95zm7.88 4.06c-.266.553-.54 1.107-.216 1.733-2.949-1.226-.77 1.438-2.551 2.767-.478-.895-1.118-.48-1.631-1.084-.31 3.931-2.129 1.703-5.159 2.443-.447-.455 1.338-2.625-.653-1.843.755-.828.61-3.889-.113-6.178-1-.404-.626.703-2.336 1.032.742-.482 4.1 1.109 1.904 2.437-.522-.505-.57-.952-.273-1.355-2.347.883-1.605-1.043-3.857-.918-.709.606 2.176-2.742.16-4.823 1.963-.406 3.995-1.364 5.703.267.512-.523-.281-1.21-.652-1.841.669-.04 1.333-.09.977-.76 2.425-.322 6.54 3.907 4.948 6.336 1.238.693 2.612.285 3.749 1.787zm37.46 57.551c-.15.737.742 2.065 2.326 1.975 1.077.975-2.37 1.399-.314 2.494-.65.037-1.298.087-.951.73-.867.336-.287-.743-1.11-1.404-1.083 2.079.05 1.978.796 3.9-1.841.765-3.113-.53-4.068 1.613.483-2.382-2.654-.823-2.222-2.806-1.937 1.598-1.336.636-1.215-.57-.972-.39-.61.673-2.272.988.168-1.575.58-1.037-1.005-2.234 1.407-.713 1.386-3.72-.425-3.431 2.07-1.136 4.707-1.276 6.073-3.904 2.252.117 3.677 1.539 5.284-1.043.422 1.07 1.685 4.386-.896 3.692zm-14.415-16.474c.616-.351.642.29.374.508 1.111 1.616 2.58.205 3.581 2.763-3.11 1.317-1.443.079-2.509 2.877-.937-1.794-2.51-1.122-2.246-3.045-1.114-.924-.295 1.232-1.815.679.66 1.76 1.646.757 2.351 2.141-1.886 1.27-3.275-1.677-5.236.23.694.26 1.492-.383 2.085.733-1.623 2.716-2.385-1.87-4.006.849.01-3.022-4.86-3.539-4.437-2.875-1.133-1.777 3.273-2.59 2.935-6.489 1.715-2.095 4.912 2.269 5.236-.23.728.034 4.387 1.648 2.245 3.045.395.336.855.11 1.23.62.26-.576.53-1.154.212-1.806zM551.7 267.3c.657.534 1.516-.535 2.299-1.01-1.856 3.397-3.593 2.915-4.918 4.576-1.367.731-.609-1.725.695-2.075-1.726-.246-1.308.289-1.125-1.435-.656-.121-4.205.259-2.406 1.863-1.687.802-.34-1.38-1.499-1.913 1.14-1.002 2.078-.403 3.156-.907.583-1.225-.897-2.704.907-3.778-2.066.016-1.257 5.696-4.705 2.876.478-.35.832.296 1.23.585.789-1.315-3.18-2.843-2.942-.796-1.383.609.853-1.85-1.393-2.765.621-.356.774-.77.588-1.224.416.864 1.51 1.918 2.249 2.87 1.272-.561-.03-1.443.693-2.075-.377-.455-.88.085-1.337.268-.905-1.255.908-2.52 2.032-2.342-.708 2.56 2.336-.73 4.76.156.633.727 1.197 2.004 1.98 1.542.588.583-1.699 2.851.16 2.181-.565.642-1.558 1.557-.424 3.403zM492 229.46c1.055-.154 2.021.425 2.899 1.737.23-1.49 1.557-2.84 1.42-4.376-1.17-1.353-2.815 1.237-3.884-.952 1.242-1.028.884-.103 1.258.617.99-2.116 2.086-2.37 3.718-1.35.562-.804-.684-.49-1.15-1.514.945-.929 4.972.922 2.79 2.636 1.736 1.343 1.146-.82 2.735-.564-.857-.256-1.677-.833-2.408-2.13.938-.4 1.625 1.251 2.734-.563-.828 3.484 3.437.245 3.557 3.644-.74-.003-1.443-.321-2.134-.727-.152 2.671 1.412 2.851 2.465 5.328-1.726-.422-3.51-.36-5.577 2.023-2.021-2.42-5.834-2.651-4.975.732-1.829-.751-1.512-2.265-3.448-4.541zm-27.17-49.523c.571-2.756 1.234 1.338 2.767 2.507-.539-2.422 1.21-.282 1.084-1.603 1.513-.828 1.22 1.492-.216 1.708 2.457.015 3.049 2.528 1.683 4.11 1.546.479.963-1.582 2.712-.535-.54 1.27-1.33 2.943 1.14 1.44-2.846 4.356-6.08 3.274-9.813 4.437-.275-.901-.166-1.754.323-2.562-1.545-1.093.152 1.674-1.57 1.976-.918-.98-.81-1.833.323-2.563-1.44 1.022-2.669.631-4.827-.156-.759-1.105.413-1.974 1.68-2.831-.704-.245-1.515.363-2.116-.692 1.128-.002 1.6-.395 1.084-1.603.732-.63 2.714 4.535 5.534 5.015.111-.614-.053-3.21 1.464-1.122-.438-2.564-1.866-1.953-2.767-2.508.363-1.95-2.595-1.538-4.287-4.428 1.663-1.54 2.858.619 4.23 1.385.222-.642.916-2.496 1.844-.642.425-.598.568-1.793-.272-1.333zm9.954 23.013c-1.234 1.502-1.975 1.471-1.996 2.347.617.198 4.954 5.44 4.573 1.01-2.177 2.428-1.214-.887-3.155-2.13.285-.397.922-.75.578-1.227zm10.199.42c-3.563-1.491-3.796 4.022-5.147 7.15-1.1-1.486-2.587.193-3.629-1.759-.422.67-.5 1.381.158 2.187-.603.286-1.052-.702-1.682-.212-.958-3.326-.883-2.355-3.683-4.797.94-.46.604-1.08.21-1.706 2.932.216 1.016-2.241 3.046-3.948l1.841 2.398c.323-1.115-.211-2.338 1.26-3.307.852 1.233 1.206.357.474-.375 2.08 1.164 4.428 2.298 2.84 4.692 1.915.895 1.39-2.086 1.63-2.827 1.166.105 2.89 1.144 2.682 2.503zm25.35 51.048c-.272.213-.245.84.38.496-.619-.825 1.14-1.35.703-2.152-1.445-.765-3.45-3.507-4.498-2.813 2.227 2.143-2.346 2.455 1.087 5.52.795-.495 1.663-1.605 2.328-1.051zm.16-4.912c2.302 1.007.742 2.31 2.549 4.358l.973-.773c-.383-.496-.056-.904-.271-1.38-.464.189-.972.75-1.354.277.602-.522.189-1.173 1.083-1.657-.856-1.407-1.81-1.994-2.98-.825zm-.97 7.948c.975-1.565 3.535 1.728 3.194-.94-.631.367-1.127-.365-1.625-1.103-.664.664-1.934 1.25-1.568 2.043zm6.662-.5c-2.72-.076-4.83 3.086-7.908-.107-.25.717.369 1.542-.704 2.154-1.033-1.477-2.748-3.04-2.547-4.359-2.247-1.34-2.762 1.903-4.442.334 1.68-.396 3.495-2.46 4.872-3.867-.739-1.142-1.9 1.147-2.816 1.438-.738-1.154-1.605-1.264-2.598-.33-.424-1.981 2.512-1.768 3.302-1.824.535-.606-.494-1.988-1.139-1.49.357-.42 2.954-1.973 1.57-2.042.084-2.771 3.262-.536 4.44-.335 1.032-.936-1.587-.749-1.896-2.482-.184 1.103-.618.801-1.462 1.16.372-1.725 1.57-2.648 3.032-3.203 2.189 3.69 4.883 3.246 7.045 7.17.404-.846.096-1.78-.544-2.76 2.306.895 6.007-.557 6.61 3.529-.72-.116-1.56.763-2.22.167-1.12.754 1.125 1.936 1.41 2.869-1.117-.276-3.24.586-.974.774-.024 2.314-2.523.52-2.493-1.212-1.21 1.88-.012 1.594-2.544 2.815 1.633.24 1.193-.315 2.006 1.6zm4.82 11.825c-1.339-2.962-4.132 1.5-1.48 1.154-.47-.87.815-1.187 1.48-1.154zm-2.91-1.704c.744.004 1.447.316 2.14.715.566-.788-.686-.481-1.153-1.484l2.469-1.927c.824.775.322 1.38-.11.88-.469.388.088.904.276 1.375 1.28-.337 1.706-1.173 2.91 1.702 1.357-1.17-.701-2.767-1.704-4.233.773-.827 1.375-.322.877.11 1.49-.03 3.037-.523 4.608-1.212.576 1.994 2.19 2.29 3.57 3.57.364.794-3.8 2.49-1.04 4.785-.348.418-.616.171-.878-.11-.469.39.087.905.274 1.376-2.096-.018-1.883-1.881-3.292-2.197-1.463.984.234 3.244-1.866.66-.439.69-.522 1.424.166 2.255-.35.418-.615.17-.878-.11l-.987.771c.059-1.724-.023-2.33-1.813-3.353-.511 2.318-3.332.256-4.664-1.922.732-.505 1.46-1.008 1.094-1.65zM484 206.068c-.72.95-1.271.387-1.813-.248-.534.602.293 1.39.682 2.117-.654.337-1.136-.817-1.815-.247-.411-1.607 1.635-4.15 2.946-1.622zm-41.49-22.708c1.252-1.01.572 3.379 1.823 2.368.344.686-.563 1.212-.936.738-.524.647.525 1.492.99 2.263.208-1.59 1.137-.979 2.342-1.844-.367-.45-.856.085-1.301.264.108-.984-.76-2.092-1.721-3.21 3.252-.77 5.192.773 5.42 4.102 1.42.96-.063-2.265 1.873-1.475-.073 1.274-.681 2.48-1.716 3.635-1.314-1.884-.516.13-1.77.633-.034-1.146.448-2.226.414-3.371-1.634-.04-.307 3.634-3.176 1.74-.675 1.387 2.077 1.314.888 3.106 1.988.505 2.535-.345 3.905-.793-.53 1.502-1.665 2.929-1.82 4.478-1.42.181-1.313-4.034-4.166-.524-.53-.923-.027-1.715 1.144-2.423-1.079-.168-2.126.18-1.928-1.527-1.222 1.273-.272 2.819-.519 4.213-.852-2.008-1.415-4.886-5.108-6.63 1.063-.613 1.905.559 2.97-.055-1.196-.82-3.566-.736-1.357-2.737-.773-1.735-2.06.694-2.761-1.63.983.075 1.279-.346.572-1.212 1.08-.755 1.746 1.853 2.658 2.473.374-1.134-1.963-3.28.778-2.897-.992 2.237.855 1.51 2.19 2.842.123-.84.227-1.682.311-2.527zm37.226 43.667c.928-.514.666 2.233 2.526.33-.11 1.036.768 2.2 1.738 3.376-1.25.934-2.173-.898-3.158-2.212-2.425 2.434-4.684 3.468-6.576 1.388.224-1.792 1.091-.54 2.262-1.054-1.027-2.16-2.613.397-3.737-.938-.493 1.135-.96 2.273.423 3.654-.846 1.132-1.377-.4-2.157.166.032-1.18 1.774-2.665-.632-1.881.152-.697 1.56-2.017 2.577-3.712-1.108-.281-2.058-1.888-3.369-.44-.183-.924.325-1.756 1.156-2.548-.906-.78-1.945-.415-2.789-1.714 1.385-3.774 4.864 1.001 4.104 1.437-.528.68.531 1.57 1.001 2.381-.668-1.288 1.401-2.216 1.261-3.434.689-.59 1.767 2.577.896 3.265 1.682 1.033 2.014-1.77.314-2.657 1.325-.359 2.532.287 3.632 1.825l-2.366 1.939c1.373.829.941.932 2.684 2.6.259-.566.523-1.13.21-1.771zm-.402 44.155a7.222 7.222 0 0 0-2.112.446c-.33.483.375 3.193 1 2.35.353.786-.877 1.365-1.522 2.022-1.614-3.169-4.066.671-5.887-.761 2.584-1.742-2.183-3.067-1.79-6.447 1.118-1.022 2.225-1.948 3.1-.93.532-.711-.608-.899-1.21-.6.28-1.775 4.418.074 4.363 2.784.389.325.841.105 1.21.599 2.495-2.198-.49-3.088 1.836-4.645 1.375 1.36-.151 2.347-.418 3.497.949.657 2.14-2.345 1.259-3.388 3.52 2.406.779 2.28 1.42 4.73 1.165.03 2.364.41 1.216-1.82 1.572-.153 1.543.617 2.201 2.07-1.067 1.039-1.946.441-2.85.056-.318.358-.206 2.778.6 1.852.796 1.355-1.255-.016-1.8 1.527-1.127 2.208 2.342-4.078-.95-2.343.009-.483.135-.797.334-.999zm13.918-20.897c-1.031 1.363-1.699-.202-2.651.532.767-1.662-.352-1.9-1.964-1.539.167-2.649 3.33-.238 3.29 1.274 1.595-1.241-.23-2.906.527-4.25-1.513-1.089.147 1.665-1.536 1.965-.367-2.487-.08-1.693-2.44-1.167-.35-.475.295-.826.582-1.222-.615-.833-1.318-.961-2.069-.69.921 1.928-1.117 3.484 1.17 4.463-1.314.17-2.714 1.039-3.871-.051.724-.63 1.998-1.19 1.536-1.967-1.107-.871-.294 1.16-1.802.639-.09 1.695-.565 2.67 1.274 3.611l-1.43 1.117c-1.302-1.402-.512-3.347-2.868-4.672.569-1.889 1.541-1.346.794-2.924 2.558.087 2.73-3.386 6.152-.96 2.002-.613-.838-1.83 1.164-2.444 1.17 2.145 2.535 2.72 4.137 1.379-.748 2.604 1.669 1.283 1.753 3.24-1.93 1.267-1.672.94-1.748 3.666zm3.66 16.541c-.309-.873-.236-1.702-.545-2.574 1.95-.978 2.023 1.614.545 2.574zm.272 1.287c1.136 3.551-5.1-.704-3.905 2.887-1.368-.492-1.23-1.682-3.258-2.059.726-.471 1.445-.945 1.085-1.545-.807.132-1.47.706-3.094.054-.234-1.22 3.031-.965 4.07-.776 1.188-2.048-1.702.147-2.01-1.491.63-.344.786-.745.598-1.186.734.003 1.43.297 2.116.669.52-.569-.265-1.286-.76-.927-.777-1.087 1.723-.308 2.44-1.804.048.564.108 1.128.652 1.75.146-1.508 2.032-.482 1.193-2.37.633.043 3.15.81 1.465-1.081 1.283.296 2.698-.408 3.744 1.697.512-.497-.28-1.15-.651-1.752 1.108-.599 1.986.546 3.093-.052.473 2.496-3.624 2.002-3.253 4.636 2.477-2.033 2.928.095 2.282 2.78-.493-2.271-1.26-.899-2.77-2.419-.324.608 1.909 4.244-.705 2.009-1.392 1.44 3.065 2.619 2.118.67 2.213.83-2.275 3.032-3.418 2.524.04-.692-.333-1.434-1.032-2.214zM463 211.442c-1.186-.6-2.512.158-3.801.558-1.09-2.905 2.602-2.241 3.801-.558zm53.167 69.938c-.463.495.105.66.364.46.658 1.762-1.668.427-2.237.973.686 1.255 1.647.345 2.291 1.941-2.005 1.326-.924.977.158 2.097-.631-.03-1.85.265-1.405 1.075-1.682.66-.894-1.696-1.825-2.3.186 1.13-1.134 2.077.419 3.374-2.77-1.044-4.869-.223-4.998-.61-2.272.473.44-1.825-.523-2.557 1.123.046 2.103 1.212 3.23 1.225 1.374-1.354-.527-3.11-.68-4.652 1.427-1.254 2.626-.702 4.111-2.406.595.87 1.343.532 1.928 1.483-.331.388-.585.157-.833-.103zm-64.276-75.223c.236 1.488 1.763 1.703 1.293 3.757-1.25.382-2.69-2.995-1.293-3.757zm1.99 1.6c1.083.284 1.44.797.646 1.88.53 1.004 1.9-1.472.698-2.157 2.679-.865-.098 4.792 2.742 2.597.427 2.625-3.42 2.569-3.115 4.092-.635-.507-1.998-1.317-4.03.831.03-.528.827-3.075-1.023-2.376-.688 1.028.1-1.127 2.31-1.05-1.112-.178-2.193.186-1.99-1.602-.915.63-.558 1.424-1.557 2.045l-1.129-1.49c1.285-1.103 1.6.047 1.933-1.55-2.145-.582-1.89 1.264-2.366-2.098 2.723 1.476 1.118.007 2.417-1.937.77 2.068 2.09-.43 3.172-.942.923.788 1.796 2 2.956.827.148 1.067-.408 2.044-1.665 2.93zM465.835 222c.71.052 1.143.88 2.514 2.358-.877.704.378 1.68-1.083 2.31.647.165 1.329.045 2.02-.151.035.618.082 1.232.691.902.284 1.62-2.268-.793-3.253.404L465 225.565c1.053-.106 2.11-.988 1.922.65 1.127-.671-.504-1.694.294-2.409-1.12.585-1.417.196-1.38-1.806zm-38.185-21.007c-.291.404-.245.85.267 1.355l.957-.758c-.375-.49-.056-.889-.266-1.357-2.488.738-1.955-1.252-4.153-1.406-1.56 1.858-2.3 3.818-2.446 5.856.274-3.354 5.063.966 3.513-.436-1.611-1.672-.687-3.023-.321-4.445-.364 4.33 1.392 3.01 2.449 1.19zm10.064 6.119c-1.182.241-2.257-.396-3.62 1.302 1.445.638 3.721 1.247 2.612 3.413 2.935-1.243.53-3.162 1.008-4.715zm-2.556-.324c-2.133-.938-.24-.197 1.064-1.626-.166 1.05 1.167 2.33 2.45 1.19.704 3.021-.029 1.468.323 4.444 1.662.55 3.503-.361 5.004 1.515-.992 1.036-1.898 1.38-2.767 1.411-.359-.633.559-1.104 1.063-1.627-1.552-.45-4.457 2.636-3.936 3.905-.888-2.898-4.942-1.823-7.187-1.35-2.813-3.288-2.393.238-4.42-2.762.835-.628.963-1.345.69-2.114-1.52-.477-.905 1.278-2.768 1.412-.037-.669-.088-1.333-.745-.976-.732-1.236.422-2.135 1.542-2.007-1.018-1.008-1.355-1.932-1.385-2.816-.93 2.583-1.073-2.223-3.513.436.193-3.748-1.236-6.531-3.574-9.7.729-.643 2.007-1.215 1.543-2.008 1.203-.516 1.597-.044 1.598 1.084 1.322-2.719 4.54-2.593 6.653-1.36.36.633-.559 1.104-1.064 1.627.49.725.978 1.443 1.599 1.083.349.485-.298.843-.585 1.247 1.893.905 1.018-2.17.795-2.982 2.076.625 1.926.804 3.78.92l-1.914 1.519c.428 1.653 3.689.112 1.49 1.95.517.51 1.19-.281 1.81-.652-.22 1.83-.85 2.528-2.605 3.633 2.63 1.379 2.259 3.898 3.25 5.256.515.51 1.188-.282 1.81-.652zm60.497 80.573c-1.201 1.616-.66 1.196-2.24 1.025-1.077.738 1.083 1.892 1.357 2.803 1.58-3.713 5.246 2.436 7.974.589.7 1.257.945 2.457 1.253 3.664-.57-.391-3.58-.376-1.875 1.511.465-.232.3-.545.103-.862 1.714 2.302-2.435.045-3.023-3.018-.697.494-1.39.99-1.042 1.618.737.627.506-1.089 1.303-.27 1.396 1.541-2.343 1.518-.884 3.829-.667-.857-2.467-1.055-2.606.54-2.35 1.116.67-2.644-1.095-1.455-.796-1.616 1.29.156 1.771-.647-1.27-.195-4.539-1.888-4.637-.159-2.202 0-.093-1.397 1.04-1.618-1.068-.505-2.14-.983-3.439.433-2.314-2.498-2.013-2.419-2.61-6.469-.046-2.524.123 2.214 1.564 1.08 0 .887-1.534.753.523 2.694.476-2.425.37-2.643 2.916-3.13-2.204-.727-1.045-1.053-1.928-1.561-.28-.62.685-1.08.207-1.726 1.908-.825.91.715 2.294 2.048-.55-2.818 1.833.429 3.543-1.297l1.461 1.94c-.75.362-1.303-.9-1.93-1.562zm-23.654-21.922c-.08-1.42 2.165 1.367 2.66-1.439-.119 1.48 1.994 3.26 1.13 4.64.454 1.888-2-4.33-3.79-3.201zm1.33 3.023c-.977.613-.628 1.398-1.523 2.023 1.256 1.166 2.779 5.47 1.84 2.457 1.229-.896 2.183-.26 1.522-2.023-.876.19-1.666-.337-2.417-1.2.674-.374 1.539-.016.577-1.257zm-11.982-25.24c-.039-1.904.658.756 1.096 1.438-1.535-.565-.773 2.12-2.138.161-.445.377.083.877.262 1.332.503.502 1.163-.275 1.772-.64-.046 2.572 3.03 3.467 1.776 6.287 1.487 1.091-.145-1.671 1.511-1.972.53 1.366.688 2.684-.884 3.784-.746-.842-1.53-1.357-2.4-1.171-.843 2.746 2.478.188 3.13 2.13-1.862-.817-2.543 1.51-1.041 1.6 1.018 1.35-2.15-.124-.209 1.705-2.755-.44-3.085 1.105-5.423-4.153.745-.323 1.38.256 2.136-.162 1.6-3.353-4.237-2.327-4.85-5.38-1.096.5.164 3.4 1.357 2.771.83-1.08-.715 1.117-1.979 2.346 2.863.937-1.333.187-.676 2.079.64.535 1.477-.538 2.24-1.015l1.461 1.918c-.614.933-3.196 1.615-2.449 2.72-1.622-.765-2.79-2.833-2.348-5.062-1.393.979.32 2.35-2.083 3.199.235-1.626-1.193-1.87-2.192-2.876.571-.046 1.143-.105 1.772-.64.722.669.186 1.178.628 1.811.31-.393.1-.852.571-1.227-1.528-1.563-2.97-1.361-3.39-3.46.926-.653 1.533 1.325 2.503.317-.43-1.033-1.613-.8-.888-3.144.736-.25 1.43-.152 2.034.692 1.045-1.503-.02-1.138-.992-2.29 2.32-.926 3.534-.958 3.49-4.32 1.035 1.431 1.889 2.838-.051 3.89 1.827-.336 2.762-1.873 4.221-3.36 1.083.276 1.463.776 1.46 1.918.605-.357.754-.771.573-1.227zm-1.49 14.795c.733 1.194-1.623.34-2.299 1.983-1.677-1.302.872-2.025 1.584-3 .034.697.084 1.39.715 1.017zm-12.547-23.973c-2.1.883-1.72-2.572-3.136-2.27-.583 1.495 3.383 4.672 3.136 2.27zm1.984-2.502c.257-.58.519-1.16.208-1.819 1.781-.592.59 2.17-.312 2.729 1.512 1.621 3.393.012 4.807 2.497-4.404-2.092-2.186 2.843-6.895.914-1.207 1.9 1.422-.948 1.568 1.135-3.977.068-8.516-1.611-8.673-5.79l1.879-1.592c1.604 3.071 7.03-3.722 6.216 1.303.386.337.836.11 1.202.623zM552.4 203c1.76 1.395-.798 3.148-2.058 2.99-.61-1.802-1.088-1.083-1.343-2.59 1.145-.217 2.056 1.375 3.4-.4zm-10.306 17.205c-.362 1.913 3.649-.537 4.717 1.862-1.984 1.255-3.31 1.114-4.879 2.878-1.003-.374-1.901-1.559-3.162.055-4.791-2.276-3.144-4.955-4.771-4.896.612-2.753 3.627-.304 3.602-3.464 1.4 1.905.55-.13 1.885-.64.947 1.96 2.236 1.285 3.219 2.98.19-1.064.633-.772 1.496-1.119.365.476-.309.829-.61 1.225.935.9 2.298-1.508 3.272-.908.94 2.55-3.237 1.591-4.769 2.027z" fill="#F1F2F8"/><path fill="#D8DCFF" d="M670 521H386v26l284 76z"/><path d="M601.191 590.246c.2-.15 1.492-.717.307-.967.053.418-.246.62-.706.72.398-.493-.687-1.164-.799-.493.721.034.326.806 1.198.74zm-35.682-3.484c.368 1.252-1.374 1.561.042 2.008-.103-.99 1.248-1.685-.042-2.008zm38.926-46.449c.84.145 1.223.714 1.723 1.174.858-.89-.94-1.178-1.082-2.08.121.587-.433.599-.64.906zm2.86-3.364c.18-.007.365-.336-.002-.394-.09.47-1.288 1.545-.309 1.983 0-.52.563-.384.64-.816-.252-.076-.377-.313-.328-.773zm-42.234 7.2c-.274.814.838 1.714.962.736-.654-.474-.35-2.174-1.29-2.285.7 2.119-.603.483-1.59.463.571 2.416-.26 2.283.659 3.482.068-1.21.877-1.554 1.259-2.397zm2.9 31.758c.364 1.229.273 2.12-.305 2.971 1.465.36 1.348-2.921.305-2.971zm-2.319-30.066c.01.484-.657.348-.74.747 1.623.417 4.17 2.02 2.754 3.234 1.346-.31 1.956-1.294 2.213-2.6-1.399.644-.748-.064-1.542-.702-.92.505.716 1.09-.34 1.47-1-.418-.756-1.237-.441-2.185-1.784-.146-.448 1.507-1.904.036zm6.783 18.349c-.103-.794.433-.942.369-1.696-.98.576-1.676-1.187-1.992.057.622.457 1.002 1.181 1.623 1.639zm-.762-4.042c.582-.018.939.156 1.289.335.032-.856-.701-1.067-1.337-1.362-.026.97-.713 1.43-.739 2.401.637.175 1.092.5 1.73.675.154-1.08-1.339-.768-.943-2.049zm1.447-1.925l-.048-1.006c-1.198.061-2.923-.278-2.936.682 1.841-.388 1.395-.003 2.984.324zm.01 28.518c.844-.326-.217 1.88.626 1.556.796-.559-.078-2.928-.626-1.556zm-.1-35.541c-.037.69-1.418.246-1.658.765.379.548 1.088.788 2.135.72-.16.587-1.316.334-.79 1.5-2.667-.213-2.466-1.21-1.793-2.959l2.106-.026zm1.366 15.157c0 .6.327.888.806 1.033.808-.807.067-2.173-1.227-2.071-.105.215-.915 1.353.047 1.392.015-.213.043-.413.374-.354zm.595 23.972c.923-.392 1.875.663 1.898-.006-.501-.002-.372-.525-.787-.598-.324.996-.767-.332-1.155-.296l.044.9zm.069-45.51c.293.044.267.59.24 1.14-.139.01-.288.335-.003.387.082-.793.69-.808.77-1.6-.154-.102-.96-.89-1.007.073zm.056 18.621c1.093-.834.5 1.45 1.91-.035.07.48-1.246 1.373-.34 1.457.612-1.386.65.777 1.166.705.068-.44.417-.231.764-.014-.013-1.925.205-.433.765-.015 1.11-1.768-1.245-1.537-.868-3.613-1.533.323-1.515.71-2.653.776-.011-.364-.02-.726-.032-1.09-1.237.908-.107.353-1.92-.326.218.9.765 1.477 1.208 2.155zm3.744-6.52c.37.086.933.006.96.382-.261 0-.521.318.017.388.853-.745.011-.974-.084-1.938-.986-.437-2.222.623-.91.781.16-.595.565-.06.017.388zm2.344 38.954c.959-.803-.448-1.23.375-1.914-1.392-.577-1.111 1.987-.375 1.914zm.138-3.996c1.136.03.992-1.334 1.586-1.894l-2.01.074c-.079.87.465.996.424 1.82zm1.157-24.435c-.768-.299-2.1-1.563-2.018.554 2.02-.85.385-.157 1.01.836.07-.542.373-.294.673-.035-.015-.613.158-.987.335-1.355zm.557 12.526c-.063-.327 1.233-.747.264-.984-.051.297-.34.152-.625.001.071.368-.067.908.361.983zm.318-10.002c.011.941-.621 1.803.81 2.061-.848-.875.443-1.81-.81-2.061zm-.621-27.39c.688.08.32-1.007.882-1.067.074.649-.327.773-.283 1.39.35-.067.847.026.89-.38-.438-.2-.35-2.719-1.817-2.688.515 1.178.453 2.485.328 2.746zm2.456.452c.582-.18 2.12.37 2.018-.333-1.688.507-.145-1.677-1.297-1.615-.544.417-.175 1.531-.721 1.948zm.82 24.1c1.017.165-.562.57-.694.767.057-1.116-1.334-1.233-.397-2.231-1.137-.286-1.339.365-1.759.798-.024-.88.591-1.117.312-2.251-.87.511-1.49-1.053-1.772.05.745.912.442 5.735 1.474 2.947.006.375.296.437.368.738-.382.786-.366.801.362.362-.157.735.55 2.37.737 1.474-.55-1.073-1.036-2.18.306-2.624-.688.88.096.412.375 1.11.836-.015 1.032-.673 2.12-.433.323-.921-1.616-1.192-1.432-.708zm2.052 10.666c-.477-.356-1.32-.32-1.796-.677-.25 2.136 1.67-.32 1.116 2.139 1.2.217 1.29-.638 1.393-1.48-.43-.528-.477-1.463-1.109-1.777-1.08.793-.14.082-.016-.72-1.413 1.253-1.832.458-2.816 1.513 1.145.68 2.712-.736 3.228 1.002zm-3.553-31.782c1.104.169-.562.5-.34.954.983-.336 2.31-.397 3.777-.347-.566-1.444-.762-1.448-2.002-2.522-.144 1.53-4.321-1.623-2.247.653.074-.247-.016-.626.352-.637l.04.951c.937.034 1.828.034 2.261-.335.217.468.594.795.811 1.262-1.146.89-1.673-1-2.652.02zm3.863 37.529c.902.128.458 1.107 1.925.877.29-.715-1.881-1.356-1.925-.877zm-1.216-34.37c-.113-.447.97-1.313 1.023-.404-.266.092-.676.031-.68.394 1.166.442 1.79-1.513 1-1.892-.134.472-.43.774-1.019.776-.08-.286-.02-.733-.354-.733.461.909-.981 1.575.03 1.86zm-1.033-5.156c1.222.542 2.658-1.013 1.76-.355-1.47.393-.251-3.55-1.486-2.267.62.263-.095 2.013-.274 2.622zm1.92 30.288c-.229.792.36 2.297.616 1.358-.183-.013-.355-.038-.303-.334.775.001.332 1.466 1.514.98.281-1.738-1.555-.931-1.827-2.004zm.16-17.03c1.348-.13.911-1.794 2.147-2.022-.729-.38-1.056-1.049-.498-1.587-.609.026-.977-.173-1.342-.38.78 1.317.198 2.735-.306 3.99zm.807 2.798c.198-.396.28-.983.273-1.72.425.348.841.71.704 2.054-.214-.31-.548-.405-.977-.334zm1.32 22.412c.454-.078 1.101.038 1.154-.442-.343-.791-1.38-2.631-1.952-.762.695-.073.913.38.798 1.204zm1.022-5.943c.16-.535.46-.917.618-1.45-2.083.366.783-1.052-.974-1.396-.044.423.068 1.012-.305 1.083-.225-.823-.592-1.48-1.61-1.373 1.047 1.167 1.91 1.995 2.271 3.136zm.138-25.052c-.958-.816.979-2.415-.048-1.882-.303 1.455-1.556-.034-2.706.057.539 2.211.991.382 2.754 1.825zm-.3 49.099c.82-1.025-.572-3.257 1.276-3.92-.434 1.468.108 2.737-1.276 3.92zm.787-68.615c-.405-.027-.786-.081-.677-.67-1.298.484-.825-1.243-1.663-.3-.19-.496.352-1.791-.365-1.714-.329.353-.088 1.883.38 2.403.596-.783 1.63.919 1.027 1.697l.993-.027c.005-.475-.17-.753-.35-1.025.255-.085.652-.027.655-.364zm.83 30.783c-.326 1.763-.04 1.037.387 2.361-.67.112-.788-.419-1.423-.346-.342 1.203.8.674 1.429.743.664-1.429.373-1.845.665-3.191-.527-.188-.901-.555-1.429-.743.259 1.005-1.402 2.969-.322 2.387-.028-.681.26-1.024.693-1.211zm-2.271 16.815c1.179.663 3.383 1.603 4.065.896-.494.059-.546-1.797-1.124-.612.897.406-.801-.146-1.451.325-.46-.48-1.219-1.202-.44-1.864-.589-.444-1.455-.641-2.235-.913.07.413-1.187 1.17-.316 1.248.384-.687 1.391-.696 1.83-.017.034.428-.145.685-.329.937zm-20.323-3.172c-.964-.194.294-.723-.026-1.338 1.063.527.606 2.293.059 3.011-.982-.095 1.018-2.496-.033-1.673zm10.933-4.21c.186.351.467 1.63 1.858 1.763.272-.953-.95-.607-1.12-1.177.382-.61-.62-1.406-.738-.587zm12.712 8.972c-.781.53.471.859-.333 1.076-.616.034-.925-.253-1.09-.687 1.475.738.327-.96-1.084-.332.415 1.722.556 1.56.792 3.188-.819-.081-1.345.117-1.415.745.422.046 1.016-.085 1.083.332-2 .564 1.081 2.216-.657 2.508-.416-1.099-1.378-1.629-.785-2.832-.91.064-1.376.55-1.397 1.456.23.49 1.38.023 1.448.68-.633.187.166.376.376.704-1.635 1.06-3.133 1.412-4.248 2.233-.9.174-2.203-1.063-1.465-1.39 1.157 1.071 2.874.1 4.289-.455-.707-1.287-.145-1.627-1.485-2.103.345 1.253.066.875.41 2.128-.424-.047-1.016.084-1.084-.331 1.778-1.261-.954-1.198-.784-2.832 2.888-.08-.872-.445 1.407-1.101-1.392.495-1.295-1.277-.366-.347.435-.993-1.086-1.718-1.101-1.044 1.333.623-2.705.86-1.031 1.804-.128-.72 1.035.05 1.082.331-1-.137.327 1.935-.673 1.797.118-1.212-1.084-1.324-1.501-2.815.26-2.037 1.812-.75 2.456-2.193.046.282 1.21 1.052 1.082.331-.361.005-.465-.613-.016-.712.028.375.466.27.35-.364-.922.377-2.385.68-2.874-.29.557.015.224-1.041-.009-.356-.348.481-.307 1.332-1.04 1.448-.22-.735-.577-.74-1.083-.331-.067-.417.036-1.012-.385-1.06-.577.401-1.833.55-2.515-.299-.434-1.346-.709-3.303-.837-4.967 3.015.32.012-.848 2.124-1.117.749 1.035-.622 2.355.078 3.204 1.158.286.463-1.185 1.407-1.101-1.667 1.78 2.618 2.317.792 3.188.22.015.427.043.368.347.025.217.063.42.366.348-.047-1.32 1.732-.907 1.74-2.176-.845.01-1.04.636-2.14.404-.1-.506-.605-.587-.743-1.051.516-.207 1.861.374 1.783-.397-2.743-.124-.518-1.524-1.85-2.452-.167-.011-1.36.253-1.46-1.034-.89-.035-1.095.584-1.773.752-.57-.744-.843-1.798-1.843-2.094.535-.074 1.325.096 1.425-.389-1.44-1.888-1.357-1.91-2.593-3.502.703.16 1.247-1.797-.034-1.425.065.89.71 1.1-.325 1.432.235 1.01 1.37 1.778-.306 2.145.257-1.384-.377-3.714-1.142-2.824 1.074-.022-1.486 1.025.034 1.424-.005-.359.617-.462.715-.016-.398.812-.295 2.615-.28 3.212.117 4.938.285-5.382 2.497-.413-.678-.064-.78.419-1.423.389.21 1.661 1.095 2.029 2.175 1.018l.026 1.068c-.855-.926-.937.967-1.792.041-.237.978.729.7.752 1.408-.535.072-1.326-.097-1.426.388.22.016.426.044.367.348.026.216.064.42.367.348.03-.436.087-.846.7-.728-.138.83-1.56.989-.674 1.796l1.074-.025c.127-.615-.553-.9-.026-1.067 1.132.653-.523 1.558-.297 2.5.906.433 1.115-.207 1.44.323-.52.424-.892.432-1.431.032-.167 1.3 1.254 3.042-.274 3.568.068-1.959-.81-.565-1.075.024.237-1.342-1.386-.744-1.475-1.746 1.1-.582.226-.304 1.407-1.101.074.531-.097 1.317.392 1.416-.436-1.111.543-.879.682-1.44-1.237.072-1.704-.658-2.532-1.012.033-.664.207-1.195.682-1.44-.004.49.187.778.383 1.06-.275.086-.705.026-.707.372 1.419.419 1.046-.863 1.032-1.804-.908-.433-1.118.206-1.442-.323.62-.34 1.229-.69 1.032-1.804-2.294-.29.185-2.6-1.509-3.171.833 2.48-.88 2.27-1.339 3.948-.238-.75-1.642-2.15-2.184-1.375 1.07.783-.571.82-.717.016-.591 1.755 2.096 3.428.103 4.272.19-.85.508-1.67-.758-1.764.854 1.83-.658.297-1.05 1.092.505.447.113.735.043 1.78.608.132 1.65 1.641 2.166.664-1.108.122 1.201-1.952.998-3.228.938.872.238 1.187.776 2.475-.562.047-1.243-.02-1.057.737 1.747-1.174.726.687.734.695.229.228 1.138-.194 1.432-.033.972.533.122 1.594-.658 2.508 1.698.322 2.239-.406 3.241.638-1.018-.27-.915.524-1.781.397-.075 1.087 1.18 1.359.41 2.128 1.285.524.186-1.214 1.048-1.092.62.126.906-.55 1.074-.025-.175 1.609-2.45.882-1.372 2.524 1.89-2.873 3.527 1.646 1.083.332-.188 1.193 1.902 1.879 2.182 1.375-.936-1.12 2.708-.563 2.124-1.117-1.957.898-.42-2.804-1.824-1.383-.43-2.194-.272-3.369.954-5.008.189.63.38-.164.709-.372.502.206.087 1.369.75 1.406.225-.483.75-.68 1.417-.744-.092.703.5.695.74 1.052-.961.434-.887.193-2.148.05-.267 1.254-.676 2.374-1.357 3.235 1.261-.582.245 1.204 1.1 1.044.435-.902-.208-1.11.325-1.432.028 1.069.96-1.522 1.433-.032-.089.727-.953.72-1.042 1.448.82.263 2.389-.45 1.417-.745-.015.218-.043.423-.349.365.298-.637 1.11-1.066.315-1.789.679.064.78-.42 1.424-.389-.189.75-.864 1.037-.665 2.153.678.064.78-.42 1.425-.389.008.357-.28.43-.342.72.422.046 1.015-.084 1.082.331-1.774.08-1.767-.308-3.222.073.742 1.381 1.022 1.074 1.491 2.46-.885.49-1.154-1.382-1.44-.323.433.065.23.39.017.712.737.4 1.458-.221.741 1.052l.717-.017c.025.217.064.42.367.348l-.043-1.78c.494.004.782-.186 1.066-.38-.462 2.58.239.67.776 2.475-.585-.093-.955.503-.341.72.39-1.026.429.566.017.711.534-.072 1.326.098 1.423-.387-1.134.028-.614-1.416-.4-1.772l.717-.016c-.234.633-.37 1.11.035 1.424.053-.53.856-.347 1.422-.39.701 1.311 2.061 3.282 3.626 1.699-.747-.698-.699.173-1.424.388-.155-1.636-.664-2.619-.82-4.255-.537-.048-1.319.158-1.442-.323.186-.522-.462-1.83.317-1.788.183.416.401.798.742 1.051-.443-2.67 1.24-.97 1.757-1.465-1.194-.504 1.189-.446.682-1.44-.706-.09-.698.498-1.057.737-.317-2.027.335-4.265.222-5.704 1.632.56.858 1.611 1.85 2.45.105-.99-.052-2.403-.443-3.55zm1.276 8.297c-1.146 1.392 2.08-1.751.424-.77-.67 1.415.04-1.55-1.402-.754-.474 1.208.757.924.978 1.524zm-1.664-11.229c-1.044-1.485 1.178.543 1.312-.345-1.202-.46-1.977-.626-1.38-2.202-.627-.058-.72.373-1.312.345-.218.873.673.628.694 1.26-.332.008-.4-.25-.67-.304.333.586-.959 1.083.035 1.273-.024-.957.955 1.323 1.321-.027zm1.74 15.773c-.879-.02-1.11-.69-1.397.422.263.438 1.197 2.378-.321 1.909-.044.95.56 1.17 1.078 1.484-.249-1.5.413-2.06 1.011-2.688-.412-.05-.392-.587-.37-1.127zm.184-4.147c.13 1.358-1.31 2.79-.27 3.99.192-.678 1.389-3.266.27-3.99zm-1.883-22.47c.332.088.468.466.983.286-.018-2.85.287-2.217-.983-.286zm1.04-23.701c-.29 1.353-1.003 1.896.016 3.008-.544-1.845 1.522-2.449-.015-3.008zm2.7 13.22c-.012-.304-.024-.61-.038-.915-1.283.075-.775-1.426-2.227-1.203.298.83-.696.621-.677 1.227.982-.23.756.6 1.478.598.084-.6-.515-.601-.763-.91 1.227-.024 1.603.698 2.227 1.203zm-1.451-12.13c-1.518.469-1.006 2.5-2.847 1.93 1.237-.252.511 1.28 1.86.928.515-1.058 1.537-.53 2.152-.972-1.06-.666-.608-.978-1.165-1.886zm.283 16.646c1.39 1.738-.63 5.17 2.31 4.723-.189.538.472 1.888-.325 1.845-4.884-.755 4.25 1.242.657-3.322-.685.103.222.6-.35.742-.464-.14-.76-.455-.758-1.084.283-.09.723-.028.724-.385-.4-.832-1.447-.987-1.875-1.793.391-.704.885-1.31 1.049-2.23-.928-.463-1.114 1.48-1.458.402 1.162.153.094-1.826 1.433-1.504-.148 1.158.492 1.49 1.142 1.81.762-1.735-2.13-3.546-2.983-2.133.286.075.723-.008.741.348-1.58-.136-.446 1-1.074 1.129-.104-.687-.598.222-.741-.35.8-.073.764-.944.69-1.854-.386-.723-1.382-.806-1.866-1.426 1.057-.187 1.652-.814 1.79-1.88-.988 1.306-2.39-.036-1.5-1.435-1.423.344-3.942-1.757-2.924.437.11-.682.939.979 1.134 1.443-.691.1-.818-.394-1.475-.332.213.528-.384 1.907.41 1.828.325-.912.487 1.45 1.49 1.067.485-.85-.976-1.359-.033-1.47 1.776.178-.636 2.137.051 2.205.729-.023.443-1.013 1.449-.77-.09.65 1.752 1.097.766 1.453-.749-.091-.74-.978-1.49-1.068.366.676-1.07 1.253.033 1.47 1.348-.93.649 1.472 1.526 2.536.799-.549-.482-.885.34-1.11.438.167.84.371 1.117.708zm2.377-7.46l-.05-.77c-.893.1-.843-.475-1.882-.269.29.599.742 1.083 1.932 1.039zm.255-3.65c-.06-.506.091-1.255-.331-1.346-.147 1.164-1.486.567-2.166.409-.135 1.074.577 1.178.347 2.363-.397-.006-.436-.42-.935-.309-.014.926.527.666.02 1.356 1.469-1.104 1.563-1.654 2.744-3.141.074.26.02.668.321.667zm.859 46.946c.89-.194-.505-.517.356-1.006.862-.063.23 1.184.468 1.667-.452-.29-2.077-.276-1.194.01-.679.796-1.579-1.13-1.675-1.99.95.668.909-.144.37-.672.252-.826 1.292 1.05.453 1.333.11.48 1.193.106 1.222.658zm-.676-41.853c-.686.51.362 2.283-1.716 2.499.887-.828.226-2.805 2.159-2.856.161.636-.4.731-.443.357zm.858 8.694c-.101-.601.109-1.486-.518-1.604-.085 1.422-.981-1.69-1.376.016.723.446 1.17 1.142 1.894 1.588zm.574 38.061c-.944-1.602 1.626-1.532.686-1.91-.498-.002-.79.2-1.077.408-.193-.733 1.209-1.968.34-1.144-.532.212-.9.585-1.432.796.01-.484.453-.536.34-1.144-1.097.017-.876 1.351-1.042 2.298.993.248.714-.77 1.432-.796-.13.654.556.955.022 1.135-.003-.21-.301-.421-.361.01.22.015.428.045.368.368l.724-.02zm.187-23.604c.463-.044 1.127.052 1.171-.288-1.138-.059-2.163-.04-1.93.867.567-.158 2.067.343 1.964-.287-.469-.046-1.122.048-1.205-.292zm-.263-25.488c-.45.061-.402.538-.35 1.016 1.53-.965-.182-3.051-.54-4.047-.183.501-.542.857-.725 1.36 1.981-.037.117 1.265 1.615 1.671zm-.282-9.68c-.246.02-.308.612-.003.677.418-.702.362-2.758-.234-3.024.205 1.064-.386 1.067-.492 1.717.287.147.55.327.729.63zm1.308 5.78c.683-.526.837-2.402.332-1.88.008.496-.651.358-.734.766.295.077.444.303.394.741-.21.003-.42.312.008.374zm-.586 30.188c.657.569.08 2.438 1.878 1.805.1-1.097-1.87-2.383-1.878-1.805zm.295-20.29c-.287.653.964 1.404 1.08.616-.894-.25-1.154-1.09-1.818-1.555-.057.815-.622-.425-1.411.019-.07.246.011.623-.332.636-.026-.192-.066-.372-.364-.31.368 1.14 1.484 1.94 1.499 2.505.047-.368.546-.35 1.048-.33-.004.336.194.8.364.312.121-.874-1.327-.28-1.444-.928.271-.075.695-.018.694-.325-.277-.066-.419-.26-.374-.627.508.116.608.37 1.058-.014zm3.036.723c.376-1.209-1.017-.24-.641-1.451-.78.502-.982-.15-1.25.42.811.246-.204 2.74.964 2.546-.435-1.143-.109-1.264.927-1.515zm-2.53 8.903c1.062-.328.993.5 1.9.33.296-1.285.877-2.311 1.862-1.147.135-.742.865-2.753-.086-3.317-.034.917-1.277.135-1.512.032-.342.76-.734 1.475-1.076 2.235.446.048 1.07-.085 1.142.345-.365.5-.594 1.125-1.095 1.498-.322-1.233-2.446-2.047-1.229-3.661-1.415-.36-.708 1.259-1.473 1.505-.678.063-.894-.347-.784-1.09.79.725.737-.177 1.502-.4-.185-.692.457-2.232-.803-1.826.923 1.275-.32 2.545-1.105 1.13.37 2.328-.252 3.66.879 4.775.914-.51-.71-1.098.34-1.483.2.652.398-.168.746-.384.85.513-.452.909.406 1.098.823-.549-.499-.89.349-1.114.65.719-.022.47.038 1.474zm3.587-5.725c-.224.907.786.424.766.001-1.033.2-.804-.55-1.563-.556-.446 1.354-1.058.93.797.555zm2.876-1.483c1.93-.36-.661 1.475.518 2.222.307-.984.862-2.435.013-3.007-.005.498-.464.373-.53.785zm1.526 5.31c-.937-1.66-.52.687-1.637.768.618 1.278.9-.662 1.643-.41-.292.99-.988 1.56-1.28 2.55.21-.85-1.092-1.176-1.682-2.099.986-.13.893-.655.295-2.16.753.076 1.239-.126 1.308-.759.306.621.943 1.744 1.325.317.256.275.257 1.246.028 1.792zm1.316 4.091c-.2-.867 1.245-1.337.28-1.985-.17.834-1.383 1.572-.28 1.985zm-1.36-7.112c.907.002.662-.658 1.328-.049.285-1.973.167-3.51-.72-4.92.112.873-.953.458-.982 1.178 1.364.346.676 1.155 1.684 2.22-.977-.397-1.234-.177-1.649.823.62-.043.706.267.34.748zm.65 10.445c.13.725 1.455.31 1.586 1.037-.39.01-.468.626.022.706-.108-.667.412-.786.343-1.419-1.58-.36-2.222-.804-2.385-1.732-.425 1.278-1.19 2.278.092 2.826.466-.891-.233-1.102.342-1.418zm6.38-10.956l1.26-.002c-.265-1.018.922-1.328-.503-1.62-.019 1.98-.618-1.517-1.26.003.573.222-.164.864.503 1.62zm-2.899 1.288c.266-.09.68-.03.683-.384-1.39-.15-.403-.877-1.061-1.427-.072.284.003.718-.332.738l-.02-1.093c1.633.194 1.926-.706 2.4-.797-.269-.073-.406-.294-.357-.72.407.047.978-.09 1.041.336-.261.256-.857 2.196.379 1.811-.787-1.367.448-1.623.636-2.934-.645.039-.735-.259-.358-.719-.518-.046-1.271.167-1.387-.324.787-.7.343-2.434 1.313-3.682.754.803-.42 1.614.73 2.166.279-1.671-.613-2.048-.75-3.259-.946-.238-.68.744-1.367.768.625 1.204.245 2.32-.635 2.934.422.895.606 2.054 1.426 2.51-1.675.217-1.294.28-2.421-.295-1.006 1.079.875.608.723 1.801-1.28.424-.57-1.35-1.744-1.043.09.686-.375.815-.319 1.467.542 1.163 1.223 2.145-.324 1.103.116.767 1.566 1.944 1.751 1.407-.192.007-.396-.284-.007-.364zm-2.255-3.653c.722-1.305.78-1.34.899-2.942-.967-.16-1.473 2.412-.899 2.942zm-7.942-5.536c.266.7-.019 2.21.863 2.002-.266-.7.02-2.209-.863-2.002zm-.646-5.09c-.016-.267-.03-.535-.045-.802-1.238.15-2.027-.632-2.888-.269.62.355 1.243.71 2.544.537.092.207.039.527.389.535zm-6.667-10.49c-2.144 1.142 1.384 3.523 2.097 4.157-.07-1.934-2.458-2.909-2.097-4.156zm-15.585-1.09c.099-.703-.064-2.899-.88-1.667.606.096-.379 1.41.88 1.668zm4.687 12.464c.065.358-.001.926.295.916.02-.648-.133-1.02-.29-1.388.324-.003.776-.279.308-.492-.611 1.317-1.506-1.537-1.831.606.6-.185.597.59.904.873.07-.372.26-.566.614-.515zm-2.665 1.709c1.343.146 1.71-.35 2.064-.855-.984.09-1.809.285-2.064.855zm2.702-3.716c.668-.019.44 1.021 1.355.713.126-.418.392-.928-.005-.381-1.15.202-1.025-1.103-1.701-1.46-.327 1.082-1.43-.054-2.018.071.75 1.86.23 2.063.048 3.8 1.233-.305 1.051-2.36 1.311-2.707.743.054 1.617 1.489 1.01-.036zm-5.212.536c.024-.665 1.145.379 2.036-.051.525-2.448.458-1.6.944-3.493-1.059.187-1.522-.264-1.386-1.352-.785-.457-1.259.926-1.36.034a1.74 1.74 0 0 0 .997-1.066c-.838.781-1.346.3-2.022.745 1.301 1.642-.294.722-.288 2.435.966.325.862.487 1.374.66-.767.547-.723 1.498-.295 2.088zm17.503 26.92c1.116-.31-.529-.864-.058-1.729.508.115.625.6 1.175.675-.094.813-.563 1.306-.302 2.424-1.48.207-1.611-.858-2.722-.999 1.783-1.375-1.06-.646-.85-2.408.727.028.306 1.138 1.187 1.02 1.012-.415-.028-1.834-1.198-1.365.448-.733 1.017-1.363 1.465-2.095-.257-.508-1.94.867-.396-.34-.805-.905-2.58-.894-2.396-2.733 1.808-.125 2.187 3.221 2.734 1.345.774-.282 1.752.658 1.872-1.41.588-.003 1.294.926.024.693 2.045 1.546-1.74 1.52-.268 3.46.122-.924.321-.81 1.478-1.75.055.136-.403 3.7-2.21 2.797-.315-.133-.059 2.16.465 2.414zm-27.172-21.606c-.258-.657-2.303-1.561-2.944-.901 1.565.53 1.173.908 2.944.901zm1.499 32.837c.657-.06-.493-1.619 1.141-1.552l.051 1.909c-.91.14-1.515-.03-1.981-.34.085-.484.774-.402.789-.017zm3.277 4.693c-.948-.713.27-1.436 1.1-.819.353 1.38-.917 2.052.415 2.348-.05.461-.671.35-1.108.424-.014-.576.082-3.219-.407-1.953zm8.477 4.224c.34-.47.554-1.058 1.024-1.41 1.35-.075 1.839 3.272 2.858 1.326-1.717.73-.628-3.303-2.152-1.34.102-2.357-1.397-3.067-3.264-3.398-.47.452-.503 1.71.396 1.725.046-.409-.085-.982.327-1.047-.008.946.606.685.035 1.387 1.153.403.241-1.128 1.394-.724-.376 1.099.575.83.741 1.37-.439.485-1.656.511-2.118.046l.018.694c-.215.024-.416.06-.345.354.418.045 1.001-.08 1.07.324.044.388-.501.55.016.693zm10.339 2.284c.006.735-.898.501-.643 1.5.633.138.845.768 1.669.683-.074-1.633.94.142 1.316-.784-.017 1.146.485.151.99-.404-1.171.615-.218-1.247-1.01-1.074.025 1.24-1.301 1.044-1.97 1.546-.065-.551.1-1.368-.352-1.467zm8.717-18.65c-.104.573 1.895 1.835 1.979.356-1.108.37-1.032-.55-1.979-.356zm2.643-9.15c-.604-1.864-1.48.07-2.083 1.122.987-.132 1.817-.395 2.083-1.123zm-1.866 5.264c-.398-1.05-1.451-1.172-1.827-1.36 2.072-.47 1.723-2.594 2.033-4.592-.83-.462-1.324.93-1.433.031.08-.722 1.326-.357 1.406-1.08-1.348.213-1.67.527-2.517-.297-.084.616 1.053 1.725.054 2.099-.067-.41.036-.994-.386-1.042.043.608-.052 1.09-.322 1.407 1.079.354 2.204.402 2.527.646-.047.413.086.991-.331 1.057-.083-1.118-2.033-1.406-2.536-.997.14.815.468 1.436.77 2.084-.823.123-.423-1.003-1.101-1.027.914 2.719-2.105 2.597-.25 4.204.287-1.624 1.425-.335 2.113-1.445-.251 1.637.607 1.824.798 3.132.899-.62 1.263.375 1.781-.388-.36.004-.466-.602-.018-.698-.015.544 1.05.22.36-.008-.701-.642-.644.221-1.792.038.09-.844-1.608-1.66-.422-2.44 1.215.29.063.781.753 1.383.878-.474 1.513.995 1.792-.037-1.289-.262.114-1.228-1.12-1.727-.046.413.086.992-.332 1.057zm11.376 2.101c.201.06.302.243.262.6l.515-.02c-.014-.42.115-.677.25-.928-.385.068-.951-.07-1.027.348zm-.059-3.824c-.22-.545-1.339-.012-1.4-.746.021-1.306 2.742-1.69 1.706-2.85-.5.893-1.128 1.65-2.063 2.067-.715-.083-.343-1.47-1.06-1.553-.016.244-.046.473-.343.41-.211.031-.41.076-.343.412 1.565-.331.805.638.714 1.566 1.36-.526 1.94 1.942 2.79.694zm1.122-2.037c-.627-.034-.717.313-1.38.254-1.013.417.859-.243.653-.768.766-.14.525.49 1.076.514-.05.291-.341.142-.349 0zm10.894 19.941c.103.669 1.568 1.751 1.815 1.043.564.114-.3.645.374.715-.558.391-2.517-.207-2.457 2.233.62-.346 1.228-.703 1.033-1.835.705.652.297.655 1.44.326.76.733.005 1.18 1.83 1.766-.926.405-.631 1.988-1.009 2.923.628-.102.802-.643.684-1.466 1.108.227.694.237 1.79-.043-1.314 1.793.79.98-.675 1.827 1.216-.059 1.42 1.185.406 2.164 1.333-.241-.355 1.22 1.107 1.422.194 1.132-.943.98-1.035 1.836.23 2.229 3.301 1.444 3.662 3.533-.318.411-.663.13-1.782.405.146-.449.441-.754 1.058-.75-.354-1.208-.67-.163-1.798-.317.613-1.674-1.893-.624-.756-1.794-.911.56-1.7.983-2.124 1.139.864-1.01 1.875-4.05 1.643-6.56-1.253.554-1.23 1.286-2.847.794 1.794-.715-.204-3.295-.838-5.413-1.03.644.84 1.298.415 2.526-1.174-.115-.911-1.753-1.139-2.87-.359.244-.351.84-1.057.75.963 1 .563 3.097.805 3.965.711-.023.433-.999 1.416-.76-.096.853-1.091.838-1.4 1.484-.15.776.526.677 1.09.697-.213.328-.418.658.016.725-.937 1.133-2.312-.39-2.514-.301-.184-.77.496-.702 1.057-.75.393-2.023-2.15-.933-1.854-2.853 1.144-.347.517 1.18 1.457 1.051.497-1.117-.386-1.612-.432-3.25-.952-.092.38 2.02-1.04 1.474 0-1.498.812-2.256.61-4.723-1.578.07-1.856-3.79-3.686-4.62.755-.738 1.846 1.26 1.4-1.482 1.888-.272 1.353 2.026 3.262 1.731-.714-1.252-.168-1.951-.073-3.258-1.84-.48-1.64-4.852-4.783-5.679.213-.328.418-.658-.016-.724.144-.542.462.131 1.074-.026-.456-.77-2.652-1.612-2.897-1.378-.638-.312-.62-1.319-1.464-1.414.476-1.063 1.77.06 2.156.31.18-1.302-1.084-1.074-2.172-1.034 1.016.01-.066-4.41.676-1.827 1.194-.36.162-.678.317-1.82-1.535.8-2.714-.26-4.264 1.555-.083 1.133 1.015-.947 1.082.335.33-.274.528-.672.692-1.104.642-.061.765.425 1.44.327.028.853-.593 1.081-.309 2.182-1.71-.007-.494-.81-.764-2.156-.545.656-.437 1.942-2.117 1.501.068.423.66.289 1.082.336.203.702-2.494.477-3.205.803.672 1.105 1.1.166 2.514.3-.183.297-.36.597-.334 1.095 1.316-.774 1.092-1.36 2.848-.794-.342.379-.691.75-1.05 1.113.098.39.718.228.733.706.804-.222-.447-.554.334-1.095.302-.074.34.133.365.353l.717-.016c-.096.852-1.09.837-1.4 1.483.746 1.058 1.326 1.228.772 2.516 1.087-.195.631 1.255 1.79-.044.304-.074.341.133.366.354-.058.31.148.338.367.353-.1.494-.89.322-1.424.396-.042.788 1.273.134 1.798.32.238 1.15-.647 1.135.04 1.809.969.226.675-.765 1.05-1.112.486.226.684.758.749 1.43-1.043.062-1.394.434-1.75 1.855.107.93.605-.513 1.432-.036-.306 1.122-1.496 1.39-2.1 2.225.68.515.983 1.43 2.181 1.396.122.944-.096 1.56-1.042 1.474.403-.546.395-.923-.032-1.448-1.462.403-1.492 1.403-3.206.803-.068-.42.065-.646.342-.733-.018-.352-.445-.27-.724-.344.705-1.308 1.281.575 1.456 1.05.288-.075.349-.372.707-.38-.24-.362-.83-.353-.74-1.068.293.185.59.364 1.083.337-.496-.33-.751-3 .318-1.82-.734-.463-1.135-2.394-.432-3.25-2.307 1.407-1.445-1.075-2.205-2.481-.977-.009-.706.62-1.431.034-.184-.768.495-.701 1.057-.749-.315-.53-.918-.756-1.806-.681.355-1.217-.14-1.233.301-2.543-.074-.29-.366-.352-.374-.715-1.198.357-.024.811-.683 1.466-1.637-.692-3.692-2.651-3.67-3.895-1.6.543.871 1.232-.675 1.827.374 1.006.944-.549 1.44.328-.801.58-.658.77-.317 1.819-.941-.44-1.098-.769-2.156-.31-.05.423.093.642.374.716.017 1.015-.997-.838-.7.74-.76-1.221.103-2.429.26-4.352-.77-.62-.65-1.242-1.805-.68 1.001-1.748-.79-1.977-1.163-3.957 1.01.04.484 1.71 1.821 1.405.417-1.183-1.164-.248-.748-1.431.844-.013 1.04-.65 2.14-.414-.98-1.381-2.276.981-2.864.07-.08-1.023 1.057-.87 1.035-1.837-.068-.423-.66-.29-1.083-.336-.483.124-.277.914-.325 1.457-.408.763-.56-1.848-.774-2.517-.347.02-.267.45-.341.734-.349-.002-.288-.438-.374-.716-.388.1-.227.726-.7.742.578 1.019.988.101 1.465 1.413-.003.352-.433.291-.708.38.27.33.662.532 1.09.697-.503.734.4 1.259-.676 1.828.122.488.903.278 1.44.327-.573.792.324 2.4.788 3.24l-1.073.027c-.056-3.545-2.487-3.57-3.677-4.257.492.914.367 2.266-.684 1.466 1.011 1.275 2.33 2.225 2.953 3.912.817-1.135.21-.15 1.433-.035-.665.698-.002 1.882.764 2.155.352.661-2.044.271-.7.74-.087 1.204-1.14-1.384-1.432.036-.135-.52-.383-.752-1.456-1.051.168.687 1.037.63.756 1.793.716-.018 1.432-.036 2.148-.052.464 1.845 1.713 1.045.073 3.257 1.374.5.035-1.619 1.408-1.12-.39.454-.295.75.373.715-.297.894-1.99.44-1.748 1.854-1.164-.072-.906-2.36-.057-2.535-.444-.517-1.573-.31-1.115-1.783-.833-.096-1.373.091-1.781.406.097.39.717.228.731.705 1.005-.028-.874-.966.7-.74l.033 1.447c-.305.64-1.574-.231-.708.38-.472 1.06-1.28-.577-1.108-1.422-.724.245-.058 1.831-1.398 1.483.775 1.612-.723 3.397 1.155 3.594.06.648-.421.775-.326 1.458-.364-1.715-2.117-1.957-2.937-3.19-.357.645 1.077 2.551 2.213 2.845.284 1.1-.595 1.08-.31 2.18-.42-.047-.317-.652-.382-1.076-.661.482.037 2.031.049 2.171-.13.702-1.64.071-1.042 1.475-.43-.655-2.332.248-1.823-1.405.35.002.289.437.375.715 1.28-.687-.654-.982-.399-1.801.745-.171.953.225 1.44.327-.369-1.694-1.141-.547-2.156-.309.766-1.544.28-1.675.651-2.914-.767-.15-.67.534-.691 1.103-.566-.14-.331-1.13-1.448-.688 1.19-.385 1.519-1.605 2.824-1.88l-.033-1.449c-1.002.389-.885.552-1.416.76-.707-.909.706-1.028-.415-2.526.835-.487.668.03 1.782-.407-.337 1.032-.504.922-.684 1.467.094.52 1.072.1 1.091.698.921-.11-.506-.61-.033-1.449 1.95 1.137 1.034-.866 2.507-.06.623-.344.561-1.348 1.399-1.484-.075-.292-.367-.352-.374-.715-.643-.03-.745.462-1.424.397.285.315.403.808.391 1.44-1.124-.046-1.485-.899-2.181-1.396.144-.541.46.13 1.074-.027-.349-2.256-2.128.13-1.123-2.146-1.315.14-.964 1.63-.675 1.828-.309.765-1.033 1.13-2.124 1.139.5-.542.494-1.415-.74-1.07l-.048-2.172c1.126.685-.085 1.548 1.472 1.776 1.138-.843 0-2.037.651-2.914-.074-.292-.367-.351-.374-.715-.543 1.826-.759-.283-1.408 1.121-1.048-.29-.414-.533-.39-1.44-.752-.135-.943.272-1.424.398-.031.65.455.752.39 1.439.284-.198.573-.392 1.066-.388.014 1.194-.987 1.409-2.116 1.5-.542 1.44 1.55.09 1.457 1.052 1.073.656-1.127-.493-1.425.396 1.98-.158-.532 1.827 1.49 2.5-1.122.955-.964 2.164-.286 3.267 1.248.26 1.364-.574 2.498-.423-.623.869-1.55.677-2.831 1.518 1.692 2.205 1.138 2.47 1.903 5.025.91-.304.027-2.335 1.384-2.208-.685 1.415.21 2.016.796 3.603-.8-1.233-.58-.076-1.057.75.66-.425 1.715-.47 1.391-1.845.412.675.922 1.247 1.122 2.147-.48-.424-.566-.128-1.073.025.001.538 1.501 1.581.033 1.449.17.806 1.767.103 2.513.3-1.112 1.21-.241 1.581.415 2.525-.003.976-.78 1.761-1.408 1.121 1.093 1.203-7.685 1.44-7.168-.187-.905-.19-1.135-.336-1.823-1.404-.351.295-2.15.047-2.22-3.205l1.073-.026c-.196-.287-.387-.58-.382-1.078-2.093 1.074-.002-1.314-1.465-1.413-1.098 1.466.074 2.284.09 3.982-.754-.19-1.043-.872-2.165-.671-.289.076-.349.371-.708.38-.118.618.295.675.732.706-.172 1.191-1.372.587-1.09-.698-1.19.15-1.565 1.088-3.206.803.543-1.011 1.24-1.883 2.132-.777.435-1.44-1.334-.844-.398-1.801-1.509.67-4.455 1.908-3.564.812-.54-1.552-1.868.024-1.49-2.5-.704.382-.528 1.615-1.757 1.492.628-1.165 1.619-1.981 1.344-4.017-.915.062-.684 1.23-.669 2.19-.472-.117-.576-.624-1.09-.699.278-.913.95-1.446 1.017-2.56-.29.266-1.304 2.143-1.423.397-.99.653-.315.957-.31 2.18-.832.553-.648.78-1.78.407.29-2.43-.704-1.211-1.84-2.128.184-.758.541-.781 1.066-.388l-.032-1.449c-1.358.547-1.141 1.012-1.773.768-1.195-.512 1.187-.455.682-1.465-.34-.985-1.571.745-.73-.707-1.183.639-1.23-.2-2.515-.301-.32-1.016.483-.95.316-1.82-.573 1.534-1.25-.538-.74-1.068.409.06.208.358.008.362.406.738 1.452-.546 2.515.301-.038-.898-.764-2.6.318-1.819-.26-1.52-1.654-.434-2.173-1.033.049-.426.646-.322 1.065-.389-.26-.713-1.107-.802-1.463-1.413-.529.172.151.46.024 1.087-1.066.044-1.841-1.021-2.514-.301 1.515.438 1.804 2.45 3.27 2.093 1.077.211-.325.782.032 1.448-.763-.55-1.17-1.476-2.188-1.757-.779-.043-.134 1.287-.317 1.818-.838-1.248-.94.02-2.189-1.757-1.556 1.548 1.121 3.64 1.554 5.395.417-.069.287-.668.333-1.095 1.145-1.106-.673 2.624.756 1.793.334 1.148-.538 1.133-.675 1.828-.348-.002-.288-.436-.374-.716-.874.53-.605 1.263-.31 2.181.861.123-.235-1.644 1.05-1.113-.271.33-.366.828-.325 1.458.872.211 1.303-1.758.675-1.828.586-.416 1.984-.723 1.814 1.043l-1.073.026c.384 1.01 1.517-.137 2.147-.052l-.04-1.81c1.015.74.272 1.045.764 2.154-1.099-.235-1.296.402-2.14.415.652.905 1.594 1.768 1.09.697 1.342.66.888-.25 1.41-1.12.293.243.991.538 1.073-.027 1.112.335-.764.616-.692 1.103.374 1.007.944-.549 1.44.327-1.397 1.146-2.558 1.353-1.757 1.493.145.612 1.64.26.357-.01.323-1.208-4.6-1.2-3.278-2.455-3.345 2.723-2.093-1.933-5.419-2.04.455-1.583 1.474-.01 2.155.309.889-.273-.686-.95-.397-1.802-.889-.002-1.862-.24-2.19-1.757-.31.289-.799.409-1.423.397-.6-3.298-1.363-6.177-1.618-8.292.223-.374.814-.395.692-1.104.517.07.149 1.077.74 1.07-.492.548-1.125.805.374.714-2.755 2.401.631 4.882.87 6.861.28-1.028 1.198-1.442 1.741-2.215-.073-1.34-.541-.898-1.448-.69-.258-1.312 1.695-.488 1.757-1.491.89-.078 1.123.541 1.807.68.329-.274.527-.672.691-1.103-.865-.128-.761.68-1.782.405-.216-.734-1.091-.684-.389-1.439.39.08.258.714.732.706.035-.226.741-1.967-.408-2.163.552-1.061 1.33-.47 2.149-.053-1.53-1.454-2.676-4.577-5.483-4.937-.145-.613.264-.69.7-.741.049-.423-.094-.643-.375-.716 1.401-1.288 2.46-.148 3.597.637.286-1.665 1.481-.607 1.383-2.208.56 1.427 2.13 1.437 3.604.999.405-.965-1.742-.892-.024-1.086-.502-.21-.085-1.393-.749-1.43.595-1.19.96.917 2.158.309-.544.839-1.527 2.288-.295 2.904.787-.303-.117-2.239 1.392-1.845-1.133-.403-.08-1.31-.423-2.886 1.128.222.489.953.4 1.8 1.581-1.161-.136-2.99-.806-3.964-.765.23-1.065 2.717-.284 3.267-.512 1.21-.893-.73-1.799-.32l-.056-2.533c-.36.244-.353.842-1.06.75-.007-.36-.015-.724-.024-1.085.855.445.667-.064 1.8.318-.115-.901-1.37-1.176-.407-2.163-.6.64-1.42-.498-1.409 1.12-.972.896.626-1.712-.747-1.43.097-.196 1.569-.4-.016-.725.115-.478.617-.584.69-1.103-1.07-.073-.256-3.472-1.544-5.033 1.883-.069.58-1.159.667-2.19.767.773 1.082-.458 1.042-1.474-.827.178-.923 1.622-1.774.768.51.595.899 3.223-.651 2.913 1.128-2.09-1.249-1.174-1.838-2.128-.679.482.86.728.04 1.81-.335-.422-1.78-1.526-.764-2.155-.098-.39-.719-.228-.734-.706-.33.213-.52 1.019-.707.379-.625.102.567 1.333.756 1.793-.835.63-2.444-1.567-1.13-2.509 1.952.817 1.169-.65 2.482-1.147-.35 1.606 1.57.807 1.48 2.137.387-.099.227-.725.7-.74-.116-.742-.972-.7-1.456-1.052-.285-1.1.593-1.08.31-2.182.563.392.77 1.16 1.813 1.043.423-.143.353-4.149-1.497-2.861.063-.295.352-.37.342-.732-.288.075-.348.371-.707.38-.008 1.142 1.005 2.135-.668 2.188 1.15-1.615-1.32-3.689.277-3.629-.277-.638-.652-.036-1.075.027.523 1.982.008 2.76.113 5.068-.94.134-.938-.733-1.105-1.422-1.205.177.983 1.38-.692 1.104.24-.792-.417-2.295-.374-.715-.488-.1-.317-.9-.39-1.44.576-.116.624.327 1.081.336-.308-.413-.493-.96-.398-1.801.487.226.685.757.748 1.43.948-.972.476-1.258.301-2.543-1.574-.148-1.178-.084-2.513-.3.196-.344.983-.573.342-.733.08-.858.966.392 1.439.326.56-.141-.326-.63.343-.732-1.614-.902-2.004-.823-3.27-2.093.033-.676.208-1.216.683-1.466.093-.738-1.032.1-1.066.388-.369-.226-.389-.824-1.09-.697 1.934-3.9-.58-3.592 1.636-6.923 1.176.6-.909.972-.309 2.18.693-1.78 1.482 1.593.397 1.803.283.812 1.383.758 1.473 1.775.288-.076.35-.373.708-.38-.116-.741-.972-.699-1.456-1.05 1.082-1.229.725-.446.31-2.182.772.662 1.265 1.623 1.495 2.86.67-.286.226-1.085 1.068-.388-.41-.435-.33-.735.34-.732-.066-.423-.659-.29-1.082-.336.427-2.012 1.897 1.778 2.499-.423.78.524-.237.892.398 1.801-1.361-.764-.763.757-1.79.044.138.473.643.554.74 1.069.954-.26 1.339-1.07 2.116-1.501 1.863.659 1.726 1.69.009.362-1.36.902.187 1.064.056 2.534.348-.018.268-.45.342-.732.908.342-.25 1.607-1.042 1.474.067.423.66.29 1.082.336.694 3.731 4.146-.85 4.711 2.42-.834-.086-1.698-.868-1.415.759-.422-.048-.318-.653-.382-1.077-1.183.654-.38 2.626 1.48 2.137-.147.45-.442.755-1.058.75.091 1.14 1.94.417 1.83 1.767-.357.01-.716.018-1.074.026-.088.587.352.615.382 1.077.405-.078.19-.368-.008-.361.291-.546 1.14-.552 1.775-.768.088-.588-.353-.616-.383-1.078.493-1.084.51 1.395 1.106 1.421-.048.426-.646.323-1.066.389.19.135.57 1.746.733.707.703.59-.906 1.498-1.424.397.672 1.118-.106.19-1.058.75 1.237-2.26-1.009 1.51-1.782.406-.315 1.311 1.624.666 1.431-.035 1.078.212-.324.782.033 1.448-.54-.406-.912-.397-1.431.035.373 1.006.942-.548 1.439.327.418-.068.288-.667.335-1.095.533.176.912.515 1.448.69.195 1.132-.943.98-1.034 1.836.073 1.34.542.898 1.448.689.038-1.182-.88-1.722.675-1.828-.222.353-.423 2.134.033 1.449 1.091.516-.773 1.102-1.042 1.474.254.286.579.978.025 1.086.218.813.547-.453 1.082.336.272-1.031-.526-.926-.398-1.801.977.796 1.81-.587 1.05-1.113.716-.616 1.981 1.342 2.203 2.482-.606-1.188-1.087-.18-1.05 1.112.575-.746 3.058-.872 2.89 1.016.418-.069.287-.667.333-1.094.63.314.954 1.246.398 1.8-.976-.17-.898-.268-2.163-.67.11 1.311 1.806 2.26 1.146 3.23.46-.445.56-.153 1.074-.025.484-.125.277-.914.326-1.457-.978-.621-.657 1.61-1.066.388.058-.31-.148-.337-.367-.353 1.88-1.948 2.4-1.223 4.956-2.657-.828-.24-1.543-.224-2.18-1.395-.778-.042-.134 1.288-.318 1.819-.938-.365-.55-2.135-1.49-2.5-.417.069-.286.668-.333 1.095-.733-.86-.573-.35-1.805-.68-.184-.769.495-.702 1.057-.75-.328-.633-1.158-1.03-.398-1.802-.939-.079-1.537.17-1.408 1.122-.498-1.573-1.838-2.253-2.237-3.931-.414.428-1.257.441-2.14.415.583-.617 1.708-.713 2.115-1.5.838.224.985 1.179 1.824 1.404.68-1.368-.333-1.757.275-3.63.54.295.79.893.758 1.793.407-.138.893-.659.34-.732.335-1.126.61.77 1.092.697-.224.492-.75.693-1.415.759 1.641 1.984 1.955 1.587 3.628 2.085.92-.11-.506-.61-.033-1.448 1.223.864.414 2.773.064 2.896.362.482 1.219.44 1.457 1.051-.3.996-.825-1.082-1.432.035.334.634 1.464.426 1.114 1.784.365.576.974.81 1.44.327-.082-1.048-1.668-2.409.303-2.542-.583 2.97 1.593 4.972.868 6.86.363.481.972.7 1.457 1.051.242-1.122-1.244-.41-.757-1.792.712-.013.478.977 1.449.69-.017-.353-.445-.272-.724-.346.08-.747 1.326-.373 1.408-1.121 1.181.348-1.709 1.707.749 1.431-.05.425-.647.32-1.066.388.196.287.386.579.382 1.077.358-.362.707-.733 1.05-1.112.68.676-1.047 1.326 1.107 1.422-.47.61-.889 1.269-1.76 1.491.087-.649-.355-.734-.365-.352-.587-.343-.845-.946-.39-1.44-1.24-.015-.48 1.898-1.384 2.207-1.592-2.11-1.154 2.6-2.116 1.5.366 1.466 2.211 1.364 2.22 3.207.621-.347 1.23-.704 1.035-1.837-.382 2.034-2.147-2.407-.781-2.878.612.22.242.826-.342.733 1.935 1.31 2.617.554 3.963.99.128.831-1.027.427-1.05 1.112-.145 1.812 2.066.094 1.115 1.784.436-.17.725-.482.691-1.105 1.107.064 1.127 1.277 1.831 1.768-.144.54-.462-.132-1.074.026-.496 1.39 1.602.032 1.107 1.421.871-.847 1.16-2.803.992-3.646-.438-.513-1.776-.506-.382-1.077-.218-.814-.549.452-1.082-.336-.558.17-.28 1.146-1.416.759.135-1.02.746-.446 1.766-1.13-.45-.73-1.297-2.284-.797-3.603-1.2.025-1.925-.896-3.279-2.455 2.158-.524-.47-1.536.643-3.276-.117-.74-.971-.7-1.456-1.052 1.07 1.029.062 2.087.797 3.603-.974-.079-.868-1.304-1.822-1.404-1.202-.866 1.216.849.7-.74-.601.45-1.045-1.915-.025-1.088-.055-1.176-.502-1.938-1.48-2.137 1.027-2.026-.26-4.063.587-5.81-.098-.39-.72-.228-.733-.706-.43 1.848-1.54.856-2.824 1.88.682.628-.27.927.048 2.172-1.574.526.127-1.922-.733-.707-1.32-.537.821-.56.327-1.457-.634-.602-.937.08-2.157-.31.867-.436-.576-1.827-.365-.352-.84-.073-.242-1.585-.04-1.81.339.257.557.645.74 1.067.308-.335.038-1.069.309-2.18-2.097-.252-1.108 2.472-3.539 1.898.708-1.555-.015-.61-1.082-.335.211-1.343.756-2.575.276-3.63l-1.432.035c-.283-1.1.337-1.328.31-2.181-.36.244-.352.842-1.058.75-.01.989.612.715.031 1.449-1.276.22-1.702-2.367-1.138-2.87-.337-.878-2.007-.344-1.83-1.767 1.012.14 2.538 2.062 3.23.284.57.508.739 1.44 2.172 1.034l.024 1.085c-.606.148-.68-.266-.73-.706-.89.169.008 1.404.738 1.068.691-1.39.658-2.882-.089-3.982a12.067 12.067 0 0 1 1.832 1.767c.863-.386-.737-1.585 1.04-1.475-.462-1.093-1.353.563-1.797-.318 1.171-2.481-1.573-3.235-.105-4.707-1.154-.288-1.108.585-1.408 1.121-.744-2.152-3.193-1.33-2.587-3.559-1.126-.142-.988.935-1.4 1.484.242.362.832.354.74 1.068-.464.482-1.32.51-1.44-.327-.314.169-.632.333-.7.742 1.476.275 2.3.524 3.279 2.455 1.11.034 1.582-1.313 1.034-1.836-.977-.622-.656 1.611-1.066.388l-.716.017c.241-.298.534-1.005-.024-1.085 2.297-.469 2.706 1.712 3.637 2.446-1.582.29-.199 1.386-1.017 2.56-.853-1.072-.027-1.615-1.449-.688.033-.9.027-1.76-.757-1.793-.179.823.38 1.655-1.065.389-1.035.34-.391.55-.326 1.456-1.798-2.029.414-2.438-2.245-4.292 1.804-1.796 1.603-2.085 2.774-4.052.567.142.332 1.13 1.45.689.242-1.122-1.246-.412-.757-1.793l-1.433.035c1.794-1.849.425-3.906.237-5.439.133-.356 2.77-.241 2.18 1.395-.48-.422-.565-.127-1.074.027.595.267 1.995 1.153.024 1.086.727 1.236 1.42-.479 2.142-.415-.523 1.057.035 1.132-.303 2.543-.39-.08-.259-.714-.732-.706-.758.356.708 1.438 1.814 1.042-.155 1.263-2.26.84-2.156-.31-.881 1.386 1.243 1.614.797 3.604.83-.127 1.657-.951 1.448.689 1.08-.493 1.841.441 1.759-1.493-.348.02-.268.45-.343.733-.36-.606-1.01-.905-2.163-.671.39-.456.294-.752-.376-.716.648-.793 1.522-1.366 2.1-2.224-.077-.41-.364-.193-.359.009-1.029-.392-.883-2.028-1.494-2.862.436-.95 1.7-.204 1.773-.768.994.132.044 1.139-.7.742.358.737-.34 2.218 1.83 1.766.031-.65-.455-.753-.39-1.439.51-.206.906 1.39 1.082.336.194.098.392 1.586.716-.018 1.21.301.193.669.398 1.802a1.815 1.815 0 0 1-1.098-1.06c-.588-.15-.54 1.988.04 1.81-.125.905-1.387.055-1.089-.698-1.14.609 1.29 1.323.049 2.172-1.01.093-.93-1.403-1.433.036 1.095 1.146 2.166-.724 2.839-1.157.536.146-.13.467.025 1.086.879-.835 2.084-2.05 2.84-1.156.025 1.081-2.2.259-2.1 2.225-.789.219-.526-.679-1.09-.698-1.296.601.844.521.39 1.44.612.118.67-.299.7-.742-.05 2.37-.135 1.38-.26 4.353 1.757-.37.586-1.492 1-3.284 1.116-.194 1.162.745 1.115 1.783-.292-.062-.365-.354-.725-.343 1.03 1.202.115 2.422 1.148 3.231.499-.14.016-.639-.375-.715a1.824 1.824 0 0 1 1.05-1.113c-.97-1.182.022-2.01-1.163-3.956.508.574 1.713.408 1.473 1.776.462-.382 1.312-.387 1.773-.768-.16.378-1.033 1.578.416 2.525-.664 1.033-1.31-1.053-1.474-1.775-1.697.654-.292 1.958-.293 2.905.162-1.103.466-.382 1.791-.044-.27 1.52.733 1.693.781 2.879.943.084.25-1.412 1.407-1.121-.001.619.287.931.74 1.069-.908.302-1.334 1.073-1.017 2.56.31.334.887.218 2.156.31-.439.949-.715 1.155-1.774.767 1.168 2.346 2.042 5.002 4.784 5.679a33.382 33.382 0 0 0-1.098-1.06c.034-.902 1.21-.136 1.432-.035.01-.988-.613-.714-.033-1.448-.446.506-1.679.536-2.148.053-.06-.65.422-.775.326-1.457-.328.273-.528.671-.692 1.103-1.325-.413.82-2.201-.414-2.525-.996.38.542.953-.326 1.457-1.941-.895 1.184-2.557.643-3.276.212-.854.492.915.032 1.447 1.063-.746 1.282-2.305 2.808-2.603-.074-.292-.367-.353-.374-.716-.422.42-.626 1.05-1.774.768.5-.542.494-1.414-.74-1.069.603-.362.759-1.156 1.033-1.836-.074-.291-.366-.352-.374-.715-.592 1.036-.424.85-1.408 1.12-.021.684.497 2.629.757 1.794.458.07.493 1.069.025 1.086-.24.006-.479.01-.717.017-1.666-2.598 1.32-3.19-.113-5.068.132-1.006 1.126-.047.732.706l1.075-.026c.031-1.27-1.286-1.108-1.831-1.767-.468.14-.55.651-1.059.75.021.72.987.438.75 1.432-1.84-.42-.356 1.064-1.05 1.112-1.072-1.333.473-2.955-.114-5.068l-.716.017c-.473.262.2.961-.319 1.82-.699-.797.303-2.596-1.495-2.863.08-.395.705-.263.7-.74.42.047.316.652.382 1.076.315-.168.633-.333.7-.741-1.834-.97-1.979-1.679-2.938-3.189.902 1.02 1.062-1.605.675-1.827-.381.694-.864 1.291-1.025 2.198-.94-.44-.2-1.72-.756-1.792.864-1.41 3.862-.76 3.506-3.346.567.513.784 1.393.774 2.516.24.363.831.355.74 1.07.797-.762-.87-2.267-.073-3.259.512-.206.906 1.39 1.083.336.994.131.044 1.138-.7.742.44.464.152.565.025 1.085.315-.168.632-.333.7-.741 1.004-.02-.832 1.009.731.706-.807 1.085-.61 1.692.415 2.525.118 1.059-.785 1.133-.667 2.19-1.994.113-1.798.21-2.116 1.501.118.537 1.497-.428 1.806.68.419-.068.288-.667.334-1.095 1.274.838 1.685.387 2.188 1.758.36-.244.352-.84 1.058-.75-.098-.453-.72-.348-.716.018-1.056-.38.43-1.189 1.05-1.113-.767-.391-1.042-.114-2.164-.672.73-.738.996-3.231.627-4 .327-1.118.964.393 1.44.328-.002.352-.432.29-.707.38.24.362.83.353.739 1.068.687-.164.252-1.41 1.408-1.121-.235.874-.139 1.337-.293 2.905-.819-.245-1.095-1.063-1.473-1.775-.894.617 1.189 1.182.773 2.516.312-.289.8-.409 1.423-.397-.083.747-.939.746-1.407 1.122 1.275.426 1.102 1.71 1.187 5.042-.819-.244-1.095-1.063-1.472-1.776-.416 1.015-1.152 1.723-1.733 2.578 1.049-.05 1.31-.86 1.757-1.491.816.246.814 1.361 1.822 1.403-.108 1.58.332 2.003 1.466 1.414-.062.295-.352.37-.343.733.289-.076.349-.372.709-.38-.03-1.329-1.286-1.357-1.84-2.128-.184-.77.497-.702 1.058-.75-1.594-.716-.724-1.076.668-2.19-.168-.534-.455.154-1.074.026-.232-1.708 1.889-.914 1.798.319-1.813.712.245 1.108.74 1.068-.292.545-1.14.552-1.774.767.196.288.387.58.383 1.077 1.403-.515 1.567-1.68 1.733-2.577 1.628.608-.568 4.64.853 6.137-.051 1.515-1.34-.378-1.773.768.257.34 1.625-.222 1.814 1.043.662-.072.193-1.232.684-1.466.339.197.564.994.724.344.074.584.683.434.757 1.793-1.415.095.102-.559-.741-1.069-.943 1.038 1.203 3.272-.27 3.992.076.291.368.352.375.715-.257-.868 1.406-1.334.667-2.19.62-.87 1.437 1.17 1.132 2.508-1.446-1.151-.017.687 1.09.698-.164.925-.579 1.418.748 1.43-.354.485-.321 1.343-.676 1.829.336.395.669.097 1.798.318-.183.295-.36.596-.333 1.094-1.33.42-1.04-.873-2.165-.67.467-1.159.052-1.214-.056-2.536-1.393-.281-.55 1.596-2.124 1.14.66-.663.763-1.439-.049-2.173-.332.115-.313.987.024 1.086-.218.62-.817.247-.723-.345-.314.231-.631.454-.716.018-.918 2.419 1.539 2.34 3.287 2.818-.199 1.123-.6 2.856.423 2.887-1.126.82.297 3.406-1.019 2.56.24 1.352 1.374 1.757 1.855 2.853.433-1.823-.594-2.463-1.162-3.956.962-.183 1.72.28 2.18 1.395.547-1.265-.325-.865 1.424-.396-.4-2.19-2.689-.097-2.92-2.464 2.097 1.29.384-1.258 2.122-1.14.402 1.393-.152 1.496.416 2.526.507-.443.502-1.796 1.065-.388a1.827 1.827 0 0 0 1.05-1.113c-1.555-.756 1.013-1.538.277-3.629 1.914.967-.577 2.293.448 3.974.407-.55 1.477-.463 1.399-1.484.897.487.66 1.233.407 2.164 1.793-2.84 1.311-3.621.22-6.163-1.093.51.703 1.594-.31 2.182-.687-2.774-1.29.726-2.196-2.121.678-.172.882-.801 1.773-.768.086-.955-1.394-.25-1.106-1.421-.611-.119-.669.298-.7.741-.938-.41-.704-1.222-.406-2.163.888 1.621 1.011-1.24 1.018-2.56-1.485.887-.356 1.154-2.499.422.167.565 1.134.282.749 1.43-1.931-.49-2.473-4.47-1.561-5.756-.768-.15-.671.533-.692 1.103-1.15.476-.3-1.164-1.449-.69-.03-.618.245-.943.692-1.103-1.873.35-2.044-2.247-3.628-2.084.071-.64.597-.84 1.415-.76-.172-2.004.028-2.2-.788-3.24-.328.628-1.172.758-1.4 1.483.335.634 1.464.427 1.114 1.784-.417-.049-.635.095-.707.38-.75-.983-.826-3.44-1.547-5.034-.7.947.148 1.465.424 2.888-1.385-.015-1.445-1.434-2.546-1.75-.689-.958 1.098.435 1.448.69.778-.264-.705-1.186-1.107-1.422.427-.286 2.041.307.342-.733.94-1.285 2.122-.384 1.734-2.577 1.006.662.535 2.891 2.213 2.843-.337-.88-1.103-1.303-.781-2.879.82 1.338.455-.43 1.44.327-.25-1.367-.986-.103-2.164-.67.224-.376.814-.397.691-1.104.735.183.727 1.071 1.44.326-1.34-.575-1.16-1.772-1.13-2.508.79.767.967 2.187 1.855 2.853-.568 1.464-.264 2.16-.644 3.275-.04.908.576 1.12 1.106 1.422-1.18-1.45.043-2.978-.097-4.344.862.374.893 1.756.049 2.172 1.456-.249 1.076 3.36-.293 2.905.01.853.64 1.05.406 2.164 2.65-2.043 1.217-1.597.994-3.647.738.181.838-.712.342-.733.173-.26 2.491 1.444.756 1.793.074.291.367.352.374.715.944.084.25-1.412 1.407-1.121-.329 2.043-1.279 3.124-.252 4.715-.856-.511-.683-.748-1.798-.318-.135.76.267.953.39 1.44.449-.101.345-.73-.016-.725.208-.89 1.672-.096 1.798.318.288-.075.348-.371.708-.38-.213-1.009-.567-1.869-.781-2.878 1.169.42.248-1.177 1.416-.759-.355.942-1.206 2.079.049 2.172-.381.851.098.968-.676 1.829.16-.017 1.56.789 1.798.317 1.157.69-.69 1.426-1.766 1.13.967-1.069-1.23-.873-1.822-1.404-.294 1.177 1.179.48 1.456 1.05-.984.232-1.087 1.312-1.383 2.208.024.851.973-.156.7-.741.755.837-1.135 2.744.788 3.24.406-.078.19-.368-.008-.362.182-.823.569.426 1.067-.388-.101-.636-.635-.81-1.449-.69.884-1.522 1.465.603 2.856-.431-.734-.72-.114-.962.326-1.457-.22-.814-.549.452-1.082-.336.08-.749 1.583-.125 1.407-1.121.703.137-.562 1.048 1.09.699-.945 1.213-1.72 2.59-2.416 4.043-.042.908.821.858 1.106 1.422-.144.54-.461-.132-1.074.026.33 1.008 1.881.724 2.538 1.387-.515.793-1.019-.372-1.415.759.448.156 1.801.794 1.122 2.146.707-.382.53-1.615 1.757-1.492-.145.449-.441.754-1.058.75.206 1.036 1.597 2.73 2.547 1.749.046 1.038-.06 1.93.448 3.974.473-.285.587-2.694.3-2.544-.134-1.129 1.056.896 1.067-.388 1.113.335-.763.616-.692 1.103.169.535.455-.153 1.074-.026-.883 1.065-.356.638.04 1.81-.983-.239-.704.737-1.415.76-.093.738 1.033-.1 1.066-.388.504.115.044.637-.342.732.678.682.662.27.39 1.44 1.001-.407.414-1.446 1.774-.768-.466-.793-1.661-.94-.398-1.802-.167-.442-.475-.732-1.09-.697-.06-.65.42-.774.325-1.457.421.048.316.652.382 1.077.627-.102.802-.643.683-1.465-.098-.454-.72-.348-.715.017-.643-2.478 1.883.859 1.465 1.414-.148.53-.316-.03-.717.016-.047.792.319 1.145 1.098 1.06-.145.45-.44.755-1.057.75-.351 1.36 1.355.542 1.114 1.785-.803-.672-1.814.605-2.848.794-.487-.948-1.881-.36-1.114-1.784-.359.244-.352.841-1.058.75.374.497 1.698 1.868 2.172 1.034.338.515 2.565 2.379.406 2.163.386.799 2.404.227 2.133-.776.303-.074.34.132.365.353-.058.31.147.339.367.353-.06.413-.354.21-.359.01-.735.116-.05 1.604-1.04 1.473-.152 1.148 1.779.091 1.464 1.413 1.317-.837-.93-.948-.408-2.164.726 1.544 1.862-.405.701-.74.942-1.849 2.464 1.815 1.432-.035-.329.273-.528.671-.692 1.103 1.791.66-.033.54.382 1.078-.514.137-.744.387-1.04 1.474-1.537-.654-2.271-2.71-3.597-.637l-.033-1.448c.51.018 1.016.035 1.066-.388-1-.275-1.687-.521-2.514-.301.713 1.183.154 1.568 1.123 2.145-.537-.077-1.113.84-1.782.406.074.292.367.353.374.716.866.127.763-.68 1.782-.406-.878.57-1.234 1.643-1.001 3.285.01-2.269 1.53-.754 1.033-1.837 1.165-.847 1.137 1.46 1.807.68 1.091 1.077-2.125 1.003-1.734 2.579-1.193.296-3.383-2.237-1.472-1.776-.642-.722.25-.715-.39-1.44-.736.119-.308 1.358-1.043 1.475-.165 1.288 1.288.86 1.123 2.147-.348-.002-.288-.436-.374-.716-.417-.048-.635.095-.708.38-1.005.02.83-1.009-.732-.707.593-1.13-.691-3.705 1.367-2.931-.473-.734-.612-1.822-1.83-1.767.073-.849 1.568-.246 1.79-.044-.006-1.352-2.26-.323-2.54-1.386-.926.167-1.055 1.107-2.123 1.138-.407-1.756-1.016-1.095-2.538-1.386.605 1.408-.253 1.553.423 2.887 1.163-.673-1.007-2.364 1.025-2.199-.618 2.634.99 3.39.48 5.423 1.304.314.328-1.572 1.032-1.837.67.893-.003 1.495 1.123 2.146.273-1.114.525-2.775-.804-3.965-.533.328.11.54-.327 1.457-1.236-.737-.157-1.048-.048-2.173a.848.848 0 0 0 1.416-.758c.538.294.79.892.756 1.792-1.127-.865-.305 1.826.399 1.802-1.518 1.225.1 2.398.455 4.335.098-2.743 3.41.595 4.24-2.639.294.245.993.54 1.073-.026.401-.048-.3 2.888-1.033 1.836l.016.724c1.002-.441.307 2.134 1.84 2.129-.581.734.041.46.031 1.448-.29-.062-.365-.354-.724-.345.41.436.328.736-.341.733.656.294 1.007.909 1.813 1.043-.413 1.106-1.372-.223-1.797-.32.414 2.363 3.848-.642 3.628 2.086-.641.062-.764-.425-1.44-.327 1.039.474.025 1.65 1.83 1.766-.655.706-.018.91.04 1.81.36-.244.352-.841 1.06-.75.89.407-.704 1.385.397 1.802-.248.65-.65.068-1.073.025.074.293.367.353.374.716 1.4-.502 1.081-.61 2.49-.785-.42.486-.127.573.024 1.086.627-.34.423-1.48 1.765-1.13-.33 1.098-1.23 1.647-1 3.285.327-.274.527-.672.692-1.104-.004 1.244 2.16 5.53-.922 6.905.796-.767-.295-3.355.994-3.646.453-.92-1.687-.839-.39-1.44-.123-.488-.904-.278-1.44-.327.354-.485.32-1.343.675-1.828-.316-.53-1.165-.496-1.806-.68-.698.893.684 2.72.089 3.982.822-.29 1.634-1.483 1.798.32-.292-.187-.59-.365-1.083-.337.37.473.615 1.078 1.107 1.422-1.033.846-.54-.882-1.456-1.051-.608.392-.397 2.13-1.408 1.12-.088.588.352.616.383 1.078.315-.168.633-.333.7-.742.136.869-.357 1.214.763 2.155-.291-.184-.589-.363-1.082-.336z" fill="#FFF"/></g></svg>