<svg width="1440" height="160" xmlns="http://www.w3.org/2000/svg"><path d="M202.488 97.874c-.605-.198-.483-1.104-1.04-.447-.217.526.63 1.045 1.04.447zm3.42-90.914c.309-1.033 1.08-.894 1.416-1.855-1.256-.634-2.271-.66-3.045-.08 1.03.452.05 1.703 1.63 1.935zm1.857 1.414c-1.043-.095-2.782-1.943-3.342-.822 1.043.093 2.782 1.941 3.342.822zm5.563 4.242c.22-.723 2.789-.657 1.415-1.853-.619 1.017-1.074-1.377-2.007.368.686.3.082 1.115.592 1.485zm-4.38-1.268c.999.344 1.883.405 2.526-.145-.972-.278-2.377-1.644-2.526.145zm-2.75.663c-.684-.302-.083-1.115-.591-1.486-1.526.056-.474 2.696.592 1.486zm4.749 3.277c.288.126.77-.167.223-.52-.954.848-1.946 1.6-2.9 2.446 1.404 1.366 1.12-1.51 2.524-.143.332-.706.248-1.247.153-1.783zm1.551 4.979c-.605-.197-.484-1.104-1.039-.447-.22.527.63 1.046 1.04.447zm25.98 11.185c.557-2.698-2.052-3.732-3.781-4.09.246.762 1.846.986.887 2.23 2.972-1.078 2.149 1.675 2.894 1.86zm-11.064-2.914c-.94 1.51.56 2.55 1.336 1.19-.724-.286-1.035-.736-1.336-1.19zm13.576 11.386c-.581-.38-.072-.713.446-1.037-1.242-.96-1.466.64-2.23.886.647.183 1.437.725 1.784.151zm-42.982-16.042c-1.136-.724 1.001-4.853 3.5-5.268-1.891-.108-.912-1.359-1.632-1.934-1.612 3.011-1.778 3.275-3.427 6.53.52.225 1.039.449 1.559.672zm28.786 20.402c-.724-.222-1.18-2.58-1.854-1.415.725.22.658 2.788 1.854 1.415zm8.09 4.099c-.605-.198-.482-1.104-1.039-.447-.22.527.629 1.046 1.039.447zm-10.32-3.211l.448-1.04c-.523-.222-.437-.687-.816-.966-.165.304-.342.58-.743.295-.057.454-.427 1.032.073 1.263.38-.58.713-.07 1.038.448zm-43.883-9.657c.38-2.94 4.88 3.032 2.526-.143-1.214-1.638-2.445-2.088-2.526.143zm42.607 18.345c1.402-1.235.53-2.014 2.676-1.926-.755-2.617-4.63.946-2.676 1.926zm-11.656-4.402c-.815-.246-1.838-1.011-2.302-.375.816.245 1.838 1.01 2.302.375zm47.651 22.364c.903-.868.415-3.215-.367-2.006.854.379-.331 1.567.367 2.006zM175.63 35.804c-2.131-.443-2.21-1.702-3.933-2.309-1.295 1.553 3.37 2.918 3.933 2.309zm115.42 50.928c.83 1.047.86 1.035.744-.295 1.756.067-.556-.904-.744.295zm-91.008-36.104c.884-.702-1.987-.666-1.782-.154.252.632 1.645.263 1.782.154zm50.77 23.705c-.648-.18-1.437-.723-1.784-.15.647.181 1.436.723 1.783.15zm8.385 4.843c.413-.882.174-1.504-.368-2.006-.413.88-.174 1.504.368 2.006zm35.924 16.699c.998.346 1.883.406 2.526-.143-1.123-.656-2.008-.716-2.526.143zM206.046 58.14c.169-.557 2.694-.086 1.19-1.335-.044.867-2.57.395-1.19 1.335zm83.88 35.498c4.467 1.821 2.676 2.535 2.972-1.183-.878-.04-2.424-1.764-2.822-.599.955.756.752 1.285-.15 1.782zM198.18 53.52c1.149-1.012-.914 1.453.887 2.23.752-1.16-.462-1.538.6-2.822-.81-1.054-2.83-.25-1.487.592zm97.531 43.841c.289.127.771-.166.224-.52-.314.653-.975.434-1.192 1.337.255.288 1.446 2.152 2.079.895-.905-.36-1.159-.975-1.11-1.712zm-33.26-10.01c1.718-.368 2.52 2.257 4.084.528-1.581-.232-.601-1.484-1.632-1.934-.332.608-.684 1.162-1.485.59.056-.452.426-1.031-.072-1.26-.3.69-.598 1.385-.895 2.077zm26.723 10.89c-.647-.18-1.437-.724-1.784-.152.647.182 1.437.726 1.784.152zm-141.777-59.81c.525-2.288 3.407 1.35 3.715-1.48-2.804.976-3.726-2.531-5.641-1.199 2.172.283 1.205 1.817 1.926 2.678zm60.864 27.437c.696-.415 1.286-1.099 1.639-2.375-1.224-1.477-2.525 2.101-1.639 2.375zm2.598 1.119c.413-.883.173-1.505-.367-2.007-.286.725-.737 1.035-1.193 1.335l1.56.672zm82.838 35.05c-1.814-.85 1.845-1.242.154-1.782-.852 1.116-.14-1.892-2.376-1.638.355 1.036.448 4.376 2.222 3.42zm-138.065-56.98c.873.916 2.913-.342 1.71-1.11-.4.797-1.5-.165-1.71 1.11zm-19.745-8.502c-.798-.4.164-1.5-1.111-1.71-.918.875.865 2.706 1.11 1.71zm144.742 62.937c.15-.347.3-.693.448-1.04l-1.038-.448-.448 1.041 1.038.447zm18.41 7.31c3.682-1.758-2.908-.114-.223.52.038.009.176-.497.223-.52zM143.754 41.173l.446-1.039c2.615.589 1.116-.952 3.493-.96-1.276-.352-1.959-.942-2.374-1.638.855 2.517-2.6 1.581-1.565 3.637zm19.519 9.021c1.208-1.248 1.111-4.106-.663-2.75 2.516-.235-1.365 4.208.663 2.75zm46.612 21.917c.182-.646.725-1.436.152-1.782-.443.688-1.233.507-1.71 1.111.518.224 1.038.447 1.558.67zm14.55 6.265c.058-1.783 3.322-.857 2.156-2.151-.165.304-.34.581-.742.295.057-.453.427-1.031-.073-1.262-.777 2.318-2.155 1.448-3.27.44-.868 1.494 1.23 1.807 1.928 2.678zm45.948 19.167c-.984-.18-1-1.345-1.56-.672.305.166.582.342.295.744-.329-.107-.648-.187-.742.295l1.04.447c.222-.52.686-.436.967-.814zM259.39 95.89c1.122.655 2.008.716 2.526-.145-.971-.278-2.376-1.643-2.526.145zm-30.064-11.713c-.605-.198-.484-1.104-1.038-.448-.22.528.628 1.047 1.038.448zm-94.94-38.414l.446-1.039c-.521-.224-.437-.688-.815-.967-.302.838-.846 1.772.369 2.006zM260.279 98.12c.323 1.04-.167 3.893 1.63 1.934-.352-.29-1.018-.456-.815-.968.223-.52.688-.436.967-.815l-1.039-.447c-.33-.107-.649-.187-.743.296zm15.436 8.493c-.647-.181-1.436-.725-1.783-.15.647.181 1.437.724 1.783.15zm-22.942-6.798c.34-.581 1.433-.778.673-1.558-.34.581-1.433.779-.673 1.558zM281.8 111.08c-.388-.235-.836-2.395.151-1.782-.118.618.318 1.616.817.967-1.036-.646 1.058-2.23 1.637-2.374.417.965.357 2.027 1.559.671-.905-.357-1.16-.972-1.111-1.71.646.183 1.436.724 1.782.152-2.16-.794 1.537-2.539 2.086-3.414-1.568-2.506-.137-5.9-4.893-5.803.534.361.56.926.591 1.487-1.181.081-1.066-2.304-2.077-.895 1.508 3.831-1.154-.397-.823 3.342-.83-.117-1.146.246-1.56-.67-1.052 3.866-2.54.026-5.203 2.07 2.124 1.452 1.774 8.122 4.301 4.315-.062 1.604 1.34 2.624 1.256 4.236.29-.353.456-1.018.967-.815-.126.288.167.772.52.223zM168.6 63.574c-.677-1.378.238-1.806-.143-2.526-.928.556-2.155.355-2.678 1.927 2.436-.702 1.843.48 3.414 2.086.04-.878 1.762-2.425.598-2.823-.344.576-.546 1.513-1.19 1.336zm16.477 8.94c1.528-.567.972-2.211.078-3.045.199 1.59-.008 2.248-.078 3.046zm6.682 1.647c-1.243 1.895 1.456 2.642 2.077.895-1.397-.658-1.418.414-2.077-.895zm34.956 17.514c.656-1.121.717-2.008-.144-2.525-.279.971-1.643 2.376.144 2.525zm32.215 13.87l.449-1.039c-.523-.223-.438-.688-.817-.966-.301.837-.845 1.77.368 2.006zM164.363 64.83c-.415-.695-1.097-1.285-2.374-1.638-1.477 1.223 2.1 2.524 2.374 1.638zm74.966 34.742c1.477-1.225-2.1-2.526-2.374-1.639 1.654.203 1.032 1.312 2.374 1.639zm-49.57-29.35c-.253-.29-1.444-2.155-2.079-.896.253.29 1.444 2.154 2.079.895zm7.484 11.228c1.225-.164 1.97-1.539 3.196-1.704-.735 1.866 2.194-.363 1.336 1.192-1.103 1.316-1.03.249-2.303-.375-.882 2.68 4.505 3.499 4.9 1.493-.959 1.243.642 1.468.888 2.23.335-.962 1.04-.994 2.006-.367.719-2.163 2.374-1.966 3.645-2.742-.7-1.213-2.88.312-3.118-1.343.285-1.09 1.145-.729 1.71-1.112-.608-.332-1.162-.685-.591-1.486-.807-.59-1.665.197-1.559-.671.821-.338 1.437-1.769 1.119-2.599-.664-.787-3.467-2.67-4.677-2.013 1.593 1.75-2.007-.91-2.006.368 2.403 1.659-2.216.058-1.12 2.599-1.028-2.033-2.779-.55-2.453 1.406-.815-1.886-2.64-1.774-3.781-4.091 2.298 1.381 2.445-1.868 4.084.527 1.615-1.648-2.278-1.103-.663-2.75 2.192.296 1.397 3.27 3.117 1.342-1.925-.903-1.35-1.705-2.15-2.157 1.925-.279 2.747-3.418 4.459-1.776.845-1.209 1.473-1.522.6-2.822-.29.352-.457 1.02-.967.816.359-1.291.02-2.304 1.046-3.861-1.182.08-1.067-2.303-2.078-.895.51.368.88 1.393.072 1.263.173-.642-.578-.919-1.336-1.19 1.85-1.307-.321-3.07-2.15-2.159.337-1.081 3.16-1.272 2.158-2.15-2.302.885-4.225-3.077-5.117-5.283-.4.796-.705 1.832-1.71 1.11.041-.876 1.763-2.422.6-2.82-.357.906-.975 1.16-1.711 1.113.942-3.544-4.663-1.865-.072-1.265-.346.578-.546 1.514-1.191 1.335.331-1.136-2.222-1.124-2.15-2.158.48 2.661.936 3.04 2.589 5.428-2.45-.658-1.534 2.65-3.349 3.486-.068-2.01-1.291-.591-2.82-.6 1.53 1.317-1.516-.46-1.191 1.335.933.54 1.398-.092 2.302.375-1.723 4.766 3.234 7.516 2.655 10.999 1.147 1.072 1.356 3.808 3.414 2.085-.74 2.224 2.076 3.408 3.781 4.092.358 2.625 1.778 5.912.586 5.795zm27.538 11.857c3.681-1.758-2.909-.114-.224.519.038.01.176-.495.224-.519zM159.16 66.9c-.646-.18-1.436-.722-1.782-.15.647.182 1.437.724 1.782.15zm-13.142-3.809c.84-.295 1.223-2.31.824-3.341-.289.355-.695.417-1.262.072-.743 1.444-1.285 2.808.438 3.27zm9.427 5.289c-.654-.601-.98-1.333-1.632-1.933-1.046 1.053 1.594 2.726 1.632 1.933zm123.59 51.983c-.4.797-1.5-.164-1.71 1.11.954.596 1.333-.257 2.006-.367l-.448 1.038c1.277.354 1.96.944 2.375 1.639 1.06-.32 2.115-2.356 2.749-.664.18-.983 1.345-1 .671-1.558-.701 1.285-.586-1.1-2.078-.895-.875 2.576-1.09.053-2.453 1.407.067-.745-.214-1.35-1.112-1.71zM218.091 95.97c.438.12 2.314-1.04 1.191-1.334-.649.894-1.889.3-2.158 2.15.647.181 1.436.723 1.782.15-.353-.29-1.018-.454-.815-.966zm-68.218-27.524c.357.992 2.199 1.898 2.822.599-.878-.041-2.424-1.764-2.822-.6zm119.059 52.494c.284-.726.736-1.036 1.19-1.335l-1.039-.448c-.33-.108-.648-.188-.743.296.684.302.082 1.115.592 1.487zm-95.757-39.382c.747-.935 2.002-.346 1.414-1.854l-1.039-.448c.103 1.586-.965 1.514-.375 2.302zm42.31 17.601c-.605-.198-.484-1.103-1.038-.447-.22.527.63 1.046 1.039.447zm51.512 23.412c.182-.647.725-1.437.152-1.783-.166.305-.343.581-.743.296-.215.66-.374 1.297.59 1.487zm-17.37-6.864c-.646-.183-1.436-.724-1.783-.15.647.181 1.437.723 1.783.15zm32.287 15.134l.448-1.039c-.347-.15-.692-.3-1.04-.448l-.447 1.039 1.039.448zM151.345 76.469l.67-1.559c-.329-.925-1.867-1.064-2.82-.598.738.423 1.998.64 1.854 1.414-.106.33-.187.649.296.743zm127.668 56.818c.35-.922.812-1.566 1.415-1.855-1.603-1.155-2.882 1.111-1.415 1.855zm.59 1.487c-.603-.2-.482-1.104-1.038-.448-.218.526.63 1.045 1.039.448zm-19.086-1.445c2.998-.275 2.304-3.41 4.763-5.34-2.168-.284-.264-2.19-1.183-2.974-2.827.36-.643-.14-.896 2.079-.888-.429-1.665-.58-2.302-.374-.285 1.853-.02 1.267-1.414 1.853.725.286 1.036.737 1.334 1.192.966-1.52-.31-2.651 1.639-2.375.237 3.002.068 3.41-1.94 5.94zm-4.756 1.032c.34-.581 1.433-.78.67-1.559-.339.583-1.43.78-.67 1.56zm10.024 2.468c.635-1.259 1.825.606 2.078.895.245-2.307-1.156-2.04-1.776-4.46-.283.725-.735 1.036-1.19 1.336.906.357 1.16.973 1.112 1.71-.289-.126-.77.167-.224.52zm5.131-3.334c.054-2.386 1.812-.495 2.454-1.406-.984-.39-.928-.875-.073-1.264-2.707-.501-1.912-2.396-2.743-3.644 1.429 1.06 1.916-.238 3.342.822l1.119-2.597c-2.37-.493-.136-2.817-.736-4.012-.834-.498-1.537.03-.223.52-1.379 1.314.298 3.543-1.566 3.636-.45-1.113 1.12-3.029-.96-3.493-.874.952-3.711-.766-3.197 1.703 1.5-1.247 1.419 1.682 1.406 2.454-1.266-.357.07-1.75-.886-2.23-2.046 5.253-1.304 10.977.864 15.155-.63-.14-1.056.228-1.486.592 2.284 1.048 2.68-2.64 4.98-1.552-.55-2.676 4.605-2.64 4.02-5.045-1.44 1.351.688-2.22-.888-2.229-1.855.85-2.128 1.568-5.427 2.59zm-10.479 2.88c-.646-.182-1.436-.725-1.782-.152.646.182 1.435.725 1.782.153zm-10.319-3.212c1.122.656 2.007.717 2.526-.144-.999-.345-1.884-.406-2.526.144zm16.923 7.903c.838.302 1.772.844 2.006-.368-.882-.413-1.505-.174-2.006.368zm4.676 2.014c-.605-.198-.484-1.104-1.04-.447-.219.525.63 1.045 1.04.447zm-44.253-56.01c1.22-1.536 1.359.048 2.08.895.747-1.3.014-2.015-1.407-2.453-.18.983-1.345 1-.673 1.559zm11.902-9.04c.92-1.136-1.274-3.158-2.15-2.16.854.379-.331 1.568.367 2.007.348-.566 1.064-.21 1.783.152zm13.148-.5l.448-1.037c1.272.624 1.199 1.692 2.302.374-2.164-.574-2.824-1.746-3.71-2.83-.504 1.493 1.015 2.18.96 3.493zm6.726 20.142c1.455-1.089-1.625-2.402-1.854-1.414.631.465.673 1.167 1.854 1.414zm7.201 1.869c.29-.253 2.154-1.443.895-2.079-1.074 1.206-.65-1.687-1.63-1.934-.288 1.551-.017 2.878.735 4.013zm-16.828 24.782c-.003 2.767-2.198 6.068.88 6.538.213-1.986-1.66-3.868 1.566-3.636-.143-1.573-1.97.26-1.854-1.415 2.667-2.148 2.171 2.708 1.775 4.46.692-1.984 1.47 1.033 2.75-.665-.041 1.82-2.199 3.167-.232 4.828-.083-1.805 2.553-2.03 1.342-3.117-2.166.374 1.048-2.375-.216-3.788-.76 3.106-1.766-.476-2.598-1.119 1.34.84 1.322-1.728 2.453-1.407-.172.641.58.916 1.336 1.19 1.524-3.738 4.839-2.983 6.769-5.708-2.979-1.527-1.223-6.305-4.669-6.322 1.7-2.506-2.319-1.025-1.48-3.717 1.14.924 1.915 1.432 3.342.824-.673-.45-.102-1.395-.368-2.007 2.384 1.307 2.283 1.66 4.38 1.27-.182.647-.724 1.436-.151 1.782.122-.288.674-.408.52.225-.643.91-2.192-.457-2.454 1.407 1.367 1.623 4.242 1.951 2 3.94 1.326.476 1.255 1.509 2.149 2.158 1.919-3.846 7.216-4.928 8.48-6.82-.615 1.029-1.065-1.35-2.303-.376-.855-3.688.182-6.434-2.215-7.728.604-1.009 2.147.344 2.75-.665-1.864-.9-2.53-1.786-3.638-1.565.744.468-.291.889-.967.815 1.12-2.168 1.843-4.177-.289-5.051-.94 1.598-4.167 1.684-3.34-.822-.805-.591-1.664.197-1.56-.672.107-.33.189-.648-.296-.743-1.073 1.719 1.29 2.068.218 3.789-.8-.4.163-1.501-1.112-1.712.63 3.989-3.86 3.316-2.093 7.722 1.006 1.246 2.511-1.352 2.302.376-1.247 2.445-3.156 1.464-3.492.96.134.713.998 3.266-.823 3.34.274-1.777-.326-2.112-2.15-2.157 1.722-.952-.823-3.56-1.48-3.717 1.123-1.314 1.978.674 2.526-.144-.305-.166-.582-.342-.297-.743.289.126.772-.166.224-.52-1.862 2.648-5.452-4.134-5.195-2.237.535.362.56.924.591 1.487-.52-.226-.799.154-1.263.073-1.327-1.791-1.567-1.988-3.34-.824.877-2.426-2.712-.41-3.566-.302a2.859 2.859 0 0 1-.888-2.23c.78-.566 1.487-1.312 2.75-.665-.182.647-.723 1.436-.151 1.784.166-.306.342-.583.743-.296.223-.522.687-.44.967-.817-2.163-.799 1.75-2.004 2.381-2.67-.518.778.098 1.705.816.968-.356-.29-.417-.696-.072-1.263.646.182 1.437.724 1.783.15-1.899-1.522-2.496.222-4.085-.526l.894-2.079c-.78-.324-1.294-2.844-2.374-1.637 1.546.011 1.661 3.024-.152 1.782.223-.522.688-.436.968-.816-1.877-1.434-2.543-.68-3.19-2.604.88-.587 1.23-2.093 1.789-4.157.236 1.974 2.22-.725 2.08.895-1.498 1.217 1.19-.75 2.3.375-.033 2.176-3.009 2.394-2.085 3.413.45-.672 1.395-.1 2.007-.368-.057.455-.427 1.03.072 1.263 1.185-1.62.366-2.441.302-3.564.656.521.609 1 1.56.671-1.02 1.554-.969 2.68-.304 3.565-1.525-.95-2.402-.266-3.268.44.345.15.693.298 1.038.448-.125.286.168.77.52.223.055-1.106 5.754.324 5.94 1.941 1.927-1.22 2.001-2.432 4.235-1.257.87-1.918 2.217-1.594 2.527-.143.284-1.089 1.144-.727 1.71-1.111-.356-.29-.417-.695-.072-1.263-1.005-1.247-2.512 1.354-2.302-.376a2.858 2.858 0 0 0 2.23-.887c-2.195.013.445-1.9-.888-2.23-.858.009-.939 1.966-1.934 1.63-.28-3.407-3.717-5.064-4.222-7.36-.082-1.806 2.553-2.03 1.342-3.117-1.815.348-.847 1.72-2.158 2.15-1.208-3.344-5.437-3.77-6.452-6.473-.39.984-.872.927-1.261.072-.214 3.572-2.355.462-1.567 3.637-1.752-1.541-2.354.673-1.933 1.632-.507-1.368-1.503-.147-3.119-1.343.625-1.273 1.692-1.2.376-2.302-1.947 2.294-1.103.002-2.598-1.119-1.253 1.266 1.66 3.003-.08 3.045-.232-3.505-4.275 1.93-5.643-1.198-.81 2.562-1.064.69-1.782-.152-.798 2.136-.852 2.156-2.23.888-3.078 3.945 1.654 4.345-1.35 7.427 1.689.906 1.015 2.753 3.486 3.347-.926.33-1.066 1.868-.6 2.822.365-1.246.968-1.898 1.935-1.631-.193 1.929.842 1.668-1.118 2.597 3.863-.951 3.312 3.883 8.09 4.101 1.284 1.781-.92 2.274-.6 2.821 2.368-1.393 3.465 4.21 5.939 1.942.16 1.998-3.221.349-1.934 1.63 2.109.479 3.73 2.365 6.011 3.205-2.101 1.417-3.545-2.237-5.05.288 2.7 2.21 4.352 1.648 6.906 1.126-.728 2.502-3.106.851-4.164 2.518.485 1.816 3.106 2.782 1.327 5.5.87.516 2.828.597 1.63 1.934-1.305-.69-.593 2.234.513 4.532-1.31.66-.238.681-.895 2.078l-1.558-.671zm-15.602 1.905c-.677-.301-.042-1.726.67-1.559 1.033.307.895 1.08 1.855 1.415.85-1.11 1.767-2.049 2.31-3.934-1.38-.855-3.016 3.126-3.789.217 1.57.02 4.184-1.562 2.605-3.19 1.472-.253-.108-1.549 1.19-1.335.402.975 1.432.996 2.303.376-.609-.332-1.163-.685-.592-1.486.143 1.572 1.972-.263 1.855 1.413-1.803.244-4.029 6.12-1.047 3.861-.91-.207-1.098-1.304-.071-1.262.394 1.278 1.234 2.378 2.222 3.42-.302.684-1.115.083-1.487.593.022 1.47 2.873-.084 2.894 1.86-.317.185-2.855-.317-1.486.592 2.256-1.585 1.805 2.058 4.38 1.271-.186-2.944 2.156-5.143 3.948-6.308-1.284-1.06-1.662.153-2.822-.598 1.921-3.018-1.937-1.24-.217-3.79-.932-.54-1.398.092-2.302-.375.292-1.838-1.177-2.976-1.031-4.755-.29.353-.457 1.017-.967.815.35-.921.811-1.566 1.413-1.854-2.252-2.056-1.897 2.442-3.717 1.479.905-.498 1.107-1.027.153-1.782-2.18 2.856-4.772 1.276-6.315.36-1.146 1.606 1.547 1.68 1.184 2.973-1.63-.675-1.783-2.014-3.636-1.565 1.817 3.795.303-.362-1.712 1.112.446-.962.073-1.273-.815-.968.754-.762 1.267-1.362.895-2.079-1.564.16-.772.9-1.71 1.113.194-.797-.479-1.246-.369-2.007 3.132-.343 5.954-3.89 7.282-1.177.316-2.81 2.729-.357 4.309.008.35-.921.812-1.567 1.414-1.856-.01-.856-1.967-.937-1.63-1.933.377-.855 1.565.33 2.005-.368-1.088-.285-.729-1.146-1.111-1.71-.402.795-.707 1.83-1.711 1.11.182-.645.724-1.435.152-1.78-1.722 1.855-.806-.69-1.855-1.416-.59 1.877-.583 3.028-2.31 3.933-.116-2.552-3.402.064-3.485-3.35.565.44 3.246 1.3 1.783.153-2.195.012.446-1.899-.888-2.229-2.15 1.554-1.846-.577-.296-.744-1.848-.27-1.777-1.302-2.15-2.159-1.178 2.68-4.363-1.512-4.525-3.795-.71.792.593 2.814-1.118 2.597-1.015-1.412-1.647-1.16-.744.297-2.205.127-2.824-.641-3.34-.823-.304 1.127.966 1.624.663 2.75-2.64.733-1.414.021-2.598-1.119.162 2.005-2.847 1.292-1.639 2.374.282-.441.664 2.652-.08 3.045 3.893-.698 1.8 6.872 3.631 5.876-.539 1.218.236 1.914-.823 3.34.706.331 1.247.246 1.783.152-.751 1.16.462 1.538-.6 2.822-1.261-.649-1.97.097-2.748.664 4.688 1.71 6.598-4.594 9.51-2.063-.879.674-2.174.303-2.973 1.182.624.613.92 1.357.888 2.23-.571-1.403-1.073-.097-2.598-1.118-.596.953.258 1.332.368 2.006-.688-.059-1.689 2.265-.448 1.04 1.57-.143.262-2.181 1.415-1.856 1.447 3.215 5.435 6.042 4.59 9.367 2.32-1.004 4.108 1.058 4.085.527zm-18.858-6.271c1.523 1.521 5.063.818 1.488-.591-.29.352-.457 1.017-.968.815.126-.288-.167-.772-.52-.224zm14.175 8.566c.165-.304.342-.582.742-.296-.057.454-.427 1.032.072 1.262l.896-2.077c-1.226-1.41-3.193 2.369-1.71 1.11zm41.343 18.417c-.606-.198-.484-1.103-1.04-.447-.22.526.63 1.045 1.04.447zm-47.795-24.89c-.979 2.793-.318 2.203 1.998 3.94.561-.857 3.625-.853 2.382-2.67-.381.58-.714.071-1.04-.447-.422.739-.64 1.997-1.413 1.854-.536-.36-.562-.925-.592-1.487.452.058 1.03.428 1.262-.07-.61-1.501-1.118-.21-2.302-.377.953-1.67.054-2.605-.216-3.788-1.2 1.354-1.143.294-1.56-.671-.044.868-2.57.395-1.19 1.335 1.845.195-.962 1.396 2.821.598-.301 1.766-1.855.384-2.157 2.151.954.596 1.333-.258 2.007-.367zm4.748 3.276c-1.307.255-4.931 1.48-3.125 2.966.57-1.527 3.502-2.643 3.125-2.966zm5.116 5.283c-.329-.107-.648-.188-.743.295.725.286 1.035.736 1.335 1.192.752-1.16-.462-1.539.599-2.822-.921-.351-1.565-.812-1.854-1.415-1.514 2.271.65 1.986.663 2.75zm25.829 12.968c-.499-.904-1.027-1.107-1.783-.152 1.699 1.385 2.148-.371 3.269-.44.004 1.29.852 2.244 2.446 2.9 1.129-.408 1.603-2.462 2.31-3.931-.955-.596-1.333.258-2.006.368.286-.725.735-1.036 1.19-1.335-2.44-.603.863-.852-.593-1.487-1.504.984-1.232-2.346-2.444-2.902-1.072 2.219-1.313.557-3.046-.08-1.349 2.978 1.405 4.321.657 7.059zm-18.323-14.664c-1.297 3.404-3.803-1.238-5.42-1.717l-.447 1.039c-.107.33-.187.647.295.742.29-.352.455-1.017.967-.815-.794 1.752 2.327 1.944 1.48 3.717-1.081-.192-2.827-2.056-3.045-.08.998 1.231 2.812-.595 2.596 1.119-1.913.1-.958 1.44-2.156 2.15 2.12 1.452.75 4.294 4.596 5.058.023-4.03 3.176-.056 4.98-1.55-.906-.357-1.16-.974-1.112-1.711 1.458-.144 2.946-2.284 3.046.08.658-1.591 1.967-1.548 2.9-2.447-2.487-.176-5.119-.312-4.004-3.572-2.237-.97-2.225 1.006-3.118-1.343-.516.506-1.06.94-1.71 1.113.44-.566 1.298-3.246.152-1.783zm.65 11.365c.165-.304.341-.581.742-.295 1.03.451.05 1.703 1.632 1.933 1.974-2.104-3.717-3.372-2.374-1.638zm21.222 12.219c-1.691-.541 1.968-.933.153-1.784-.848.7-1.988 2.792-.153 1.784zm-6.688 2.662c.15-.346.298-.692.446-1.038-.345-.15-.692-.3-1.04-.448l-.445 1.039 1.039.447zM233.549 47.193c-1.243-.96-1.467.642-2.23.887 1.243.96 1.466-.642 2.23-.887zm4.1-8.09c-.527-.22-1.047.629-.449 1.04.29-.357.696-.418 1.264-.074 1.022-1.524-.284-2.026 1.118-2.597-.815-.247-1.838-1.012-2.303-.375.562.492.774 1.127.37 2.005zm-18.937-3.226c3.484 1.516 6.023 3.716 4.82 4.539 3.706.889 3.515 4.412 5.34 4.763-.398.799-1.5-.164-1.709 1.111 1.718.488 2.93-.96 3.117 1.342 1.729-2.595 4.505-.33 6.906 1.126.29-.355.695-.416 1.263-.072.182-1.569-.768-5.586-2.742-3.644.562.215 1.214.812.295.742-2.357-1.478 3.465-2.493-.663-2.749 3.14-5.492.859-5.861-.578-10.103 1.57 1.443 3.337.762 4.38 1.27-3.105-1.536-3.765-2.486-5.642-1.198 2.094-2.662-2.686-.88-2.966-3.124-1.653 2.65-4.21 3.407-8.4 3.774-.767-.986.305-2.706-.218-3.79-1.638.646-.4 2.345-1.79 4.158-.63-.467-.672-1.167-1.853-1.414l-.672 1.558c2.183 1.517 2.863-.739 4.236-1.255-.751 1.16.464 1.537-.598 2.82-.357.703-3.875-1.29-2.526.146zm7.592-9.05c-.378.855-1.566-.33-2.006.368.866.9 3.423.937 2.006-.369zm-25.295 22.985c-1.112 2.658 2.908 2.457 4.38 1.27-1.827-1.213-3.411 1.036-4.38-1.27zm-10.543-2.693c2.326-.293 2.998.889 3.86 1.048-.535-.362-.56-.927-.591-1.487-1.352-.514-2.229.17-3.27.439zM180.24 32.247c.676.258 1.005-.356 1.782.152l.447-1.041c-.522-.222-.436-.687-.815-.965-.018 1.625-3.194 2.36-1.414 1.854zm1.933-1.63c3.278-1.068-1.684.099-.144-2.527.419 1.15 2.072 1.578 2.525-.144 1.549.388-1.625 2.655-.079 3.044-.87.62-1.901.6-2.302-.374zm-5.788-3.726c1.344-1.823 1.172 2.546 2.078.895-.302-.166-.58-.343-.294-.742.453.057 1.03.426 1.262-.073-.237-1.823-4.112-1.205-3.046-.08zm-5.845 30.743c.652.315.433.976 1.336 1.19.15-.345.297-.692.447-1.038.106-.33.187-.648-.297-.744-.301.685-1.114.084-1.486.592zm-9.584.801c.429-.727 1.46.064 2.303.375 1.187-1.477-1.382-1.46-1.408-2.454-.754.762-1.266 1.363-.895 2.08zm10.464 5.738c-.604-.199-.482-1.105-1.039-.448-.218.527.63 1.046 1.039.448zm43.82 48.43c-1.12 2.247-2.797 3.404-.232 4.828.844-1.21 1.472-1.522.598-2.821-.422.74-.639 1.997-1.412 1.854.224-.52-.156-.8-.073-1.262.791-.886 2.748-1.449 1.118-2.599zm39.228 39.063c-.6-4.051-.149-2.574-.656-7.057.966.19.805.828.592 1.486 2.159-.887-1.644-3.056-1.776-4.46-1.168-.412-1.68.83-2.158 2.152-1.483-2.384-3.088-2.767-4.372-5.579-.572-.55-1.34 2.48.144 2.526-.384.964-3.421.614-2.159 2.15-3.049-1.104-4.464-.788-6.754-2.91-.507.778.106 1.107-.151 1.784 1.897 1.524 2.494-.22 4.083.528.164 2.003-2.846 1.29-1.637 2.373-.44.698-1.63-.487-2.006.37-.322-.591-.38-1.285-.368-2.009-1.81.936-2.727-2.593-3.79.218.24 2.235 2.35.258 3.342.822-.302 2.485-2.326.645-3.197 1.703-.546-.353-.064-.645.223-.52.106-.868-.752-.08-1.558-.67.387-2.249 1.49-2.706 2.533-4.453-2.645.786-1.056-.793-3.413-2.085.454-.3.905-.61 1.19-1.336-1.465-.553-2.21.225-.814-.966.451-.634-3.637-1.346-1.408-2.455-2.053-1.072-.744.966-1.414 1.855-.812-.402-1.052-4.126.598-2.821-2.49-2.064-3.077 3.862-2.013 4.677-1.318-1.378-1.543-.499-3.637-1.567.345-.567.283-.974-.071-1.263 1.073-.99 1.943-1.11 2.605-3.19-1.16-.752-1.539.463-2.822-.599.454-.3.904-.61 1.19-1.335.299.455.61.906 1.335 1.191.508-.776-.107-1.106.151-1.783-2.588-.014-4.495 1.685-7.28 1.177.202-.512-.463-.677-.817-.967.994-.027.978-2.594 2.455-1.407-.603.289-1.064.933-1.415 1.854.88-.672 2.122-.436 3.27-.44.153-.632-.399-.513-.52-.224-.762-.778.331-.976.67-1.558-1.248-.766-3.886-2.926-5.491-2.98.37-.51 1.184.092 1.486-.593-.404-1.93-6.64-2.042-6.01-3.203-.837 1.143-2.848-.665-3.198 1.702-.698-.44.486-1.629-.367-2.006 1.083-.523 2.801.552 3.788-.216-.173-.649-.606-1.194-1.112-1.71-.645-.18-.846.758-1.19 1.335-1.668-.977.913-3.188 2.38-2.671.633-1.686-.193-2.792.751-4.604-2.57 1.285-4.147-3.243-4.309-.007-1.257 1.39 1.129-2.711-.215-3.789.601-.653 1.333-.979 1.934-1.63.548.352.064.645-.224.52-.105.868.753.08 1.559.67-.685 1.133-.776 2.03-.599 2.82 1.703.33-.019-1.323.894-2.077.861.519.8 1.404.145 2.526l1.559.671c.467-.904-.164-1.369.375-2.302 1.788.15.423 1.554.145 2.526 1.173 1.372 3.53-.392 2.373 1.638.537-.094 1.078-.179 1.783.152.531-1.79-1.501-2.56-2-3.94.559-.674.578.49 1.56.67.508-.776-.106-1.106.151-1.782-3.675.117-.397-.334-3.342-.823.835-.892 2.478-1.45 3.047.079-.305-.888.008-1.261.967-.815.6-.747-2.467-2.068-2.598-1.119-.092-1.024-2.769-5.25-.441-3.27-.03-.56-.056-1.124-.592-1.486-.673.111-1.051.964-2.006.369.779-1.6-.564-2.359-1.702-3.198-.129.912 1.443 1.148.143 2.527-.532-1.435-1.833-.98-3.116-1.343.454-.3.905-.61 1.19-1.334-2.627.325-1.704-2.178-3.486-3.349.493-2.368 2.817-.136 4.013-.736-.474-1.314-5.22-3.697-4.446-6.842-2.432-.511-1.8-.344-2.15-2.158-.915 1.307-2.542.827-4.012.737 1.626 1.974-.88 1.562-1.863 2.895 1.783.87 2.424-1.125 3.717-1.48-.65 3.063 3.712 6.315-.758 8.912 1.524.447 3.738-.907 3.342.823 1.702.328-.019-1.325.895-2.079 2.971 1.047-.816 3.502 2.67 2.382-.776.938-1.651 1.621-3.27.44-.223.52-.446 1.04-.671 1.559 1.15.003 2.277-.05 3.565.303-.454.299-.905.61-1.19 1.335l-2.598-1.12c-.336.995 1.623 1.077 1.631 1.936-.347.572-1.137.03-1.784-.153.512 1.057 2.67 2.39.441 3.27-.017 1.088.913.481 1.56.67-.155.508-1.368 1.303.663 2.75 1.479.753-1.562-.907-2.821-.599.036-1.325-1.456-3.75.526-4.084.33-1.136-2.222-1.125-2.151-2.158-.921.207-1.635.94-2.453 1.407-.071-1.024 1.69-3.745 2.677-1.927.783-1.03-.673-1.166-.368-2.006-2.488 2.45-.381-4.028-2.446-2.9-1.218-.532.8-1.336 1.487-.592.24-1.919-1.737-3.007-1.105-6.019-.845.042-1.446.695-1.934 1.63-.697-.44.487-1.628-.368-2.006-.978.115-.191.84-1.415 1.855-.965-.189-.805-.827-.59-1.486-1.665.88-.565 1.595-.824 3.342-2.214-1.38-1.88-1.513-2.23.887-1.754-1.448.004-3.009.75-4.605-.945.506-2.31-.037-3.268.44-1.34-2.06 2.597.14 2.973-1.183.178-.644-.759-.847-1.335-1.19.011-1.548 3.024-1.66 1.783.15 2.04-1.405 1.57-3.698 1.421-6.162-.645-.178-.845.759-1.19 1.335-.373-.856-.304-1.888-2.151-2.158.335-.96 1.108-.822 1.414-1.855-.724.346-1.985-.664-2.23.887-.755-.466-1.564-3.04-2.894-1.86.33-1.86-2.625-3.337-1.255-4.238-2.983.405-3.435 1.165-6.907-1.125.48-.956 1.873.38 2.231-.888.656.556-.25.434-.448 1.04.537-.096 1.077-.18 1.782.151 1.367-1.404-1.51-1.12-.144-2.526-.636.205-1.414.054-2.303-.375.922-.93 2.641.142 3.79-.216.442-2.996-2.595-6.591-1.249-8.544-.903-.468-1.37.164-2.302-.376.096.536.18 1.077-.151 1.783-.97-2.12-2.416 1.126-4.31-.008-.204-.635-.052-1.414.377-2.302-.799-.204-.85 1.472-1.71 1.112-.049.736.204 1.353 1.111 1.71-.66.363-4.816.28-2.454 1.408-1.33 1.179-2.137-1.396-2.894-1.862.125.954.07 1.98 1.408 2.453-.502.54-1.124.78-2.006.369-.216 1.712 1.806.41 2.597 1.118-.455.3-.905.61-1.19 1.335 4.057.618 5.733 5.694 5.851 9.295 1.728-.226 1.864.116.593 1.485.536-.093 1.077-.178 1.782.153-1.399 2.763 1.007 5.043.729 8.321-1.514-2.069-2.468.071-4.012.735 1.472 1.176 1.45-1.406 2.75-.664 1.684.978.055 1.687 2.373 1.64-.223.518-.448 1.038-.67 1.558-3.255-1.498-3.235.823-6.459-2.166 2.092-.161 2.229-2.417-.369-2.005.602-.653 1.333-.98 1.935-1.632 1.653.203 1.03 1.311 2.374 1.64-.357-.977-1.122-1.694.376-2.303-1.884-.406-3.202.61-4.757 1.031-1.027-.615 1.351-1.063.376-2.302-1.706-.2-.919.526-1.415 1.854-2.788-4.532-1.073-14.322-7.923-14.498 1.003-.36 1.486-2.035 2.085-3.413.115-.62-.881-.797-.591-1.487-.798-.204-.85 1.474-1.71 1.112.065 1.113 1.934 1.852.143 2.525-.641-2.435-2.549-.057-2.15-2.156-1.115.082-2.221.187-2.678 1.927.952-.94 2.864-.554 1.855 1.414-1.426-1.06-2.123-.284-3.34-.822.172.648.604 1.193 1.11 1.71-1.392.778-3.67-.417-1.637 2.374-1.197 1.373-1.13-1.195-1.855-1.414-.646-.18-.847.757-1.192 1.335 3.012 1.886 2.532 4.396 2.736 7.952 3.036 1.697 2.86 5.725.505 8.84 1.9-2.02 1.363 1.608 2.82.598.233 3.099 1.475 3.696 4.598 5.06.338 2.332-2.801 1.272.664 2.75-1.595 1.178-3.219 3.109-1.494 4.9 1.077-1.434-.996-1.614.08-3.045.512.202.677-.463.966-.817 2.542 1.8-.317 3.371-.302 3.565.18 2.266 2.61.5.888 2.23 1.723.006 3.831.972 5.938 1.942l-.67 1.559c-1.81-.428-2.546-1.284-2.67-2.383-.485 1.447-4.259.332-6.163-1.42.214-.903.876-.685 1.19-1.336-.889.305-1.262-.007-.815-.966-1.094-.583-1.837-.287-2.23.887-.563-.78-1.835-1.28-.664-2.75-.995-.336-1.076 1.623-1.934 1.63-1.1-.853.121-2.63-2.447-2.9-.22 1.093 1.838 1.278.665 2.75-1.405-.877-1.897-2.115-1.48-3.717 1.258.62 1.157-.255.224-.52.454-.298.905-.61 1.19-1.334 1.95 1.177 1.442.958 3.637 1.565.1-2.186-4.167-1.4-1.703-3.196-1.52-.96-2.144 1.2-2.82-.6 1.668-.71 1.056-1.193 2.157-2.15-.737-.049-1.354.206-1.71 1.111-2.996-1.74.922-3.9-2.295-4.683.725-1.062 1.716-1.457 2.972-1.184.212-.985-.187-3.888-1.926-2.677-1.366 1.314-.043-1.786.966-.815-.816-1.678-1.157-3.174-2.07-5.204-.757-.336-2.59 1.483-1.56-.67-.96.109-1.68.825-2.157 2.15-1.337-3.608-2.055 2.01-4.906 2.814-1.54-.823-1.853-2.133-2.966-3.125-.537.096-1.078.18-1.785-.151.097.537.18 1.077-.15 1.783.088-1.184-3.235-1.008-1.927-2.677 3.22 1.347 3.316-2.216 4.835-4.08 1.788 2.238 4.124-2.29 6.466-2.141-.237-1.197-2.966-1.404-.96-3.493-3.083 1.499-4.875-7.28-7.195-6.18 1.143-1.848 3.15-2.18 3.053-4.226.915-.225 2.146.34 2.75-.665-2.327 2.181 2.441.68 1.032 4.756 1.283 1.062 1.66-.153 2.822.6-.216.901-.877.682-1.19 1.334.21.94.95.148 1.11 1.71.883-.665 2.01-.716 3.565.303 2.446-.764 1.893-2.393 4.683-2.295 1.076-1.432-.997-1.612.08-3.044.598 1.6 1.595.378 3.118 1.342l.67-1.559c-2.557 1.413-1.98-2.709-5.267-3.5-1.526-1.878 2.535 1.475 2.23-.888-.114-1.214-3.996-1.862-1.185-2.973-.535.094-1.076.179-1.782-.152-1.062 1.284.154 1.66-.598 2.821-.29-.602-.933-1.063-1.855-1.413 1.947-.654 1.006-2.29 3.421-2.223.081-.463-.3-.743-.073-1.263-1.456 1.422-5.663 1.594-5.65 3.11-1.375 1.3-1.99-1.925-.368-2.006-.537.095-1.077.179-1.783-.15 2.345-2.311-1.575-1.898-.44-3.27.752.087 2.685 1.09 2.67 2.38.62.115.797-.88 1.487-.591-.836-1.315-.515-1.504.6-2.822.094 2.577 2.812 1.259 3.492-.96-.676-.073-1.71.348-.968.817-.717.736-1.334-.19-.814-.968-.99.361-1.72 1.134-1.56-.671-1.712-.216-.409 1.806-1.119 2.597l-1.558-.671c.326-1.343 1.435-.72 1.637-2.373l-1.038-.448c-1.156-.742-.73 2.49-2.23.887 1.652-1.23.787-3.083 2.31-3.932-2.848.441-1.834-1.767-4.453-2.533-2.589.8-2.615 3.453-6.17 2.886 2.268 1.963-1.13 1.587-.008 4.308.88.406 1.512.194 2.006-.367.288 2.18 1.666 3.929 1.624 6.241.683.736 1.898-2.086.895-2.077.44.043 3.3.059 2.15 2.157-1.82-2.766-2.19 1.672-3.348 3.486-.567-.344-.974-.283-1.263.072-1.035-.969 1.982-.664 1.863-2.893-1.427-1.06-2.123-.285-3.341-.824.071-.675-.349-1.71-.818-.966-.979-.485 1.641-1.59.6-2.822-.87-.105-.082.753-.67 1.559-.234-2.163-1.429-4.905-4.82-4.54.094.536.177 1.077-.152 1.783.973-.44 2.641.869 3.269-.44 1.334.33-1.308 2.241.887 2.23-2.392.483-4.674-3.26-6.316.36-1.612-2.316-2.41.218-4.603-.75.972-.4 1.518-1.638.375-2.302-.756-1.662 1.23.605 1.336 1.19 1.255.99 1.49-.582 2.525-.144-.449-2.363-3.256-1.226-4.23-3.053.466-.635 1.488.13 2.304.376.268-.969-.385-1.57-1.632-1.934.462-1.727 1.826-1.184 3.27-.44.335-.996-1.623-1.078-1.63-1.934-.293.909 2.63-1.146 1.269-4.381-3.548 1.095-2.415-2.812-4.749-3.277.603-1.007 2.146.346 2.75-.663-1.264-2.52-3.45-3.85 1.119-2.598-1.309 2.319 2.874.438.367 2.006 2.257-.907 3.895 1.398 4.9 1.493 1.115.595-.965.807-.966.816-.864 4.175 3.566 2.227 5.563 4.244 1.676.116-.157-1.71 1.415-1.855-1.177.509-1.948-1.05-2.894-1.863 1.286.333 4.641-1.36 6.315-.359-.587-1.694-.364-3.83.974-5.125.784 2.46 1.16 2.925 4.526 3.797-.388 1.882-1.436.374-1.784-.151.921 3.302 1.595 1.969 3.334 5.13-.779.762-.977-.332-1.56-.67.095.536.18 1.076-.15 1.781l6.754 2.909c-.271 1.118-.805 1.58-1.71 1.112-.082.462.299.74.072 1.262.913.126 1.148-1.443 2.525-.144-.37.508-1.184-.093-1.485.592-.082.462.297.74.072 1.261 1.936-.537 4.6-1.316 4.315-4.299.6 2.731 1.548-.238 3.637 1.565.5-1.317-.28-2.028 1.118-2.598-.08.763-.735 3.937.961 3.495.74.224-1.061 2.975-2.454 1.404.03.562.057 1.127.591 1.489-.346.572-1.136.03-1.782-.153-1.417 1.661-1.495 5.817-4.019 5.044-1.077 1.434.996 1.614-.08 3.046 1.405 1.366 1.122-1.51 2.526-.145-2.041 1.5.568 1.9-.526 4.085.673-.11 1.05-.963 2.005-.368-.903.498-1.106 1.026-.151 1.783 1.092.582 1.836.286 2.23-.888.353 1.007 2.316 1.374 2.67 2.381-1.43-2.049-1.001-2.939-2.966-3.124-.134-1.91 3.558-.321 2.078.894 1.287.386.785-1.955.375-2.301.614-1.417 4.166-.974 4.605.75 2.263-2.61 2.399-.816 4.835-4.078-.14-.57-1.84-2.953-2.079-.894.612-1.502-2.17-2.587-.439-3.27-1.722-.187-1.798-.22-3.118-1.343.264-1.86 1.5-1.28 2.452-1.405-.766-1.203-2.082-.989-3.636-1.566.603-.29 1.064-.933 1.415-1.857-1.574.014-2.997.406-4.828-.229.345-.57.283-.974-.072-1.263.622-1.321 2.46.411 2.677-1.927 4.094.486 4.268 2.247 5.939 1.941 1.129.842.312 2.46.216 3.789.537-.096 1.077-.179 1.783.15-.454.3-.905.61-1.191 1.337.649-.173 1.195-.607 1.711-1.113.547.354.064.647-.225.521-.466.903.164 1.37-.375 2.302 1.457-.878 3.414.22 2.67 2.381 2.36.496 2.02 2.067 3.71 2.829.203-.51-.463-.677-.815-.967.273-.935 1.464-.965.67-1.558 1.099-1.336 1.018 1.239 2.599 1.119.202-.512-.462-.678-.816-.967.231-.501.81-.13 1.263-.073-.85-1.41-2.554-2.172-3.932-2.309 1.923-.892.107-2.907-.738-4.014.44-.696 1.63.488 2.008-.368-4.75-2.119-3.726-7.8-8.155-9.669-1.505-.537-1.712 2.19-3.493.96-.204.51.462.676.815.966-1.218 1.537-1.357-.045-2.078-.895-.79.622-.954 2.314-1.04-.447-.909-.69-2.699 1.662-1.637 2.374-.67.256-1.572-.57-3.342-.822.642-.55 1.527-.49 2.526-.144 1.297-3.328-.231-2.99.158-6.092.39.857.873.911 1.264-.072 1.18.248 1.222.95 1.854 1.415.363-1.025 1.457-1.907 3.35-3.486-.112-.674-.964-1.051-.369-2.005-.464-.083-.743.298-1.263.072-.203.511.463.677.815.966-.454.3-.903.61-1.19 1.336-.398-1.134-.53-2.372-1.704-3.197.354-.549.646-.064.52.224 1.192-.366.552-3.103 2.605-3.19-1.546-.505-3.166 1.65-4.084-.528-.205 1.087 1.08 1.58-.08 3.046-1.441-.465-.236-4.166-1.702-3.197-1.22-.532.8-1.336 1.485-.592.375-1.44-.875-2.235-.215-3.788.87 1.376 1 3.046 1.775 4.46.808-1.936 3.848 1.736 4.532-.512.3.454.61.904 1.335 1.19-.216.902-.877.683-1.19 1.335 2.31-.233 1.468 1.542 2.445 2.901 3.564.394 5.78-.5 8.394.534.673-1.704-1.878-2.123.007-4.308.648 1.39.985 3.418 2.302.376.3.455.61.903 1.334 1.19-.455 1.736-1.989.77-2.676 1.927-.347 1.385 2 .898 2.006-.368 1.462-1.102-.962 2.925.44 3.27-.788 1.488-1.035-2.917-2.599-1.12-.154.633.398.513.52.225.51.37-.093 1.183.592 1.485-1.021 1.398-2.819.85-4.828-.23.476 1.921 1.354 1.009 2.67 2.382-2.157.216-4.28.523-5.419-1.719-.868 1.638 1.543 1.97.96 3.494.985-2.255 1.401 2.65 4.004 3.57-.351.548-.645.066-.519-.222-2.472.23.88 2.365-1.118 2.598.473.841 3.105 1.831.735 4.014 1.215-.194 1.548-2.604 3.494-.962-.48.956-1.873-.379-2.23.889-.965 2.336.902 1.173 1.407 2.452.572-.802.016-1.154-.593-1.486 1.246-.183 5.195.873 4.237-1.256 1.024.74 4.67.123 3.71 2.83 3.6-.8 9.741 1.41 8.457 6.104-1.51-2.157.248 1.027-1.783-.151.314 2.456 3.42 1.99.441 3.269 1.432.712 1.934-.908 2.973-1.184 2.235 1.872 1.13 4.188 4.821 4.54-.534 1.933-.135 1.967-1.343 3.118.521.223 1.04.447 1.56.671-.543-1.738-.266-1.427.822-3.343.484 1.1 1.555 1.966 2.446 2.903-.503.357-1.783.165-.966.815-.602 1.01-2.354-.867-2.75.663-.198 1.707.526.92 1.855 1.415-.094.483-.414.402-.743.296-.713-.167-1.35 1.258-.672 1.559-.78.76-.977-.332-1.559-.671.205.635.054 1.414-.376 2.302 1.037.437 1.273-1.133 2.526-.144-.95 2.094-2.843 2.62-2.237 5.195.538-.094 1.078-.179 1.782.152-.234-1.554-.68-1.438.6-2.822 1.203 1.33-.35 3.753-1.494 4.901-.149 1.494 1.57 2.245 2.222 3.42-.633 1.259-1.823-.606-2.077-.895.648 1.608.648 3.474.065 5.571-.842-.311-1.875-1.102-2.303-.375.976 1.052 2.753 1.364.145 2.526 1.433 1.077 1.404-1.519 3.045.08-1.944 2.821 3.683 2.152 1.256 4.235 1.803.518 3.006-.297 4.604.75.51.204.678-.462.968-.815.104-.869-.754-.08-1.56-.671 2.252-.834 3.358-4.545 6.394-3.406-.254.992-.95.854-.744.297-.921.208-1.635.938-2.453 1.406-.198 1.706.526.92 1.854 1.415-.118-2.67 2.939-3.002 3.725-5.787-2.3.293-.96-.395-1.112-1.71-1.948-.277-.673.854-1.638 2.373-1.213-.235-.67-1.168-.367-2.006-1.13-.676-1.225 1.252-2.23.887-.168.894 1.11-.06.815.967-.087 2.305-2.367-.898-2.454 1.408-.603-.477-.423-1.267-1.11-1.711-1.146.845-.622 1.103-2.159 2.15-.263-.54-1.075-1.42-1.559-.67-.698-.44.487-1.629-.367-2.007.397-1.164 1.944.558 2.82.6.062-.534-1.184-2.58-1.854-1.415-1.372-1.195.986-1.652 1.415-1.855.737 2.818 2.867 1.615 5.123.974.082-3.005-2.128.136-3.565-.303.176-.64.513-.875.967-.815.179-.646-.758-.846-1.335-1.19 1.92.046.342-1.935 2.75-.665-1.22-2.241-2.02-4.65-3.183-6.913.796-1.049.54.978 1.783.151-.601-1.507-.4-3.03-2.446-2.9 1.301-1.121 2.978-.527 4.084.526-2.043.25.99 2.512-1.119 2.599.114.978.839.191 1.855 1.413.203-.51-.463-.677-.816-.966.689.058 1.689-2.265.448-1.04-1.503-1.25 1.023-.776 1.19-1.335.658 1.18 1.483 3.589 3.71 2.83.167-.714-1.258-1.349-1.559-.672-.383-.566-.023-1.426-1.111-1.71 2.043-.652 6.229 3.337 4.3 4.315 1.245.958 1.467-.641 2.23-.886-2.765-3.556.912-4.156-1.847-5.723-1.218-.534.8-1.337 1.486-.593.401-1.738-1.855-2.418-1.255-4.237-.567-.343-.973-.282-1.263.073 1.062-1.636-1.772-2.269.007-4.308.322.59.381 1.284.37 2.007.462.081.741-.3 1.262-.073.364-1.007-1.563-1.1-.888-2.23-.903-.468-1.37.165-2.302-.374 1.054-.81.251-2.829-.59-1.488-.74-1.793-.872-2.193.525-4.086-1.353-.512-1.78 1.298-2.382 2.672-.567-.344-.973-.282-1.262.07-1.38-.937 1.146-.465 1.19-1.332.525-1.359-1.708-1.618-1.183-2.975-.847-.56-2.18 2.512-.376 2.303-2.907.865-.824-3.246-2.965-3.125 2.907-.017 4.737-2.558 5.427-2.592-.175-1.598-1.396-1.687-2.894-1.86 1.78-.227-.01-2.071-.816-.968-.034-1.279-.486-2.39-1.702-3.197 1.052-1.442.793-.842 1.117-2.598-.463-.083-.741.298-1.262.072-.203.511.463.678.815.967-.476.603-1.266.424-1.71 1.111-.949-.13.37-3.196 1.119-2.598-1.162-.652-.93-1.69-3.414-2.085 1.992-.785.085-2.219-.44-3.268-.57.8-.017 1.154.592 1.487-.477.601-1.267.423-1.71 1.11-1.143-.173-.067-3.66-1.335-1.192-1.33-1.336-2.67-2.667-3.04-4.386.498.576 1.58.92 3.566.302.573-1.089-1.742-1.029-2.375-1.638 2.033-.137 1.955-2.307-.367-2.005.478-1.162 1.59-2.776-.736-4.013.455-.3.905-.61 1.19-1.336 1.496 1.27 2.382.675 2.447 2.902.918-.219 1.625-.965 2.75-.664-.586-1.094-1.398-.973-1.928-2.676.143 2.095-3.007-1.28-4.011.734-1.544-.676-3.187-1.314-2.447-2.9 1.029.45.051 1.701 1.63 1.933-.538-1.937 1.456.222 3.27-.439.294-1.265-3.163-1.038-1.184-2.974l-1.039-.447c-.611.657-.78.39-1.934 1.631-.911-.642.979-2.4-1.407-2.453-.054 2.57-3.76 1.923-5.06 4.596-.928-1.2-1.277-.236-1.63-1.934-1.793-.577 1.334 2.48-.895 2.078.115.979.84.192 1.855 1.415-.478.603-1.267.424-1.71 1.112 1.219.539 1.915-.237 3.341.822-4.022 1.882 3.438 2.064-.902 6.386 1.027-.3 1.478-2.056 3.269-.439-.614 1.268-1.666 1.189-1.119 2.598.869.105.08-.753.672-1.56.324.52.659 1.029 1.04.448.634.465-.13 1.487-.377 2.302 1.522.936 2.14-.394 2.678-1.927 1.038.448 2.077.895 3.117 1.342.42 1.405-.331.641-.896 2.078.513.204.678-.462.968-.815.492 1.24-.113 2.915.736 4.013-1.034.508-1.806-2.986-3.933-2.31-.306 3.057 2.286 3.17-.383 6.61.693-.19 3.032-1.589 2.158-2.149.674-1.166 1.133 1.192 1.856 1.413-.372.51-1.185-.092-1.487.593-.125 1.95 3.366-.228 1.406 2.453.537-.095 1.078-.18 1.782.152-1.095 1.81-1.446.925.592 1.487-1.195.937-.347.994-1.637 2.374 1.178 2.787 3.099 3.826 4.453 2.533.438-1.035-1.133-1.271-.144-2.526.668 1.362 1.185.052 1.854 1.414-1.926.303-1.448 1.498.592 1.488-2.357 4.353-1.858-2.124-3.126 2.964-.84-.31-1.873-1.102-2.302-.373-.102-1.1-1.665-1.96-.143-2.527-1.256-.99-1.49.583-2.526.145-.024.357.279-.793.08-3.047-3.221 1.629-.936-4.474-4.973-2.756-.329-.95.15-.905.671-1.56-1.081.418-1.818-.31-1.112-1.708-.889.305-1.26-.007-.815-.969-1.027.271-1.567.039-2.078-.893-1.61-.076-2.616 1.36-3.94 1.999-.322-.591-.381-1.285-.368-2.007-.995-.336-1.077 1.622-1.934 1.63-1.05-.795.978-.539.151-1.782-.774-.142-.992 1.116-1.414 1.856-.464-1.844-.29-1.93-2.671-2.382-.799 1.463 1.252 2.824-1.119 2.597-.68-.62.202-.556.744-.296-1.507-2.185 1.185-3.128-.216-3.788.454-.3.906-.61 1.19-1.334.313.734.61 1.479.889 2.228.783-.202.583-1.7 1.782.151-.334-.87.203-2.088.822-3.34.966.626 1.672.594 2.007-.369.966.19.805.828.59 1.488.466.082.743-.299 1.264-.073.709-.918-2.355-2.422-.144-2.525.572-1.089-1.742-1.028-2.375-1.638 2.45-2.255-2.767-4.055-.433-7.578-1.995-1.768-2.25.835-4.084-.527.855-.39.913-.873-.072-1.263.622-1.3 2.465-.393 2.821.6 1.301-1.666-1.733-1.607-2.668-2.383.121-1.886.458-1.195 1.34-3.117-.03-.562-.055-1.126-.59-1.487-.855-.094-.145.48-.448 1.04-1.321.452-.314-1.593.6-2.822.768 1.82 1.27-.414.965-.815.703-1.286.588 1.098 2.079.895 1.428-.88 2.433-3.124 1.79-4.157.491-.927 1.897.439 2.525-.145.27-2.566 1.46-2.327.976-5.124-1.247.96-1.178-.123-2.008.37-.76-.78.332-.979.672-1.561-4.826-.145-.368-1.912-4.677-2.013 1.048-1.89 1.732-1.314 2.534-4.451 1.583.804 1.019 2.463 2.966 3.124-.657-.051-2.873 1.226-1.639 2.374 1.063-.845.85-1.423 2.381-2.67-.086-.612-1.105-1.41-.072-1.262.13-.808-.895-.44-1.262.07-1.99-1.045 1.358-1.553-.888-2.228 1.63-1.42 3.98 3.015 5.348.453.195 1.501 1.965 2.376 2.742 3.645-.203 1.653-1.313 1.032-1.638 2.376.968.267 1.57-.385 1.933-1.632 1.066.724-.891 2.65-1.047 3.862 1.188-.173 5.574.042 3.941-2 1.28-.389 2.399-1.188 4.309.007.405-.88.192-1.512-.368-2.007 2.453-1.732.51 3.767 2.598 1.118 2.133 1.625-1.175 2.735 1.926 2.68-.839 1.513-3.428 1.883-4.012.734-1.192 1.623-.085 2.332-1.045 3.861-1.005-.72-1.31.317-1.71 1.112-.29-.603-.935-1.065-1.857-1.414-.437 1.035 1.133 1.27.145 2.524.674-.11 1.052-.962 2.007-.368.443 4.473 2.056 5.987 2.655 10.999-.636.204-1.414.055-2.303-.374-.56.845 2.513 2.18 2.303.374.452.987.447 3.65-1.342 3.117.172.65.606 1.194 1.112 1.712 1.488.495 1.447-2.852 3.195-1.704-.694.414-1.285 1.099-1.638 2.374 2.104 1.317 2.438-1.808 3.349-3.485 1.634.64 2.208 1.703 3.19 2.604 1.196-1.337-.761-1.418-1.631-1.933 1.4-.57.62-1.282 1.118-2.598 1.217.168 2.038-.65 3.566.303.177-.645-.759-.847-1.336-1.19 1.57-1.869 1.427.845 2.375 1.637.25-1.598 1.751-1.554 3.053-4.23-1.514.57-.933.821-1.56-.67 1.493-1.733 2.258 1.421 3.494-.96.86.52.799 1.405.145 2.526 2.276.063 1.588 1.51 4.451 2.533-3.066-2.76 2.304-2.028-1.183-2.973 1.04-.27 1.917-.953 3.269-.44-.356-.976-1.123-1.694.376-2.303.719.576-.26 1.826 1.63 1.935.468-.904-.163-1.371.376-2.302 2.16.432.938 2.21 2.447 2.901-1.242.753-.322 2.176-.6 2.821-.664 1.142-1.902.598-2.303-.375.032.562.057 1.127.593 1.487-.717.372-1.317-.141-2.079-.895-.619-.115-.797.882-1.487.592 2.711 1.36 1.32 4.354 3.63 5.874-1.693-.291-2.008 3.73-.67 1.558.635.466-.13 1.488-.376 2.302-.902-.213-.683-.875-1.335-1.19-.511-.203-.677.462-.968.815.535 1.49 1.808 2.014 3.414 2.087-1.702.937.622 1.8-1.343 3.116 1.17.817 1.687 1.896.738 4.012-.866-.545-1.279.033-.744.297-1.95.287-2.644-.907-3.933-2.31.327 1.619.34 3.053 2.447 2.902-.64 1.804-.073 2.71-1.791 4.157 1.338 1.195 1.42-.762 1.935-1.631l2.597 1.118c-3.08-.532-2.599 3.046-5.498 1.328.014.385.431 2.557-.895 2.078 1.04.282-2.201-1.71-1.48-3.717-.463-.08-.743.299-1.262.072-.439 1.036 1.133 1.272.143 2.527-.945-.776-2.753 1.522-2.525.144-1.153.869-1.056 1.103.367 2.006-1.341 1.871-1.576 2.416-2.012 4.676 1.669 1.319 2.357-2.427 1.118-2.598 2.988-1.299-.517 3.627 1.256 4.237-.372.509-1.186-.093-1.487.591-.386.682 2.208.69.072 1.264-.215 1.3 1.082-.282 1.334 1.19-1.192 1.624-.085 2.33-1.045 3.86.438.122 2.314-1.038 1.191-1.334.98.485.574 5.214 1.175 7.282.464.081.744-.3 1.265-.073 1-2.104 6.911-4.194 8.39.534-.8.872-1.98.79-3.267.442.36-.9.965-1.18 1.71-1.112.081-.464-.298-.744-.072-1.264-2.667-.122-1.61 3.58-4.013.737.095.537.18 1.076-.152 1.782 2.088 1.156 6.53.336 8.76 2.541 2.338.167 3.15-3.012 1.273-4.381-1.063-.226.857 3.645-2.158 2.15.521-1.212 1.043-2.425 1.566-3.637 1.508-.179 3.85 1.744 4.531-.511-.511-.204-.677.461-.967.814-1.491.203-1.376-2.18-2.078-.894.637-3.109-3.417-.749-.665-2.751-1.526-1.665-3.985-2.294-2.518-4.163-.707-.18-3.195.414-2.822-.599.764-2.032.506-.004 1.782.152 1.52-1.794-3.379-1.71-.664-2.75-1.642.4-1.541 1.881-4.531.512 2.55-.803 5.117-1.568 7.433-2.957-.355-.822-3.606.26-4.756 1.03 2.14-2.308-1.668.455-.96-3.492 1.533-.778 3.722 1.292 3.269-.44.977-.43 1.135.323 2.599 1.118-.35.793-2.153 1.097-1.04-.447-1.088-.018-.48.912-.67 1.56 1.085.204 1.579-1.081 3.044.078-.782 1.98 2.196 1.37-.079 3.045 1.03.781 1.167-.674 2.007-.369-1.018.295 5.89 4.077-.153 1.784-.892-.168.062 1.11-.966.815.894 1.461.553 1.598-1.485.592.538 2.566 2.382 1.09 1.925 2.678.801.57 1.156.017 1.488-.593 1.27 1.218 2.605 2.408 2.518 4.165 2.034-1.584 3.085.328 5.346.454.846-3.719 3.823-1.75 6.396-3.407 1.535 1.219-.049 1.359-.896 2.08 1.454.699 2.442-.982 3.117 1.342 1.949.277.674-.857 1.638-2.374.612-.267 1.557.303 2.006-.369 1.704 2.115-5.387 2.687-1.269 4.381-2.88.236-4.517-.67-8.465-1.797-.345 1.989 1.98 1.838-.598 2.822 1.528.955 1.862-1.088 3.564.303-1.74 4.69-1.207 4.726-2.613 7.497 1.309.045 1.82-1.917 2.9-2.445l1.56.672c-.886 1.39-2.682-.564-1.638 2.374 1.258.635 1.96-.125 3.045.077-3.073 2.003.143-.362-2.085 3.414.961-.109 1.68-.826 2.157-2.15 1.51.69.847 2.246 1.703 3.197-.358.9-.965 1.18-1.71 1.112.05.226 1.503 1.828 2.599 1.118 1.24-1.225.24 1.097-.448 1.039-.203.51.462.678.815.966-1.095 1.334-1.538-1.03-2.597-1.119-1.451.3-.176 1.433-1.639 2.375 1.092.22 1.277-1.837 2.75-.663-.19.965-.828.805-1.488.592.023 1.358 2.804.653 3.27-.44 1.165.397-.558 1.943-.599 2.82-.6-1.599-1.595-.377-3.117-1.342-.023.631 1.229 2.692 1.56.671 1.096.229-.261 2.695-1.192 1.336-.179.646.758.847 1.334 1.191-.245-.986 2.948-.71 2.158-2.151.095-.483.413-.403.744-.295l1.039.447c-.515 1.229-1.554 1.145-1.862 2.894.879.405 1.512.193 2.007-.369.227 1.298-1.143 1.375-1.862 2.893 1.08 1.119 3.432.184 2.229-.886.56-1.12 2.299.728 3.34.824-.62 1.32-2.459-.413-2.675 1.925 2.336.211 1.949-.153 4.084.528-.417-1.08.103-2.342 1.71-1.111.43-1.177-2.108-1.17-2.894-1.863 1.562-.591 3.495.367 4.908-2.814.954.756.75 1.285-.153 1.783 1.006.719 1.31-.317 1.71-1.112.18-.646-.757-.846-1.334-1.191 1.545-.715 1.867-.205 3.717-1.48-.803-1.115-1.644-2.215-2.222-3.42 1.804-2.056.432-1.96.526-4.085-.868-.105-.082.754-.671 1.56-.814-2.117-3.285-3.574-2.144-6.467-.904-.467-1.37.165-2.302-.375-.134-2.674-1.721-4.77-1.695-7.505.4.972 1.639 1.516 2.302.374-.298-1.02-2.168-1.758-.145-2.525-1.352-.536-1.785 2.1-2.526.145 1.04-.272 1.918-.954 3.27-.44-1.247 2.074.844 2.82.512 4.531.894.31.361-2.47 2.454-1.407-1.737.548-.535 2.508-1.863 2.893 2.128 1.208 1.268-1.111 2.23-.887 1.738.79-.419 1.227.664 2.75.637-.204 1.415-.054 2.303.375.681.619-.2.556-.745.296-.786.218-.467 1.176-1.932 1.631.916-.225 2.145.341 2.75-.665.553 2.572.43 1.226.96 3.493.91.13 1.147-1.443 2.525-.143-2.692-.004-.184 2.238-1.863 2.893 1.41-.548.808.713 2.599 1.118-.248-2.677 1.266-2.87.007-4.308.335-.96 1.107-.821 1.414-1.855.936.273.966 1.466 1.559.672.283.741-.137 2.666-1.414 1.854-.036 1.916 2.96-.066 2.15 2.158 2.836-.444 4.252-4.46 7.953-2.736-.312.842-1.104 1.876-.376 2.304-.574.719-1.825-.26-1.933 1.63-.903-.215-.684-.876-1.335-1.191.333.872-.202 2.09-.823 3.341-.105.869.753.082 1.558.671.33.952-.149.904-.671 1.56-.202.51.462.677.816.967-1.155 1.237-2.145-1.094-3.117-1.343.894 1.462.55 1.597-1.487.591.204.637.053 1.415-.376 2.304 3.185-1.114 2.521.444 5.794-.584-.61.654.564 3.006-1.046 3.859 1.338-.583 1.304 1.403 2.526-.143.179-.645-.758-.847-1.334-1.191.518-.325 1.027-.66.446-1.04.52-.86 1.405-.799 2.526-.143.358-3.41 3.345-3.392 4.843-8.386.636-.204 1.414-.053 2.302.374-.176-.79-.084-1.688.599-2.82.326.518.66 1.027 1.04.447-.486 1.49.252 2.06 1.479 3.715-2.03.571-2.206.914-1.862 2.894-1.443-1.052-.842-.794-2.599-1.118.919-.413.555-.73.673-1.558-1.207.245-.248 1.685-1.638 2.373 1.396.658 1.417-.414 2.077.895-1.342 4.56-4.4 4.809-6.105 8.459-1.859.403-2.653.061-3.637-1.567-.904-.467-1.37.165-2.302-.375-.783 1.03.673 1.167.367 2.007 1.701-1.492 2.51 1.058 3.566.302.658 2.63-.441 1.63-1.567 3.638 1.155-.253 5.415 2.491 3.263 3.867.648-.17 1.194-.604 1.71-1.11.3.455.61.904 1.335 1.19-.43.363-.857.733-1.486.59-.452 1.394 1.2-.326 2.078.896 1.101 1.638-3.18 1.361.144 2.527-.605 1.005-1.835.44-2.75.664 2.972.964-.625 3.667-3.124 2.966.094-.483.414-.403.743-.296.179-.645-.76-.847-1.334-1.192 1.565-.763.292-1.31-.52-.223-.375-.724.252-1.036.598-2.821-1.157-.742-.73 2.491-2.23.887.309-1.75 1.347-1.665 1.862-2.893-.67-.112-2.77 2.3-1.782-.152-.644-.179-.846.758-1.19 1.334-.866-1.377-2.261-2.545-1.776-4.459-1.315 1.742-3.065 2.392-5.796.584-.429 1.176 2.109 1.171 2.894 1.861-1.95.683-2.656 1.649-3.788.218 1.12 2.365.546 4.068-3.645 2.741-.496 1.855.636 4.822-1.125 6.907-.675 1.131 1.252 1.223.887 2.23.844-.042 1.446-.693 1.935-1.63 1.958.511 2.487 1.592 2.446 2.9-2.334 1.186-3.383 5.325-5.579 4.373-.63 1.83-.125 3.208 1.256 4.237-2.606-.174.494 2.435-2.157 2.15 1.476-.332 1.97 2.38 4.452 2.534-.477.603-1.267.422-1.71 1.111 3.997.191 2.315 4.664 5.189 6.545-3.323 1.868-3.356 4.518-6.69 2.663 1.957-2.742.481-1.005-.44-3.27.346-.573 1.135-.03 1.782.152-2.51-1.375-5.309-2.743-5.412-6.025-1.191-.184-1.183 2.404-2.007.367.346.724-.663 1.987.888 2.231-1.731 1.133-1.201 1.235-2.31 3.932-1.322 1.424.013-1.648.376-2.302-.95.33-.905-.149-1.558-.67-.218 2.172-.298 2.656-.527 4.084-.347.573-1.137.03-1.784-.15-.571.8-.016 1.154.592 1.485-1.205 1.11-1.143 1.42-2.526.144.206.637.054 1.413-.375 2.302.538-.095 1.076-.178 1.782.152-1.176 1.95-.958 1.441-1.566 3.637 3.388-.662-.657 2.389 2.448 2.9-1.715 1.798-.864 2.406.44 3.27-.346.567-.284.975.071 1.262-3.726 2.477-4.218-3.908-6.53-3.427 2.334-.389-.688-3.004 1.342-3.118-.024-.658-2.701-.74-.369-2.005-1.396-.658-1.418.414-2.077-.895.296 1.072-4.197 4.949-5.874 3.629-1.179 1.95-.96 1.442-1.566 3.637-1.34-.471-1.284-1.498-1.408-2.453.497 1.863-5.56 1.512-3.565-.303-2.493-.604-1.025 2.479-3.492.96.185-1.098 2.564-1.548.375-2.302.906-.966 1.936-1.626 3.492-.961z" fill="#525A75" fill-rule="evenodd" opacity=".32"/></svg>