<svg width="3576" height="1041" xmlns="http://www.w3.org/2000/svg" xmlns:xlink="http://www.w3.org/1999/xlink"><defs><path id="a" d="M3830.923.018l-457.941 2355.905L1220.965 849.065z"/><linearGradient x1="50%" y1="0%" x2="50%" y2="100%" id="c"><stop stop-color="#FFE2AD" offset="0%"/><stop stop-color="#FFE2AD" offset="100%"/></linearGradient></defs><g transform="translate(0 -1315)" fill="none" fill-rule="evenodd"><mask id="b" fill="#fff"><use xlink:href="#a"/></mask><use fill="#232E3B" xlink:href="#a"/><g mask="url(#b)"><path fill="url(#c)" d="M68 101v288l288-159.774z" transform="translate(2117 1403)"/><path stroke="#95A1AE" stroke-width="2" d="M2117.71 1519.863L2244 1426l75.65 99.846L2380 1497"/></g><path fill-opacity=".32" fill="#626F7F" d="M2369.318 1375.038l301.48 92.172-194.353 88.649z"/><path fill="#7CA8FF" d="M2219.15 1216.697L1808 1406.18 1965.661 1172z"/><path fill="#F3F5F8" d="M929.481 2044.131l166.012-212.485 187.026 82.223z"/><path d="M1461.716 1305.234c-.62 1.401-.67 2.452-.67 3.669v77.938l112.012-62.141.162-.029c5.835-1.053 12.031-.896 18.024-.743 11.3.286 22.99.583 33.201-7.075 20.487-14.751 6.053-37.334-5.545-55.48-2.085-3.262-4.054-6.343-5.72-9.22l-1.183-2.044 2.291.573c8.31 2.078 15.984 5.713 23.405 9.229 10.782 5.107 20.969 9.933 32.86 10.323 2.514-1.017 4.722-2.241 6.859-3.427l68.395-37.944-134.457-59.864c-2.68-1.193-5.447-2.426-6.7-4.701l-.252-.457.231-.467c5.099-10.339 8.836-20.888 1.71-28.015l-.125-.152c-2.149-3.223-6.213-2.324-10.513-1.37-2.642.586-5.371 1.192-7.756.812-7.943-.329-17.166-2.962-26.085-5.508-20.07-5.729-39.027-11.14-46.907 5.93-1.874 3.441-1.907 9.093-1.943 15.077-.049 8.38-.101 17.044-5.235 21.068-2.971 2.328-7.21 2.789-12.963 1.409-11.456-2.081-16.696-14.215-17.762-24.873-.004-11.961 6.72-22.038 14.131-31.157-1.794-1.897-4.574-3.135-7.271-4.336l-22.864-10.179v40.993c-.082 7.92-.088 17.587-.017 28.743.043 6.841.034 14.07.025 21.724-.005 3.272-.008 6.6-.008 9.973 0 2.67 0 5.43-.401 8.057l-.144.939-.945-.094c-11.924-1.197-33.979-.471-47.711 17.838-6.306 8.6-8.533 21.076-5.533 31.036 1.399 4.645 4.474 10.609 11.23 14.161-4.937-8.988-5.991-19.621-2.762-29.03 3.264-9.514 10.349-16.516 19.949-19.716 16.044-5.015 34.605 3.363 43.199 19.478 13.333 25.454-6.778 49.681-16.212 59.052zm-2.67 85.004v-81.335c0-1.407.071-2.824.929-4.671l.075-.163.128-.127c9.06-8.962 28.754-32.441 15.982-56.826-8.014-15.024-25.944-23.159-40.816-18.509-8.978 2.993-15.615 9.551-18.672 18.461-3.365 9.807-1.792 21.032 4.206 30.03l1.703 2.554-2.881-1.061c-7.554-2.783-12.846-8.566-15.303-16.725-3.172-10.531-.824-23.715 5.842-32.805 10.459-13.945 27.676-20.571 48.553-18.727.254-2.21.254-4.549.254-6.821 0-3.374.003-6.703.008-9.976.009-7.649.018-14.875-.026-21.708-.07-11.167-.064-20.845.018-28.766V1099l25.677 11.432c3.047 1.357 6.501 2.894 8.552 5.534l.489.631-.506.617c-6.876 8.386-14.212 18.346-14.212 30.438.942 9.379 5.75 21.121 16.178 23.017 5.175 1.24 8.858.9 11.317-1.027 4.374-3.428 4.423-11.601 4.469-19.506.038-6.243.072-12.139 2.158-15.963 8.567-18.565 29.244-12.663 49.241-6.955 8.829 2.52 17.958 5.126 25.677 5.435l.124.013c2.015.337 4.579-.232 7.058-.782 4.519-1.001 9.635-2.134 12.553 2.13 8.803 8.907 2.313 22.703-1.149 29.739 1.077 1.453 3.316 2.45 5.487 3.418l138.125 61.496-71.89 39.883c-2.258 1.252-4.581 2.54-7.294 3.619l-.191.076-.206-.006c-12.401-.352-23.313-5.522-33.866-10.521-6.619-3.135-13.441-6.367-20.676-8.459 1.351 2.23 2.855 4.581 4.424 7.037 11.417 17.861 27.052 42.323 5.045 58.168-10.752 8.064-22.794 7.759-34.436 7.463-6.105-.155-11.874-.301-17.457.683l-114.691 63.628zM2296 1898l75.523 13.555 17.074 68.48z" fill="#DFE5EB"/><path fill="#F3F5F8" d="M2406.859 1765.01l-1.388 36.373L2369 1778z"/></g></svg>